# This file uses centimeters as units for non-parametric coordinates.

mtllib N_ElectricalBox.mtl
g default
v 501.182255 82.497459 1128.651587
v 501.182255 82.685646 1128.281958
v 501.182255 82.978767 1127.988990
v 501.182255 83.348106 1127.800513
v 501.182255 83.757515 1127.736060
v 501.182255 84.166924 1127.800513
v 501.182255 84.536263 1127.988990
v 501.182255 84.829384 1128.281958
v 501.182255 85.017570 1128.651587
v 501.182255 85.082405 1129.060767
v 501.182255 85.017570 1129.469947
v 501.182255 84.829384 1129.839576
v 501.182255 84.536263 1130.132544
v 501.182255 84.166924 1130.321021
v 501.182255 83.757515 1130.385474
v 501.182255 83.348106 1130.321021
v 501.182255 82.978767 1130.132544
v 501.182255 82.685646 1129.839576
v 501.182255 82.497459 1129.469947
v 501.182255 82.432625 1129.060767
v 501.735478 82.497459 1128.651587
v 501.735478 82.685646 1128.281958
v 501.735478 82.978767 1127.988990
v 501.735478 83.348106 1127.800513
v 501.735478 83.757515 1127.736060
v 501.735478 84.166924 1127.800513
v 501.735478 84.536263 1127.988990
v 501.735478 84.829384 1128.281958
v 501.735478 85.017570 1128.651587
v 501.735478 85.082405 1129.060767
v 501.735478 85.017570 1129.469947
v 501.735478 84.829384 1129.839576
v 501.735478 84.536263 1130.132544
v 501.735478 84.166924 1130.321021
v 501.735478 83.757515 1130.385474
v 501.735478 83.348106 1130.321021
v 501.735478 82.978767 1130.132544
v 501.735478 82.685646 1129.839576
v 501.735478 82.497459 1129.469947
v 501.735478 82.432625 1129.060767
v 501.182255 83.757515 1129.060767
v 501.735478 83.757515 1129.060767
v 457.181034 19.033915 1087.376685
v 457.181034 19.033918 1162.813697
v 457.181034 26.194725 1087.376708
v 457.181034 26.194717 1162.813697
v 501.247933 26.194721 1087.376708
v 501.247933 26.194721 1162.813697
v 501.247929 19.033913 1087.376685
v 501.247929 19.033916 1162.813697
v 502.288700 83.184143 1128.874244
v 502.288700 83.269775 1128.706275
v 502.288700 83.403152 1128.573218
v 502.288700 83.571220 1128.487769
v 502.288700 83.757507 1128.457740
v 502.288700 83.943802 1128.487769
v 502.288700 84.111870 1128.573218
v 502.288700 84.245239 1128.706275
v 502.288700 84.330872 1128.874244
v 502.288700 84.360397 1129.060767
v 502.288700 84.330872 1129.247290
v 502.288700 84.245239 1129.415259
v 502.288700 84.111870 1129.548804
v 502.288700 83.943802 1129.634009
v 502.288700 83.757507 1129.663794
v 502.288700 83.571220 1129.634009
v 502.288700 83.403152 1129.548804
v 502.288700 83.269775 1129.415259
v 502.288700 83.184143 1129.247290
v 502.288700 83.154648 1129.060767
v 502.841923 83.184135 1128.874244
v 502.841923 83.269783 1128.706275
v 502.841923 83.403145 1128.573462
v 502.841923 83.571220 1128.488013
v 502.841923 83.757515 1128.457740
v 502.841923 83.943794 1128.488013
v 502.841923 84.111870 1128.573462
v 502.841923 84.245232 1128.706275
v 502.841923 84.330879 1128.874244
v 502.841923 84.360390 1129.060767
v 502.841923 84.330879 1129.247290
v 502.841923 84.245232 1129.415259
v 502.841923 84.111870 1129.549048
v 502.841923 83.943794 1129.634009
v 502.841923 83.757515 1129.663794
v 502.841923 83.571220 1129.634009
v 502.841923 83.403145 1129.549048
v 502.841923 83.269783 1129.415259
v 502.841923 83.184135 1129.247290
v 502.841923 83.154640 1129.060767
v 502.288700 83.757545 1129.060767
v 502.841923 83.757515 1129.060767
v 502.288700 79.232613 1128.934790
v 502.288700 79.232643 1128.821509
v 502.841923 79.232643 1128.821509
v 502.841923 79.232613 1128.934790
v 502.288700 79.232643 1128.732154
v 502.841923 79.232643 1128.732154
v 502.288700 79.232658 1128.674536
v 502.841923 79.232658 1128.674536
v 502.288700 79.232658 1128.654029
v 502.841923 79.232658 1128.654029
v 502.288700 79.232536 1129.467505
v 502.288700 79.232536 1129.447486
v 502.841923 79.232536 1129.447486
v 502.841923 79.232536 1129.467505
v 502.288700 79.232536 1129.389869
v 502.841923 79.232536 1129.389869
v 502.288700 79.232552 1129.300025
v 502.841923 79.232552 1129.300025
v 502.288700 79.232567 1129.186744
v 502.841923 79.232567 1129.186744
v 502.288700 79.232597 1129.060767
v 502.841923 79.232597 1129.060767
v 457.181034 26.194725 1158.840064
v 457.181036 135.315254 1158.840064
v 457.181036 135.315254 1162.813697
v 501.247931 135.315254 1158.840064
v 501.247931 135.315254 1162.813697
v 501.247929 26.194725 1158.840064
v 501.047367 82.202904 1119.889869
v 501.047367 82.391075 1119.521216
v 501.047367 82.684212 1119.228736
v 501.047367 83.053505 1119.038306
v 501.047367 83.462944 1118.975806
v 501.047367 83.872322 1119.038306
v 501.047367 84.241676 1119.228736
v 501.047367 84.534813 1119.521216
v 501.047367 84.722984 1119.889869
v 501.047367 84.787819 1120.300025
v 501.047367 84.722984 1120.708228
v 501.047367 84.534813 1121.078345
v 501.047367 84.241676 1121.370337
v 501.047367 83.872322 1121.560279
v 501.047367 83.462944 1121.623267
v 501.047367 83.053505 1121.560279
v 501.047367 82.684212 1121.370337
v 501.047367 82.391075 1121.078345
v 501.047367 82.202904 1120.708228
v 501.047367 82.138069 1120.300025
v 501.600834 82.247749 1119.904517
v 501.600834 82.429237 1119.548560
v 501.600834 82.711937 1119.266822
v 501.600834 83.068077 1119.083228
v 501.600834 83.462944 1119.022681
v 501.600834 83.857750 1119.083228
v 501.600834 84.213951 1119.266822
v 501.600834 84.496651 1119.548560
v 501.600834 84.678123 1119.904517
v 501.600834 84.740654 1120.300025
v 501.600834 84.678123 1120.693579
v 501.600834 84.496651 1121.050513
v 501.600834 84.213951 1121.332251
v 501.600834 83.857750 1121.515357
v 501.600834 83.462944 1121.576392
v 501.600834 83.068077 1121.515357
v 501.600834 82.711937 1121.332251
v 501.600834 82.429237 1121.050513
v 501.600834 82.247749 1120.693579
v 501.600834 82.185234 1120.300025
v 501.047367 83.462944 1120.300025
v 501.600834 83.462944 1120.300025
v 501.047367 81.889046 1119.787329
v 501.047367 82.124062 1119.325415
v 501.600834 82.193748 1119.376197
v 501.600834 81.970940 1119.814185
v 501.047367 82.490211 1118.960669
v 501.600834 82.540840 1119.030982
v 501.047367 82.951530 1118.724829
v 501.600834 82.978127 1118.807349
v 501.047367 83.462898 1118.645240
v 501.600834 83.462898 1118.730689
v 501.047367 83.974297 1118.724829
v 501.600834 83.947685 1118.807349
v 501.047367 84.435631 1118.960669
v 501.600834 84.385002 1119.030982
v 501.047367 84.801750 1119.325415
v 501.600834 84.732079 1119.376197
v 501.047367 85.036842 1119.787329
v 501.600834 84.954918 1119.814185
v 501.047367 85.117790 1120.298560
v 501.600834 85.031654 1120.298560
v 501.047367 85.036842 1120.810279
v 501.600834 84.954918 1120.783911
v 501.047367 84.801750 1121.271704
v 501.600834 84.732079 1121.220923
v 501.047367 84.435631 1121.637915
v 501.600834 84.385002 1121.568091
v 501.047367 83.974297 1121.872290
v 501.600834 83.947685 1121.790747
v 501.047367 83.462898 1121.953345
v 501.600834 83.462898 1121.866919
v 501.047367 82.951530 1121.872290
v 501.600834 82.978127 1121.790747
v 501.047367 82.490211 1121.637915
v 501.600834 82.540840 1121.568091
v 501.047367 82.124062 1121.271704
v 501.600834 82.193748 1121.220923
v 501.047367 81.889046 1120.810279
v 501.600834 81.970940 1120.783911
v 501.047367 81.808037 1120.298560
v 501.600834 81.894157 1120.298560
v 501.047367 81.634087 1119.587134
v 501.047367 81.634087 1118.944068
v 501.600834 81.634087 1118.944068
v 501.600834 81.634087 1119.587134
v 501.047367 81.634087 1118.216040
v 501.600834 81.634087 1118.216040
v 501.047367 82.751060 1118.216040
v 501.600834 82.751060 1118.216040
v 501.047367 83.462898 1118.216040
v 501.600834 83.462898 1118.216040
v 501.047367 84.174782 1118.216040
v 501.600834 84.174782 1118.216040
v 501.047367 85.291725 1118.216040
v 501.600834 85.291725 1118.216040
v 501.047367 85.291725 1118.944068
v 501.600834 85.291725 1118.944068
v 501.047367 85.291725 1119.587134
v 501.600834 85.291725 1119.587134
v 501.047367 85.291725 1120.298560
v 501.600834 85.291725 1120.298560
v 501.047367 85.291725 1121.009986
v 501.600834 85.291725 1121.009986
v 501.047367 85.291725 1121.652564
v 501.600834 85.291725 1121.652564
v 501.047367 85.291725 1122.382544
v 501.600834 85.291725 1122.382544
v 501.047367 84.174782 1122.382544
v 501.600834 84.174782 1122.382544
v 501.047367 83.462898 1122.382544
v 501.600834 83.462898 1122.382544
v 501.047367 82.751060 1122.382544
v 501.600834 82.751060 1122.382544
v 501.047367 81.634087 1122.382544
v 501.600834 81.634087 1122.382544
v 501.047367 81.634087 1121.652564
v 501.600834 81.634087 1121.652564
v 501.047367 81.634087 1121.009986
v 501.600834 81.634087 1121.009986
v 501.047367 81.634087 1120.298560
v 501.600834 81.634087 1120.298560
v 501.724858 82.202904 1119.889869
v 501.724858 82.391075 1119.521216
v 501.724858 82.073418 1119.847876
v 501.724858 82.280907 1119.439673
v 501.724858 82.684212 1119.228736
v 501.724858 82.604164 1119.117896
v 501.724858 83.053505 1119.038306
v 501.724858 83.011421 1118.909400
v 501.724858 83.462944 1118.975806
v 501.724858 83.462898 1118.838599
v 501.724858 83.872322 1119.038306
v 501.724858 83.914391 1118.909400
v 501.724858 84.241676 1119.228736
v 501.724858 84.321663 1119.117896
v 501.724858 84.534813 1119.521216
v 501.724858 84.644905 1119.439673
v 501.724858 84.722984 1119.889869
v 501.724858 84.852440 1119.847876
v 501.724858 84.787819 1120.300025
v 501.724858 84.923912 1120.298560
v 501.724858 84.722984 1120.708228
v 501.724858 84.852440 1120.750708
v 501.724858 84.534813 1121.078345
v 501.724858 84.644905 1121.157447
v 501.724858 84.241676 1121.370337
v 501.724858 84.321663 1121.481177
v 501.724858 83.872322 1121.560279
v 501.724858 83.914391 1121.688208
v 501.724858 83.462944 1121.623267
v 501.724858 83.462898 1121.759497
v 501.724858 83.053505 1121.560279
v 501.724858 83.011421 1121.688208
v 501.724858 82.684212 1121.370337
v 501.724858 82.604164 1121.481177
v 501.724858 82.391075 1121.078345
v 501.724858 82.280907 1121.157447
v 501.724858 82.202904 1120.708228
v 501.724858 82.073418 1120.750708
v 501.724858 82.138069 1120.300025
v 501.724858 82.001915 1120.298560
v 449.262211 -0.000002 1074.162818
v 449.262211 -0.000002 1174.439185
v 449.262211 14.210859 1074.162818
v 449.262211 14.210859 1174.439185
v 507.839237 14.210859 1074.162818
v 507.839237 14.210859 1174.439185
v 507.839237 -0.000003 1074.162818
v 507.839237 -0.000003 1174.439185
v 455.294926 15.650823 1085.376197
v 455.294926 15.650823 1164.798072
v 501.806401 15.650826 1164.798072
v 501.806401 15.650823 1085.376197
v 476.446903 67.223763 1163.584693
v 477.243290 67.223763 1164.840064
v 476.446903 80.503029 1163.584693
v 477.243290 79.232536 1164.840064
v 486.387577 80.503029 1163.584693
v 485.591191 79.232536 1164.840064
v 486.387577 67.223763 1163.584693
v 485.591191 67.223763 1164.840064
v 486.387577 67.223763 1162.794165
v 476.446903 67.223763 1162.794165
v 476.446903 80.503029 1162.794165
v 486.387577 80.503029 1162.794165
v 457.181034 26.194725 1091.350318
v 457.181036 135.315254 1091.350318
v 461.005987 135.315254 1091.350318
v 461.005987 135.315254 1158.840064
v 461.005986 26.194725 1091.350318
v 461.005986 26.194725 1158.840064
v 501.735478 83.184151 1128.874244
v 501.735478 83.269783 1128.706275
v 501.735478 83.403160 1128.572974
v 501.735478 83.571220 1128.487525
v 501.735478 83.757515 1128.457740
v 501.735478 83.943810 1128.487525
v 501.735478 84.111870 1128.572974
v 501.735478 84.245247 1128.706275
v 501.735478 84.330879 1128.874244
v 501.735478 84.360390 1129.060767
v 501.735478 84.330879 1129.247290
v 501.735478 84.245247 1129.415259
v 501.735478 84.111870 1129.548560
v 501.735478 83.943810 1129.634009
v 501.735478 83.757515 1129.663794
v 501.735478 83.571220 1129.634009
v 501.735478 83.403160 1129.548560
v 501.735478 83.269783 1129.415259
v 501.735478 83.184151 1129.247290
v 501.735478 83.154640 1129.060767
v 457.181036 135.315254 1087.376708
v 501.247931 135.315254 1087.376708
v 501.247931 135.315254 1091.350318
v 501.247929 26.194725 1091.350318
v 498.282597 26.194710 1091.734107
v 498.282597 26.194710 1158.442603
v 498.282597 135.315224 1091.734107
v 498.282597 135.315224 1158.442603
v 501.247685 135.315224 1091.734107
v 501.247685 135.315224 1158.442603
v 501.247685 26.194706 1091.734107
v 501.247685 26.194706 1158.442603
v 501.247687 135.315224 1124.700904
v 501.247687 135.315224 1125.475806
v 501.247685 26.194710 1125.475806
v 501.247685 26.194710 1124.700904
v 500.000860 135.315224 1124.700904
v 500.000860 135.315224 1125.475806
v 500.000859 26.194710 1125.475806
v 500.000859 26.194710 1124.700904
v 460.218634 135.315254 1092.575904
v 460.218634 135.315254 1157.612525
v 498.209967 135.315254 1092.575904
v 498.209967 135.315254 1157.612525
v 451.221806 135.315254 1078.178443
v 451.221806 135.315254 1172.009986
v 451.221806 142.143074 1172.009986
v 451.221806 142.143074 1078.178443
v 507.206913 135.315254 1172.009986
v 507.206913 142.143074 1172.009986
v 507.206913 135.315254 1078.178443
v 507.206913 142.143074 1078.178443
v 479.214299 147.132271 1078.178420
v 479.214299 147.132271 1172.009963
vt 0.346342 0.015226
vt 0.345238 0.015226
vt 0.351846 0.006197
vt 0.350796 0.005857
vt 0.344189 0.015568
vt 0.352739 0.006846
vt 0.343296 0.016216
vt 0.353388 0.007738
vt 0.342649 0.017109
vt 0.353728 0.008788
vt 0.342307 0.018158
vt 0.353729 0.009891
vt 0.342308 0.019262
vt 0.353387 0.010940
vt 0.342649 0.020311
vt 0.352739 0.011833
vt 0.343299 0.021204
vt 0.351846 0.012482
vt 0.344191 0.021852
vt 0.350797 0.012823
vt 0.345240 0.022192
vt 0.349695 0.012823
vt 0.346344 0.022192
vt 0.348645 0.012482
vt 0.347393 0.021850
vt 0.347752 0.011833
vt 0.348286 0.021202
vt 0.347103 0.010941
vt 0.348933 0.020309
vt 0.346763 0.009891
vt 0.349274 0.019260
vt 0.346762 0.008788
vt 0.349273 0.018156
vt 0.347104 0.007739
vt 0.348932 0.017107
vt 0.347752 0.006846
vt 0.348283 0.016214
vt 0.348645 0.006198
vt 0.347391 0.015567
vt 0.349694 0.005857
vt 0.345791 0.018709
vt 0.350245 0.009340
vt 0.021013 0.711996
vt 0.221799 0.711996
vt 0.240858 0.711996
vt 0.240858 0.594705
vt 0.021013 0.575646
vt 0.221799 0.594705
vt 0.021013 0.594705
vt 0.356955 0.010443
vt 0.372506 0.016864
vt 0.358440 0.010206
vt 0.358427 0.010507
vt 0.358450 0.009968
vt 0.358457 0.009815
vt 0.358459 0.008288
vt 0.358459 0.009760
vt 0.371006 0.009862
vt 0.370514 0.009760
vt 0.371443 0.010109
vt 0.371782 0.010477
vt 0.371991 0.010934
vt 0.372047 0.011433
vt 0.371947 0.011926
vt 0.371700 0.012363
vt 0.371330 0.012703
vt 0.370874 0.012910
vt 0.370375 0.012967
vt 0.356894 0.011859
vt 0.372611 0.022665
vt 0.358367 0.011870
vt 0.358365 0.011923
vt 0.958003 0.019551
vt 0.358374 0.011717
vt 0.997668 0.019562
vt 0.358384 0.011478
vt 0.972996 0.018163
vt 0.358397 0.011177
vt 0.986131 0.016693
vt 0.358412 0.010842
vt 0.368941 0.010802
vt 0.369188 0.010365
vt 0.370444 0.011364
vt 0.369558 0.010027
vt 0.370015 0.009819
vt 0.369883 0.012867
vt 0.369446 0.012621
vt 0.369107 0.012250
vt 0.368898 0.011794
vt 0.368841 0.011294
vt 0.879504 0.940512
vt 0.475654 0.436374
vt 0.766094 0.436374
vt 0.821831 0.143542
vt 0.766094 0.319084
vt 0.766094 0.308508
vt 0.475654 0.319084
vt 0.465078 0.319084
vt 0.955349 0.004384
vt 0.981193 0.004384
vt 0.957061 0.005857
vt 0.955349 0.005857
vt 0.979255 0.004384
vt 0.958999 0.005857
vt 0.979255 0.007357
vt 0.958999 0.008830
vt 0.979255 0.009252
vt 0.958999 0.010725
vt 0.979255 0.011147
vt 0.958999 0.012620
vt 0.979255 0.014120
vt 0.958998 0.015593
vt 0.981193 0.014120
vt 0.957061 0.015593
vt 0.982905 0.014120
vt 0.955349 0.015593
vt 0.984798 0.014120
vt 0.953456 0.015593
vt 0.986692 0.014120
vt 0.951562 0.015593
vt 0.988402 0.014120
vt 0.949852 0.015593
vt 0.990345 0.014120
vt 0.947909 0.015593
vt 0.990345 0.011147
vt 0.947909 0.012620
vt 0.990345 0.009252
vt 0.947909 0.010725
vt 0.990345 0.007357
vt 0.947909 0.008830
vt 0.990345 0.004384
vt 0.947909 0.005857
vt 0.988402 0.004384
vt 0.949852 0.005857
vt 0.986692 0.004384
vt 0.951562 0.005857
vt 0.984798 0.004384
vt 0.953456 0.005857
vt 0.982729 0.006399
vt 0.983711 0.005898
vt 0.984802 0.009252
vt 0.981951 0.007179
vt 0.981444 0.008162
vt 0.981278 0.009252
vt 0.981444 0.010342
vt 0.981951 0.011325
vt 0.982729 0.012105
vt 0.983711 0.012606
vt 0.984802 0.012778
vt 0.985889 0.012606
vt 0.986874 0.012105
vt 0.987651 0.011325
vt 0.988157 0.010342
vt 0.988324 0.009252
vt 0.988157 0.008162
vt 0.987651 0.007179
vt 0.986874 0.006399
vt 0.985889 0.005898
vt 0.984802 0.005726
vt 0.969929 0.005533
vt 0.970964 0.005718
vt 0.971137 0.011017
vt 0.971937 0.006116
vt 0.972815 0.006702
vt 0.973539 0.007464
vt 0.974097 0.008355
vt 0.974448 0.009351
vt 0.974592 0.010392
vt 0.974514 0.011440
vt 0.974216 0.012462
vt 0.965151 0.012776
vt 0.964766 0.011795
vt 0.964608 0.010756
vt 0.964657 0.009703
vt 0.964939 0.008691
vt 0.965417 0.007754
vt 0.966088 0.006942
vt 0.966912 0.006291
vt 0.967858 0.005826
vt 0.968875 0.005571
vt 0.982208 0.005688
vt 0.983438 0.005063
vt 0.971062 0.005378
vt 0.969954 0.005181
vt 0.969978 0.004820
vt 0.971165 0.005029
vt 0.981237 0.006663
vt 0.972105 0.005802
vt 0.972276 0.005482
vt 0.980610 0.007891
vt 0.973041 0.006434
vt 0.973274 0.006156
vt 0.980398 0.009252
vt 0.973821 0.007246
vt 0.974106 0.007024
vt 0.980610 0.010613
vt 0.974414 0.008202
vt 0.974741 0.008045
vt 0.981237 0.011841
vt 0.974793 0.009266
vt 0.975146 0.009179
vt 0.982208 0.012815
vt 0.974945 0.010381
vt 0.975309 0.010368
vt 0.983438 0.013441
vt 0.974861 0.011502
vt 0.975216 0.011570
vt 0.984798 0.013657
vt 0.965441 0.013868
vt 0.965177 0.014116
vt 0.986160 0.013441
vt 0.964834 0.012938
vt 0.964510 0.013103
vt 0.987389 0.012816
vt 0.964427 0.011886
vt 0.964080 0.011981
vt 0.988363 0.011841
vt 0.964252 0.010776
vt 0.963890 0.010792
vt 0.988987 0.010613
vt 0.964310 0.009648
vt 0.963957 0.009591
vt 0.989203 0.009252
vt 0.964607 0.008562
vt 0.964273 0.008431
vt 0.988987 0.007891
vt 0.965124 0.007561
vt 0.964825 0.007362
vt 0.988363 0.006663
vt 0.965842 0.006690
vt 0.965589 0.006434
vt 0.987389 0.005688
vt 0.966724 0.005992
vt 0.966533 0.005687
vt 0.986160 0.005063
vt 0.967737 0.005494
vt 0.967610 0.005155
vt 0.984798 0.004847
vt 0.968826 0.005221
vt 0.968778 0.004862
vt 0.971285 0.004608
vt 0.970009 0.004384
vt 0.972481 0.005096
vt 0.973555 0.005821
vt 0.974452 0.006755
vt 0.975134 0.007856
vt 0.975571 0.009076
vt 0.975746 0.010356
vt 0.975646 0.011650
vt 0.964838 0.014393
vt 0.964122 0.013303
vt 0.963657 0.012094
vt 0.963453 0.010814
vt 0.963525 0.009521
vt 0.963866 0.008273
vt 0.964459 0.007122
vt 0.965282 0.006122
vt 0.966297 0.005318
vt 0.967458 0.004745
vt 0.968716 0.004429
vt 0.130736 0.518803
vt 0.397636 0.518803
vt 0.435460 0.518803
vt 0.130736 0.556628
vt 0.092912 0.362892
vt 0.397636 0.325068
vt 0.397636 0.362892
vt 0.130736 0.362892
vt 0.893887 0.130801
vt 0.904348 0.135821
vt 0.461494 0.502746
vt 0.693101 0.130801
vt 0.092912 0.518803
vt 0.397636 0.556627
vt 0.693101 0.013511
vt 0.893887 0.013511
vt 0.435460 0.362892
vt 0.130736 0.325068
vt 0.371974 0.308480
vt 0.062731 0.378949
vt 0.300346 0.036621
vt 0.300346 0.032664
vt 0.332309 0.032664
vt 0.337063 0.034784
vt 0.332309 0.010445
vt 0.335691 0.006488
vt 0.300346 0.010445
vt 0.297005 0.008326
vt 0.942883 0.004384
vt 0.300346 0.038726
vt 0.339167 0.034784
vt 0.335691 0.004384
vt 0.469512 0.467194
vt 0.448060 0.651489
vt 0.757423 0.681886
vt 0.388498 0.184370
vt 0.759501 0.671497
vt 0.757158 0.477551
vt 0.455304 0.645015
vt 0.476464 0.474519
vt 0.353504 0.018651
vt 0.353505 0.019152
vt 0.352032 0.019154
vt 0.353660 0.019629
vt 0.352260 0.020086
vt 0.353956 0.020035
vt 0.352766 0.020902
vt 0.354362 0.020330
vt 0.353496 0.021521
vt 0.354840 0.020484
vt 0.354388 0.021886
vt 0.355342 0.020484
vt 0.355342 0.021957
vt 0.355819 0.020329
vt 0.356275 0.021729
vt 0.356225 0.020034
vt 0.357091 0.021224
vt 0.356520 0.019627
vt 0.357712 0.020491
vt 0.356675 0.019149
vt 0.358076 0.019602
vt 0.356674 0.018647
vt 0.358147 0.018645
vt 0.356519 0.018170
vt 0.357918 0.017712
vt 0.356223 0.017764
vt 0.357413 0.016896
vt 0.355817 0.017469
vt 0.356683 0.016278
vt 0.355339 0.017315
vt 0.355791 0.015913
vt 0.354837 0.017315
vt 0.354837 0.015842
vt 0.354360 0.017470
vt 0.353904 0.016070
vt 0.353954 0.017765
vt 0.353088 0.016575
vt 0.353659 0.018172
vt 0.352467 0.017308
vt 0.355089 0.018899
vt 0.734853 0.810214
vt 0.745430 0.810214
vt 0.545227 0.940512
vt 0.704541 0.198679
vt 0.545227 0.823221
vt 0.444413 0.692923
vt 0.254788 0.823221
vt 0.734853 0.692923
vt 0.292412 0.306025
vt 0.469965 0.306077
vt 0.760405 0.306059
vt 0.055437 0.186449
vt 0.760405 0.298167
vt 0.380763 0.004391
vt 0.382826 0.004395
vt 0.382228 0.294834
vt 0.380166 0.294830
vt 0.292411 0.298131
vt 0.469967 0.298182
vt 0.386145 0.004402
vt 0.993842 0.006447
vt 0.382220 0.298152
vt 0.376848 0.294823
vt 0.997985 0.244661
vt 0.213378 0.858553
vt 0.040274 0.858553
vt 0.251699 0.960610
vt 0.751048 0.185671
vt 0.040274 0.757433
vt 0.213378 0.757433
vt 0.824881 0.143541
vt 0.400712 0.963042
vt 0.251699 0.882499
vt 0.675368 0.185671
vt 0.748301 0.684316
vt 0.251699 0.733487
vt 0.001953 0.884930
vt 0.001953 0.733486
vt 0.226830 0.198583
vt 0.160582 0.573215
vt 0.899211 0.004384
vt 0.682661 0.012024
vt 0.687819 0.141110
vt 0.997985 0.143541
vt 0.824881 0.244661
vt 0.997161 0.006447
vt 0.997161 0.004384
vt 0.993842 0.004384
vt 0.001953 0.210439
vt 0.232992 0.194341
vt 0.055437 0.194341
vt 0.001970 0.298185
vt 0.232992 0.186449
vt 0.389714 0.004384
vt 0.704541 0.188102
vt 0.821831 0.188102
vt 0.444413 0.810214
vt 0.821831 0.198679
vt 0.568132 0.184369
vt 0.568132 0.194550
vt 0.001953 0.004384
vt 0.388498 0.194550
vt 0.821832 0.154118
vt 0.704541 0.154118
vt 0.766094 0.446951
vt 0.704541 0.143542
vt 0.400712 0.981215
vt 0.251699 0.981215
vt 0.001953 0.882499
vt 0.251699 0.963042
vt 0.001953 0.981215
vt 0.799470 0.963042
vt 0.650458 0.981215
vt 0.650458 0.963042
vt 0.001953 0.963042
vt 0.799470 0.981215
vt 0.251699 0.884930
vt 0.822068 0.159524
vt 0.998047 0.684316
vt 0.373530 0.172436
vt 0.748301 0.759996
vt 0.302510 0.198583
vt 0.998047 0.759996
vt 0.001953 0.960610
vt 0.160582 0.308480
vt 0.461494 0.378949
vt 0.371974 0.573215
vt 0.062731 0.502746
vt 0.021013 0.731055
vt 0.953456 0.006550
vt 0.954745 0.006754
vt 0.952164 0.006754
vt 0.951001 0.007347
vt 0.950077 0.008271
vt 0.949484 0.009435
vt 0.949281 0.010725
vt 0.949484 0.012015
vt 0.950077 0.013179
vt 0.951001 0.014103
vt 0.952164 0.014696
vt 0.953456 0.014900
vt 0.954745 0.014696
vt 0.955911 0.014103
vt 0.956829 0.013179
vt 0.957425 0.012015
vt 0.957629 0.010725
vt 0.957425 0.009435
vt 0.956829 0.008271
vt 0.955911 0.007347
vt 0.953456 0.004384
vt 0.982905 0.004384
vt 0.951562 0.004384
vt 0.949852 0.004384
vt 0.946436 0.005857
vt 0.946436 0.008830
vt 0.946436 0.010725
vt 0.946436 0.012620
vt 0.947909 0.017066
vt 0.949852 0.017066
vt 0.951562 0.017066
vt 0.953456 0.017066
vt 0.955349 0.017066
vt 0.957061 0.017066
vt 0.960472 0.015593
vt 0.960472 0.012620
vt 0.960472 0.010725
vt 0.960472 0.008830
vt 0.958999 0.004384
vt 0.957061 0.004384
vt 0.947909 0.004384
vt 0.946436 0.015593
vt 0.958999 0.017066
vt 0.960472 0.005857
vt 0.974548 0.012577
vt 0.974873 0.012729
vt 0.975277 0.012897
vt 0.965724 0.013661
vt 0.968058 0.009572
vt 0.968656 0.008689
vt 0.967763 0.010591
vt 0.967797 0.011657
vt 0.968159 0.012655
vt 0.968810 0.013500
vt 0.969693 0.014093
vt 0.970714 0.014393
vt 0.971779 0.014354
vt 0.972779 0.013995
vt 0.973620 0.013340
vt 0.974479 0.010376
vt 0.974116 0.009377
vt 0.973465 0.008532
vt 0.972582 0.007939
vt 0.971562 0.007638
vt 0.970496 0.007678
vt 0.969496 0.008037
vt 0.907538 0.004384
vt 0.294901 0.008326
vt 0.907538 0.030843
vt 0.942883 0.030843
vt 0.337063 0.008326
vt 0.339167 0.008326
vt 0.335691 0.036621
vt 0.335691 0.038725
vt 0.297005 0.034784
vt 0.294901 0.034784
vt 0.300346 0.006488
vt 0.300346 0.004384
vt 0.879504 0.823221
vt 0.475654 0.446951
vt 0.589064 0.823221
vt 0.589064 0.940512
vt 0.475654 0.308508
vt 0.465078 0.436374
vt 0.734853 0.682347
vt 0.254788 0.940512
vt 0.444413 0.682347
vt 0.444413 0.820790
vt 0.745430 0.692923
vt 0.734853 0.820790
vt 0.356941 0.010778
vt 0.356926 0.011113
vt 0.356913 0.011414
vt 0.356903 0.011653
vt 0.356896 0.011806
vt 0.372609 0.022718
vt 0.356986 0.009751
vt 0.987665 0.022384
vt 0.356979 0.009904
vt 0.356969 0.010142
vt 0.358237 0.013390
vt 0.356988 0.009696
vt 0.352103 0.018197
vt 0.349694 0.004384
vt 0.350796 0.004384
vt 0.348591 0.004384
vt 0.347487 0.004384
vt 0.346384 0.004384
vt 0.345280 0.004384
vt 0.344177 0.004384
vt 0.343074 0.004384
vt 0.341970 0.004384
vt 0.340867 0.004384
vt 0.339763 0.004384
vt 0.360727 0.004384
vt 0.359624 0.004384
vt 0.358520 0.004384
vt 0.357417 0.004384
vt 0.356313 0.004384
vt 0.355210 0.004384
vt 0.354107 0.004384
vt 0.353003 0.004384
vt 0.351900 0.004384
vt 0.348591 0.005857
vt 0.347487 0.005857
vt 0.346384 0.005857
vt 0.345280 0.005857
vt 0.344177 0.005857
vt 0.343074 0.005857
vt 0.341970 0.005857
vt 0.340867 0.005857
vt 0.339763 0.005857
vt 0.338661 0.005857
vt 0.359624 0.005857
vt 0.358520 0.005857
vt 0.357417 0.005857
vt 0.356313 0.005857
vt 0.355210 0.005857
vt 0.354107 0.005857
vt 0.353003 0.005857
vt 0.351900 0.005857
vt 0.296505 0.004878
vt 0.682661 0.004878
vt 0.361997 0.017305
vt 0.975687 0.019457
vt 0.352032 0.018652
vt 0.946513 0.022133
vt 0.352105 0.019609
vt 0.361756 0.016864
vt 0.975609 0.019953
vt 0.361834 0.019733
vt 0.352470 0.020497
vt 0.946436 0.022628
vt 0.976108 0.022442
vt 0.682741 0.007308
vt 0.353090 0.021226
vt 0.361756 0.020229
vt 0.370514 0.008288
vt 0.370813 0.008318
vt 0.993919 0.014725
vt 0.353910 0.021732
vt 0.975609 0.022384
vt 0.682661 0.007804
vt 0.371729 0.008580
vt 0.961101 0.020893
vt 0.354840 0.021957
vt 0.371305 0.008420
vt 0.993842 0.015221
vt 0.372526 0.009111
vt 0.951377 0.022133
vt 0.355798 0.021884
vt 0.372166 0.008826
vt 0.961022 0.021389
vt 0.373122 0.009866
vt 0.371559 0.019640
vt 0.356685 0.021520
vt 0.372865 0.009480
vt 0.951298 0.022628
vt 0.373454 0.010767
vt 0.369128 0.004382
vt 0.357417 0.020898
vt 0.373330 0.010323
vt 0.371480 0.020136
vt 0.373491 0.011726
vt 0.364266 0.004382
vt 0.357921 0.020081
vt 0.373510 0.011266
vt 0.369049 0.004878
vt 0.373229 0.012651
vt 0.366697 0.019705
vt 0.358147 0.019147
vt 0.373391 0.012219
vt 0.364187 0.004879
vt 0.372697 0.013446
vt 0.901539 0.007307
vt 0.358074 0.018190
vt 0.372982 0.013088
vt 0.366618 0.020200
vt 0.371937 0.014045
vt 0.970824 0.020893
vt 0.357708 0.017302
vt 0.372327 0.013787
vt 0.901460 0.007803
vt 0.371043 0.014372
vt 0.993921 0.011801
vt 0.357089 0.016573
vt 0.371480 0.014251
vt 0.970747 0.021388
vt 0.370247 0.014434
vt 0.360540 0.022718
vt 0.993920 0.008876
vt 0.356268 0.016067
vt 0.370544 0.014430
vt 0.993842 0.012296
vt 0.946436 0.019704
vt 0.965964 0.020893
vt 0.355339 0.015842
vt 0.361040 0.022660
vt 0.993842 0.009372
vt 0.986549 0.019801
vt 0.902754 0.004382
vt 0.354382 0.015914
vt 0.946892 0.019497
vt 0.965884 0.021388
vt 0.962238 0.018464
vt 0.981765 0.019457
vt 0.353493 0.016280
vt 0.986917 0.019460
vt 0.902676 0.004878
vt 0.975609 0.017029
vt 0.294979 0.004382
vt 0.352762 0.016901
vt 0.962478 0.018024
vt 0.981687 0.019953
vt 0.682740 0.004382
vt 0.352258 0.017718
vt 0.975695 0.016533
vt 0.294901 0.004878
vt 0.983291 0.019953
vt 0.904281 0.004878
vt 0.967490 0.021388
vt 0.995447 0.009372
vt 0.995447 0.012296
vt 0.972351 0.021388
vt 0.903066 0.007803
vt 0.368223 0.020200
vt 0.365792 0.004879
vt 0.370654 0.004878
vt 0.373085 0.020136
vt 0.952903 0.022628
vt 0.962627 0.021389
vt 0.995446 0.015221
vt 0.684266 0.007804
vt 0.363360 0.020229
vt 0.948040 0.022628
vt 0.684266 0.004878
vt 0.977214 0.019953
vt 0.986126 0.017029
vt 0.972987 0.018464
vt 0.997659 0.019801
vt 0.957996 0.019704
vt 0.987668 0.022439
vt 0.372515 0.017166
vt 0.338661 0.004384
vt 0.360727 0.005857
vt 0.680154 0.181938
vt 0.389714 0.181938
vt 0.680153 0.004384
vt 0.001971 0.306077
vt 0.377445 0.004384
vt 0.292393 0.210382
vt 0.760400 0.210422
vt 0.469960 0.210437
vt 0.380159 0.298149
vt 0.385547 0.294841
vt 0.904348 0.012024
vt 0.687819 0.004384
vt 0.682661 0.135821
vt 0.899211 0.141110
vt 0.292393 0.184018
vt 0.001953 0.184018
vt 0.292393 0.004384
vt 0.755678 0.467194
vt 0.221799 0.575646
vt 0.001953 0.594705
vt 0.221799 0.731055
vt 0.001953 0.711996
vn 0.000000 -0.951067 -0.308984
vn 0.000000 -0.809074 -0.587707
vn 0.000000 -0.809074 -0.587707
vn 0.000000 -0.951067 -0.308984
vn 0.000000 -0.587896 -0.808937
vn 0.000000 -0.587896 -0.808937
vn 0.000000 -0.308906 -0.951093
vn 0.000000 -0.308906 -0.951093
vn 0.000000 0.000000 -1.000000
vn 0.000000 0.000000 -1.000000
vn 0.000000 0.308906 -0.951093
vn 0.000000 0.308906 -0.951093
vn 0.000000 0.587896 -0.808937
vn 0.000000 0.587896 -0.808937
vn 0.000000 0.809074 -0.587707
vn 0.000000 0.809074 -0.587707
vn 0.000000 0.951067 -0.308984
vn 0.000000 0.951067 -0.308984
vn 0.000000 1.000000 0.000000
vn 0.000000 1.000000 0.000000
vn 0.000000 0.951067 0.308984
vn 0.000000 0.951067 0.308984
vn 0.000000 0.809074 0.587707
vn 0.000000 0.809074 0.587707
vn 0.000000 0.587896 0.808937
vn 0.000000 0.587896 0.808937
vn 0.000000 0.308906 0.951093
vn 0.000000 0.308906 0.951093
vn 0.000000 0.000000 1.000000
vn 0.000000 0.000000 1.000000
vn 0.000000 -0.308906 0.951093
vn 0.000000 -0.308906 0.951093
vn 0.000000 -0.587896 0.808937
vn 0.000000 -0.587896 0.808937
vn 0.000000 -0.809074 0.587707
vn 0.000000 -0.809074 0.587707
vn 0.000000 -0.951067 0.308984
vn 0.000000 -0.951067 0.308984
vn 0.000000 -1.000000 0.000000
vn 0.000000 -1.000000 0.000000
vn -1.000000 -0.000004 0.000000
vn -1.000000 0.000000 0.000000
vn -1.000000 0.000000 0.000000
vn -1.000000 0.000000 0.000000
vn -1.000000 0.000000 0.000000
vn -1.000000 0.000000 0.000000
vn -1.000000 -0.000000 0.000000
vn -1.000000 -0.000000 0.000000
vn -1.000000 0.000004 0.000000
vn -1.000000 0.000000 0.000000
vn -1.000000 0.000000 0.000000
vn -1.000000 0.000000 0.000000
vn -1.000000 0.000004 0.000000
vn -1.000000 -0.000000 0.000000
vn -1.000000 -0.000000 0.000000
vn -1.000000 0.000000 0.000000
vn -1.000000 0.000000 0.000000
vn -1.000000 0.000000 0.000000
vn -1.000000 -0.000004 0.000000
vn -1.000000 0.000000 0.000000
vn -1.000000 0.000000 0.000000
vn 1.000000 -0.000002 0.000000
vn 1.000000 0.000002 0.000000
vn 1.000000 0.000000 0.000000
vn 1.000000 0.000004 0.000000
vn 1.000000 0.000000 0.000000
vn 1.000000 0.000000 0.000000
vn 1.000000 0.000004 0.000000
vn 1.000000 0.000000 0.000000
vn 1.000000 -0.000004 0.000000
vn 1.000000 0.000000 0.000000
vn 1.000000 0.000000 0.000000
vn 1.000000 0.000002 0.000000
vn 1.000000 -0.000002 0.000000
vn 1.000000 -0.000004 0.000000
vn 1.000000 0.000000 0.000000
vn 1.000000 0.000000 0.000000
vn 1.000000 -0.000004 0.000000
vn 1.000000 -0.000000 0.000000
vn 1.000000 0.000004 0.000000
vn 1.000000 0.000000 0.000000
vn 1.000000 0.000000 0.000000
vn -0.977474 0.211056 -0.000000
vn -0.977517 0.210857 -0.000000
vn -1.000000 -0.000000 0.000000
vn -1.000000 -0.000000 0.000000
vn 1.000000 -0.000001 0.000000
vn 1.000000 -0.000001 0.000000
vn 0.997905 0.064705 -0.000000
vn 0.997900 0.064770 -0.000000
vn -0.000000 0.000000 1.000000
vn -0.000000 0.000000 1.000000
vn -0.000000 0.000000 1.000000
vn -0.000000 0.000000 1.000000
vn -0.000000 0.000003 -1.000000
vn -0.000000 0.000003 -1.000000
vn -0.000000 0.000003 -1.000000
vn -0.000000 0.000003 -1.000000
vn 0.000000 -1.000000 -0.000202
vn 0.000000 -1.000000 -0.000136
vn 0.000000 -1.000000 -0.000136
vn 0.000000 -1.000000 -0.000202
vn 0.000000 -1.000000 -0.000094
vn 0.000000 -1.000000 -0.000094
vn 0.000000 -1.000000 -0.000177
vn 0.000000 -1.000000 -0.000177
vn 0.000000 -1.000000 0.000000
vn 0.000000 -1.000000 0.000000
vn 0.000009 -0.035243 -0.999379
vn 0.000311 0.310130 -0.950694
vn 0.000311 0.310153 -0.950687
vn 0.000009 -0.035243 -0.999379
vn 0.000283 0.586664 -0.809830
vn 0.000282 0.586706 -0.809800
vn 0.000082 0.808515 -0.588476
vn 0.000082 0.808514 -0.588477
vn 0.000000 0.951079 -0.308949
vn -0.000000 0.951079 -0.308948
vn -0.000000 1.000000 0.000000
vn -0.000000 1.000000 0.000000
vn -0.000000 0.951079 0.308949
vn -0.000000 0.951079 0.308948
vn -0.000077 0.809195 0.587541
vn -0.000077 0.809194 0.587542
vn -0.000175 0.587351 0.809332
vn -0.000175 0.587309 0.809363
vn -0.000098 0.308366 0.951268
vn -0.000098 0.308364 0.951269
vn 0.000000 -0.035320 0.999376
vn 0.000000 -0.035319 0.999376
vn 0.000000 -1.000000 0.000000
vn 0.000000 -1.000000 0.000000
vn 0.000000 -1.000000 0.000000
vn 0.000000 -1.000000 0.000000
vn 0.000000 -1.000000 -0.000140
vn 0.000000 -1.000000 -0.000140
vn 0.000000 -1.000000 -0.000170
vn 0.000000 -1.000000 -0.000170
vn 0.000000 -1.000000 -0.000173
vn 0.000000 -1.000000 -0.000173
vn 0.000000 -1.000000 -0.000192
vn 0.000000 -1.000000 -0.000192
vn -1.000000 0.000000 0.000000
vn -1.000000 0.000000 0.000000
vn -1.000000 0.000000 0.000000
vn -1.000000 0.000000 0.000000
vn -1.000000 0.000000 0.000000
vn -1.000000 0.000000 0.000000
vn -1.000000 0.000000 0.000000
vn -1.000000 0.000000 0.000000
vn -1.000000 0.000000 0.000000
vn -1.000000 0.000000 0.000000
vn -1.000000 0.000000 0.000000
vn -1.000000 0.000000 0.000000
vn -1.000000 0.000017 0.000000
vn -1.000000 0.000017 0.000000
vn -1.000000 0.000017 0.000000
vn -1.000000 0.000000 0.000000
vn -1.000000 0.000000 0.000000
vn -1.000000 0.000000 0.000000
vn -1.000000 0.000000 0.000000
vn -1.000000 0.000000 0.000000
vn -1.000000 0.000000 0.000000
vn -1.000000 0.000000 0.000000
vn -1.000000 0.000000 0.000000
vn -1.000000 0.000000 0.000000
vn -1.000000 0.000000 0.000000
vn -1.000000 0.000000 0.000000
vn -1.000000 0.000000 0.000000
vn -1.000000 0.000000 0.000000
vn -1.000000 0.000000 0.000000
vn -1.000000 0.000000 0.000000
vn -1.000000 0.000000 0.000000
vn -1.000000 0.000000 0.000000
vn -1.000000 0.000000 0.000000
vn -1.000000 0.000000 0.000000
vn -1.000000 0.000000 0.000000
vn -1.000000 0.000000 0.000000
vn -1.000000 0.000000 0.000000
vn -1.000000 0.000000 0.000000
vn -1.000000 0.000000 0.000000
vn -1.000000 0.000017 0.000000
vn -1.000000 0.000017 0.000000
vn -1.000000 0.000017 0.000000
vn -1.000000 -0.000017 0.000000
vn -1.000000 -0.000017 0.000000
vn -1.000000 -0.000017 0.000000
vn -1.000000 0.000000 0.000000
vn -1.000000 0.000000 0.000000
vn -1.000000 0.000000 0.000000
vn -1.000000 0.000000 0.000000
vn -1.000000 0.000000 0.000000
vn -1.000000 0.000000 0.000000
vn -1.000000 0.000000 0.000000
vn -1.000000 0.000000 0.000000
vn -1.000000 0.000000 0.000000
vn -1.000000 0.000000 0.000000
vn -1.000000 0.000000 0.000000
vn -1.000000 0.000000 0.000000
vn -1.000000 0.000000 0.000000
vn -1.000000 0.000000 0.000000
vn -1.000000 0.000000 0.000000
vn 1.000000 0.000000 0.000000
vn 1.000000 0.000000 0.000000
vn 1.000000 -0.000000 0.000000
vn 1.000000 0.000001 0.000000
vn 1.000000 -0.000002 0.000000
vn 1.000000 -0.000000 0.000000
vn 1.000000 0.000000 0.000000
vn 1.000000 0.000000 0.000000
vn 1.000000 -0.000009 0.000000
vn 1.000000 -0.000008 0.000000
vn 1.000000 0.000000 0.000000
vn 1.000000 -0.000004 0.000000
vn 1.000000 -0.000004 0.000000
vn 1.000000 0.000000 0.000000
vn 1.000000 0.000000 0.000000
vn 1.000000 -0.000000 0.000000
vn 1.000000 -0.000003 0.000000
vn 1.000000 0.000000 0.000000
vn 1.000000 0.000001 0.000000
vn 1.000000 0.000000 0.000000
vn 1.000000 -0.000000 0.000000
vn -1.000000 0.000000 0.000000
vn -1.000000 0.000000 0.000000
vn -1.000000 0.000000 0.000000
vn -1.000000 0.000000 0.000000
vn 1.000000 -0.000000 0.000000
vn 1.000000 0.000000 0.000000
vn -1.000000 0.000000 0.000000
vn -1.000000 0.000000 0.000000
vn 1.000000 0.000000 0.000000
vn -1.000000 0.000004 0.000000
vn -1.000000 0.000001 0.000000
vn 1.000000 0.000000 0.000000
vn -1.000000 0.000005 0.000000
vn -1.000000 0.000005 0.000000
vn 0.000000 -0.043339 -0.999060
vn 0.000000 -0.043339 -0.999060
vn 1.000000 -0.000005 0.000000
vn -1.000000 0.000000 0.000000
vn -1.000000 -0.000001 0.000000
vn -1.000000 -0.000001 0.000000
vn -1.000000 0.000000 0.000000
vn 1.000000 -0.000005 0.000000
vn 1.000000 -0.000001 0.000000
vn 0.000000 -0.043338 0.999061
vn 0.000000 -0.043338 0.999061
vn -1.000000 -0.000001 0.000000
vn -1.000000 -0.000001 0.000000
vn 1.000000 0.000000 0.000000
vn -1.000000 -0.000000 0.000000
vn -1.000000 -0.000000 0.000000
vn 1.000000 0.000000 0.000000
vn -1.000000 -0.000000 0.000000
vn -1.000000 0.000000 0.000000
vn 1.000000 -0.000000 0.000000
vn -1.000000 0.000000 0.000000
vn -1.000000 0.000000 0.000000
vn 1.000000 -0.000000 0.000000
vn -1.000000 0.000000 0.000000
vn -1.000000 0.000000 0.000000
vn -1.000000 0.000000 0.000000
vn -1.000000 0.000000 0.000000
vn 0.000000 1.000000 0.000000
vn 0.000000 1.000000 0.000000
vn 0.000000 1.000000 0.000000
vn 0.000000 1.000000 0.000000
vn 1.000000 0.000000 -0.000000
vn 1.000000 0.000000 -0.000000
vn 1.000000 0.000000 -0.000000
vn 1.000000 0.000000 -0.000000
vn 0.000000 -1.000000 -0.000002
vn 0.000000 -1.000000 -0.000002
vn 0.000000 -1.000000 -0.000002
vn 0.000000 -1.000000 -0.000002
vn 0.000000 0.000000 1.000000
vn 0.000000 0.000000 1.000000
vn 0.000000 0.000000 1.000000
vn 0.000000 0.000000 1.000000
vn 0.000000 0.000000 -1.000000
vn 0.000000 0.000000 -1.000000
vn 0.000000 0.000000 -1.000000
vn 0.000000 0.000000 -1.000000
vn 0.000000 -1.000000 0.000000
vn 0.000000 -1.000000 0.000000
vn 0.000000 -1.000000 0.000000
vn 0.000000 -1.000000 0.000000
vn 0.000000 -1.000000 0.000000
vn 0.000000 -1.000000 0.000000
vn 0.000000 0.000000 -1.000000
vn 0.000000 0.000000 -1.000000
vn 0.000000 0.000000 -1.000000
vn 0.000000 0.000000 -1.000000
vn 0.000000 0.000000 -1.000000
vn 0.000000 0.000000 -1.000000
vn 0.000000 0.000000 -1.000000
vn 0.000000 0.000000 -1.000000
vn 0.000000 0.000000 -1.000000
vn 0.000000 0.000000 -1.000000
vn 0.000000 1.000000 0.000000
vn 0.000000 1.000000 0.000000
vn 0.000000 1.000000 0.000000
vn 0.000000 1.000000 0.000000
vn 0.000000 1.000000 0.000000
vn 0.000000 1.000000 0.000000
vn 0.000000 1.000000 0.000000
vn 0.000000 1.000000 0.000000
vn 0.000000 1.000000 0.000000
vn 0.000000 1.000000 0.000000
vn 0.000000 1.000000 0.000000
vn 0.000000 1.000000 0.000000
vn 0.000000 1.000000 0.000000
vn 0.000000 1.000000 0.000000
vn 0.000000 0.000000 1.000000
vn 0.000000 0.000000 1.000000
vn 0.000000 0.000000 1.000000
vn 0.000000 0.000000 1.000000
vn 0.000000 0.000000 1.000000
vn 0.000000 0.000000 1.000000
vn 0.000000 0.000000 1.000000
vn 0.000000 0.000000 1.000000
vn 0.000000 0.000000 1.000000
vn 0.000000 0.000000 1.000000
vn 0.000000 -1.000000 0.000000
vn 0.000000 -1.000000 0.000000
vn 0.000000 -1.000000 0.000000
vn 0.000000 -1.000000 0.000000
vn 0.000000 -1.000000 0.000000
vn 0.000000 -1.000000 0.000000
vn 0.000000 -1.000000 0.000000
vn 0.000000 -1.000000 0.000000
vn -1.000000 0.000001 0.000000
vn -1.000000 -0.000000 0.000000
vn -1.000000 0.000000 0.000000
vn -1.000000 0.000000 0.000000
vn -1.000000 -0.000001 0.000000
vn -1.000000 -0.000001 0.000000
vn -1.000000 0.000000 0.000000
vn -1.000000 0.000000 0.000000
vn -1.000000 0.000000 0.000000
vn -1.000000 0.000001 0.000000
vn -1.000000 0.000001 0.000000
vn -1.000000 0.000001 0.000000
vn -1.000000 0.000002 0.000000
vn -1.000000 0.000001 0.000000
vn -1.000000 0.000001 0.000000
vn -1.000000 0.000000 0.000000
vn -1.000000 -0.000001 0.000000
vn -1.000000 -0.000001 0.000000
vn -1.000000 -0.000000 0.000000
vn -1.000000 0.000001 0.000000
vn -1.000000 -0.000001 0.000000
vn 1.000000 0.000002 0.000000
vn 1.000000 0.000002 0.000000
vn 1.000000 0.000000 0.000000
vn 1.000000 -0.000004 0.000000
vn 1.000000 -0.000004 0.000000
vn 1.000000 0.000000 0.000000
vn 1.000000 0.000004 0.000000
vn 1.000000 0.000004 0.000000
vn 1.000000 0.000000 0.000000
vn 1.000000 0.000000 0.000000
vn 1.000000 0.000000 0.000000
vn 1.000000 0.000000 0.000000
vn 1.000000 0.000000 0.000000
vn 1.000000 -0.000004 0.000000
vn 1.000000 -0.000004 0.000000
vn 1.000000 0.000000 0.000000
vn 1.000000 0.000004 0.000000
vn 1.000000 0.000004 0.000000
vn 1.000000 0.000000 0.000000
vn 1.000000 0.000000 0.000000
vn 1.000000 0.000000 0.000000
vn -1.000000 -0.000000 0.000000
vn -1.000000 -0.000002 0.000000
vn 1.000000 0.000001 0.000000
vn 1.000000 -0.000005 0.000000
vn 1.000000 -0.000005 0.000000
vn 1.000000 0.000001 0.000000
vn -1.000000 0.000001 0.000000
vn 1.000000 0.000000 0.000000
vn 1.000000 0.000000 0.000000
vn -1.000000 0.000001 0.000000
vn 1.000000 0.000000 0.000000
vn 1.000000 0.000000 0.000000
vn -1.000000 -0.000000 0.000000
vn 1.000000 0.000000 0.000000
vn 1.000000 0.000000 0.000000
vn -1.000000 -0.000000 0.000000
vn 1.000000 0.000000 0.000000
vn 1.000000 0.000000 0.000000
vn -1.000000 -0.000000 0.000000
vn 1.000000 0.000005 0.000000
vn 1.000000 0.000005 0.000000
vn -1.000000 -0.000001 0.000000
vn 1.000000 0.000007 0.000000
vn 1.000000 0.000007 0.000000
vn -1.000000 0.000000 0.000000
vn 1.000000 0.000007 0.000000
vn 1.000000 0.000007 0.000000
vn -1.000000 0.000000 0.000000
vn 1.000000 -0.000004 0.000000
vn 1.000000 -0.000004 0.000000
vn -1.000000 0.000001 0.000000
vn 1.000000 -0.000007 0.000000
vn 1.000000 -0.000007 0.000000
vn -1.000000 0.000000 0.000000
vn 1.000000 0.000006 0.000000
vn 1.000000 0.000006 0.000000
vn -1.000000 -0.000000 0.000000
vn 1.000000 0.000002 0.000000
vn 1.000000 0.000002 0.000000
vn -1.000000 -0.000001 0.000000
vn 1.000000 -0.000002 0.000000
vn 1.000000 -0.000002 0.000000
vn -1.000000 -0.000001 0.000000
vn 1.000000 0.000000 0.000000
vn 1.000000 0.000000 0.000000
vn -1.000000 -0.000001 0.000000
vn 1.000000 0.000004 0.000000
vn 1.000000 0.000004 0.000000
vn -1.000000 -0.000001 0.000000
vn 1.000000 0.000006 0.000000
vn 1.000000 0.000006 0.000000
vn -1.000000 0.000000 0.000000
vn 1.000000 0.000001 0.000000
vn 1.000000 0.000001 0.000000
vn -1.000000 0.000002 0.000000
vn 1.000000 0.000004 0.000000
vn 1.000000 0.000004 0.000000
vn -1.000000 -0.000001 0.000000
vn 1.000000 -0.000001 0.000000
vn 1.000000 -0.000001 0.000000
vn -1.000000 0.000001 0.000000
vn -1.000000 -0.000005 0.000000
vn 1.000000 0.000000 0.000000
vn 1.000000 0.000001 0.000000
vn 1.000000 0.000001 0.000000
vn 1.000000 0.000000 0.000000
vn -1.000000 0.000001 0.000000
vn 1.000000 0.000000 0.000000
vn 1.000000 0.000000 0.000000
vn -1.000000 0.000001 0.000000
vn 1.000000 0.000000 0.000000
vn 1.000000 0.000000 0.000000
vn -1.000000 0.000000 0.000000
vn 1.000000 0.000000 0.000000
vn 1.000000 0.000000 0.000000
vn -1.000000 0.000001 0.000000
vn 1.000000 0.000000 0.000000
vn 1.000000 0.000000 0.000000
vn -1.000000 -0.000001 0.000000
vn 1.000000 0.000000 0.000000
vn 1.000000 0.000000 0.000000
vn -1.000000 -0.000003 0.000000
vn 1.000000 0.000001 0.000000
vn 1.000000 0.000000 0.000000
vn -1.000000 0.000003 0.000000
vn 1.000000 0.000001 0.000000
vn 1.000000 0.000001 0.000000
vn -1.000000 -0.000002 0.000000
vn 1.000000 -0.000001 0.000000
vn 1.000000 -0.000001 0.000000
vn -1.000000 0.000003 0.000000
vn 1.000000 -0.000001 0.000000
vn 1.000000 -0.000001 0.000000
vn -1.000000 -0.000001 0.000000
vn 1.000000 -0.000002 0.000000
vn 1.000000 -0.000003 0.000000
vn -1.000000 -0.000001 0.000000
vn 1.000000 -0.000001 0.000000
vn 1.000000 -0.000001 0.000000
vn -1.000000 -0.000001 0.000000
vn 1.000000 0.000001 0.000000
vn 1.000000 0.000001 0.000000
vn -1.000000 -0.000002 0.000000
vn 1.000000 0.000000 0.000000
vn 1.000000 0.000000 0.000000
vn -1.000000 -0.000001 0.000000
vn 1.000000 -0.000002 0.000000
vn 1.000000 -0.000002 0.000000
vn -1.000000 -0.000001 0.000000
vn 1.000000 -0.000000 0.000000
vn 1.000000 0.000000 0.000000
vn -1.000000 0.000000 0.000000
vn 1.000000 0.000003 0.000000
vn 1.000000 0.000003 0.000000
vn -1.000000 0.000000 0.000000
vn 1.000000 0.000001 0.000000
vn 1.000000 0.000001 0.000000
vn -1.000000 0.000000 0.000000
vn 1.000000 0.000001 0.000000
vn 1.000000 0.000001 0.000000
vn 0.354715 0.755755 0.550465
vn 0.355238 0.889074 0.288710
vn 0.355238 0.889044 0.288803
vn 0.354716 0.756049 0.550060
vn 0.656084 -0.717710 -0.233336
vn 0.656062 -0.610324 -0.443945
vn 0.656062 -0.610341 -0.443922
vn 0.656084 -0.717826 -0.232979
vn 0.354769 0.550638 0.755604
vn 0.354769 0.550597 0.755633
vn 0.655093 -0.443786 -0.611479
vn 0.655093 -0.443648 -0.611580
vn 0.355322 0.288880 0.888985
vn 0.355322 0.288864 0.888991
vn 0.655149 -0.233851 -0.718396
vn 0.655150 -0.233776 -0.718420
vn 0.354456 -0.000000 0.935073
vn 0.354456 0.000000 0.935073
vn 0.655329 0.000000 -0.755344
vn 0.655329 -0.000000 -0.755344
vn 0.355321 -0.288880 0.888986
vn 0.355321 -0.288865 0.888991
vn 0.655155 0.233840 -0.718395
vn 0.655155 0.233764 -0.718419
vn 0.354772 -0.550601 0.755629
vn 0.354772 -0.550562 0.755657
vn 0.655121 0.443771 -0.611460
vn 0.655121 0.443624 -0.611568
vn 0.354738 -0.755752 0.550454
vn 0.354739 -0.756046 0.550050
vn 0.656092 0.610295 -0.443940
vn 0.656092 0.610306 -0.443925
vn 0.355284 -0.889059 0.288699
vn 0.355284 -0.889031 0.288785
vn 0.656089 0.717705 -0.233337
vn 0.656089 0.717822 -0.232980
vn 0.355512 -0.934672 -0.000013
vn 0.355512 -0.934672 0.000012
vn 0.655871 0.754873 0.000008
vn 0.655871 0.754873 -0.000012
vn 0.355603 -0.888864 -0.288908
vn 0.355603 -0.888829 -0.289013
vn 0.655868 0.717964 0.233161
vn 0.655868 0.717936 0.233246
vn 0.355726 -0.756015 -0.549455
vn 0.355726 -0.755962 -0.549528
vn 0.655770 0.610701 0.443857
vn 0.655771 0.610763 0.443772
vn 0.355363 -0.549899 -0.755863
vn 0.355363 -0.549900 -0.755862
vn 0.655657 0.443867 0.610816
vn 0.655657 0.443743 0.610906
vn 0.355266 -0.288883 -0.889006
vn 0.355266 -0.288865 -0.889012
vn 0.655471 0.232861 0.718425
vn 0.655471 0.232810 0.718441
vn 0.354516 0.000001 -0.935050
vn 0.354516 0.000001 -0.935050
vn 0.655330 -0.000001 0.755343
vn 0.655330 -0.000002 0.755343
vn 0.355268 0.288885 -0.889005
vn 0.355268 0.288865 -0.889012
vn 0.655465 -0.232871 0.718427
vn 0.655465 -0.232821 0.718443
vn 0.355362 0.549933 -0.755838
vn 0.355362 0.549931 -0.755839
vn 0.655632 -0.443875 0.610837
vn 0.655632 -0.443760 0.610921
vn 0.355703 0.756017 -0.549467
vn 0.355703 0.755965 -0.549539
vn 0.655745 -0.610722 0.443865
vn 0.655745 -0.610790 0.443772
vn 0.355553 0.888881 -0.288917
vn 0.355553 0.888845 -0.289028
vn 0.655866 -0.717966 0.233162
vn 0.655866 -0.717938 0.233248
vn 0.355461 0.934691 -0.000012
vn 0.355461 0.934691 0.000013
vn 0.655901 -0.754847 0.000008
vn 0.655901 -0.754847 -0.000012
vn -1.000000 0.000000 0.000000
vn -1.000000 0.000000 0.000000
vn -1.000000 0.000000 0.000000
vn -1.000000 0.000000 0.000000
vn 1.000000 0.000000 0.000000
vn 1.000000 0.000000 0.000000
vn 1.000000 0.000000 0.000000
vn 1.000000 0.000000 0.000000
vn -0.000000 -1.000000 0.000000
vn -0.000000 -1.000000 0.000000
vn -0.000000 -1.000000 0.000000
vn -0.000000 -1.000000 0.000000
vn 0.000000 0.000000 1.000000
vn 0.000000 0.000000 1.000000
vn 0.000000 0.000000 1.000000
vn 0.000000 0.000000 1.000000
vn 0.000000 0.000000 -1.000000
vn 0.000000 0.000000 -1.000000
vn 0.000000 0.000000 -1.000000
vn 0.000000 0.000000 -1.000000
vn -0.873432 0.486947 -0.000000
vn -0.873432 0.486947 -0.000000
vn -0.127760 0.990084 -0.058408
vn -0.071317 0.993457 -0.089206
vn -0.088923 0.991736 0.092481
vn -0.133162 0.989000 0.064391
vn -0.000000 0.505944 0.862566
vn -0.000000 0.505944 0.862566
vn -0.000000 0.505944 0.862566
vn -0.000000 0.505944 0.862566
vn 0.088924 0.991736 0.092479
vn 0.133160 0.989001 0.064390
vn 0.986647 0.162873 -0.000000
vn 0.986647 0.162873 -0.000000
vn 0.071318 0.993457 -0.089205
vn 0.127758 0.990084 -0.058407
vn 0.000000 0.508991 -0.860772
vn 0.000000 0.508991 -0.860772
vn 0.000000 0.508991 -0.860772
vn 0.000000 0.508991 -0.860772
vn -0.844418 0.000000 0.535685
vn -0.844418 0.000000 0.535685
vn -0.844418 0.000000 0.535685
vn -0.844418 0.000000 0.535685
vn 0.000000 0.702861 0.711327
vn 0.000000 0.702861 0.711327
vn 0.000000 0.702861 0.711327
vn 0.000000 0.702861 0.711327
vn 0.844418 0.000000 0.535685
vn 0.844418 0.000000 0.535685
vn 0.844418 0.000000 0.535685
vn 0.844418 0.000000 0.535685
vn 0.000000 -1.000000 0.000000
vn 0.000000 -1.000000 0.000000
vn 0.000000 -1.000000 0.000000
vn 0.000000 -1.000000 0.000000
vn 0.000000 0.000000 1.000000
vn 0.000000 0.000000 1.000000
vn 0.000000 0.000000 1.000000
vn 0.000000 0.000000 1.000000
vn 0.000000 0.000000 -1.000000
vn 0.000000 0.000000 -1.000000
vn 0.000000 0.000000 -1.000000
vn 0.000000 0.000000 -1.000000
vn 0.000000 -1.000000 0.000000
vn 0.000000 -1.000000 0.000000
vn -1.000000 0.000000 0.000000
vn -1.000000 0.000000 0.000000
vn -1.000000 0.000000 0.000000
vn -1.000000 0.000000 0.000000
vn 0.000000 1.000000 0.000000
vn 0.000000 1.000000 0.000000
vn 0.000000 1.000000 0.000000
vn 0.000000 1.000000 0.000000
vn 1.000000 0.000000 0.000000
vn 1.000000 0.000000 0.000000
vn 1.000000 0.000000 0.000000
vn 1.000000 0.000000 0.000000
vn -1.000000 0.000000 0.000000
vn -1.000000 0.000000 0.000000
vn -1.000000 0.000000 0.000000
vn -1.000000 0.000000 0.000000
vn 0.000000 1.000000 0.000000
vn 0.000000 1.000000 0.000000
vn 0.000000 1.000000 0.000000
vn 0.000000 1.000000 0.000000
vn 1.000000 -0.000000 0.000000
vn 1.000000 -0.000000 0.000000
vn 1.000000 -0.000000 0.000000
vn 1.000000 -0.000000 0.000000
vn 0.000000 -1.000000 0.000000
vn 0.000000 -1.000000 0.000000
vn 0.000000 -1.000000 0.000000
vn 0.000000 -1.000000 0.000000
vn 0.000000 0.000000 1.000000
vn 0.000000 0.000000 1.000000
vn 0.000000 0.000000 1.000000
vn 0.000000 0.000000 1.000000
vn 0.000000 0.000000 -1.000000
vn 0.000000 0.000000 -1.000000
vn 0.000000 0.000000 -1.000000
vn 0.000000 0.000000 -1.000000
vn -0.000006 -0.951090 -0.308916
vn 0.000068 -0.808741 -0.588165
vn 0.000068 -0.808742 -0.588163
vn -0.000006 -0.951090 -0.308915
vn 0.000272 -0.587094 -0.809519
vn 0.000272 -0.587138 -0.809487
vn 0.000307 -0.309537 -0.950887
vn 0.000307 -0.309563 -0.950879
vn 0.000221 0.000002 -1.000000
vn 0.000221 -0.000001 -1.000000
vn 0.000312 0.309538 -0.950887
vn 0.000312 0.309561 -0.950879
vn 0.000282 0.587095 -0.809518
vn 0.000282 0.587137 -0.809488
vn 0.000088 0.808742 -0.588163
vn 0.000088 0.808741 -0.588164
vn 0.000006 0.951090 -0.308915
vn 0.000006 0.951090 -0.308916
vn 0.000000 1.000000 0.000000
vn 0.000000 1.000000 0.000000
vn 0.000006 0.951090 0.308915
vn 0.000006 0.951090 0.308916
vn -0.000070 0.808969 0.587851
vn -0.000070 0.808968 0.587853
vn -0.000174 0.587352 0.809332
vn -0.000174 0.587310 0.809362
vn -0.000097 0.308958 0.951076
vn -0.000097 0.308956 0.951077
vn 0.000000 0.000001 1.000000
vn 0.000000 -0.000001 1.000000
vn -0.000102 -0.308957 0.951076
vn -0.000102 -0.308957 0.951076
vn -0.000185 -0.587351 0.809333
vn -0.000185 -0.587310 0.809362
vn -0.000090 -0.808968 0.587853
vn -0.000090 -0.808969 0.587852
vn -0.000006 -0.951090 0.308916
vn -0.000006 -0.951090 0.308915
vn 0.000000 -1.000000 0.000000
vn 0.000000 -1.000000 0.000000
vn -1.000000 0.000000 0.000000
vn -1.000000 0.000000 0.000000
vn -1.000000 0.000000 0.000000
vn -1.000000 0.000000 0.000000
vn -1.000000 0.000008 0.000000
vn -1.000000 0.000000 0.000000
vn -1.000000 -0.000008 0.000000
vn -1.000000 0.000000 0.000000
vn -1.000000 0.000004 0.000000
vn -1.000000 0.000004 0.000000
vn -1.000000 0.000000 0.000000
vn -1.000000 0.000000 0.000000
vn -1.000000 0.000000 0.000000
vn -1.000000 0.000000 0.000000
vn -1.000000 -0.000008 0.000000
vn -1.000000 0.000000 0.000000
vn -1.000000 0.000008 0.000000
vn -1.000000 0.000000 0.000000
vn -1.000000 -0.000004 0.000000
vn -1.000000 -0.000004 0.000000
vn -1.000000 0.000000 0.000000
vn 1.000000 0.000000 0.000000
vn 1.000000 0.000000 0.000000
vn 1.000000 0.000000 0.000000
vn 1.000000 0.000000 0.000000
vn 1.000000 0.000000 0.000000
vn 1.000000 0.000000 0.000000
vn 1.000000 0.000000 0.000000
vn 1.000000 0.000000 0.000000
vn 1.000000 0.000000 0.000000
vn 1.000000 0.000017 0.000000
vn 1.000000 0.000017 0.000000
vn 1.000000 0.000017 0.000000
vn 1.000000 0.000000 0.000000
vn 1.000000 0.000000 0.000000
vn 1.000000 0.000000 0.000000
vn 1.000000 0.000000 0.000000
vn 1.000000 0.000000 0.000000
vn 1.000000 0.000000 0.000000
vn 1.000000 0.000000 0.000000
vn 1.000000 0.000000 0.000000
vn 1.000000 0.000000 0.000000
vn 1.000000 0.000000 0.000000
vn 1.000000 0.000000 0.000000
vn 1.000000 0.000000 0.000000
vn 1.000000 0.000000 0.000000
vn 1.000000 0.000000 0.000000
vn 1.000000 0.000000 0.000000
vn 1.000000 0.000000 0.000000
vn 1.000000 0.000000 0.000000
vn 1.000000 0.000000 0.000000
vn 1.000000 0.000000 0.000000
vn 1.000000 0.000000 0.000000
vn 1.000000 0.000000 0.000000
vn 1.000000 0.000000 0.000000
vn 1.000000 0.000000 0.000000
vn 1.000000 0.000000 0.000000
vn 1.000000 0.000000 0.000000
vn 1.000000 0.000000 0.000000
vn 1.000000 0.000000 0.000000
vn 1.000000 -0.000017 0.000000
vn 1.000000 -0.000017 0.000000
vn 1.000000 -0.000017 0.000000
vn 1.000000 0.000017 0.000000
vn 1.000000 0.000017 0.000000
vn 1.000000 0.000017 0.000000
vn 1.000000 0.000000 0.000000
vn 1.000000 0.000000 0.000000
vn 1.000000 0.000000 0.000000
vn 1.000000 0.000000 0.000000
vn 1.000000 0.000000 0.000000
vn 1.000000 0.000000 0.000000
vn 1.000000 0.000000 0.000000
vn 1.000000 0.000000 0.000000
vn 1.000000 0.000000 0.000000
vn 1.000000 0.000000 0.000000
vn 1.000000 0.000000 0.000000
vn 1.000000 0.000000 0.000000
vn 1.000000 0.000000 0.000000
vn 1.000000 0.000000 0.000000
vn 1.000000 0.000000 0.000000
vn -1.000000 0.000000 0.000000
vn -1.000000 0.000000 0.000000
vn -1.000000 0.000000 0.000000
vn -1.000000 0.000000 0.000000
vn 0.000000 1.000000 0.000000
vn 0.000000 1.000000 0.000000
vn 0.000000 1.000000 0.000000
vn 0.000000 1.000000 0.000000
vn 1.000000 0.000000 0.000000
vn 1.000000 0.000000 0.000000
vn 1.000000 0.000000 0.000000
vn 1.000000 0.000000 0.000000
vn -0.000000 -1.000000 0.000001
vn -0.000000 -1.000000 0.000001
vn -0.000000 -1.000000 0.000001
vn -0.000000 -1.000000 0.000001
vn 0.000000 0.000000 1.000000
vn 0.000000 0.000000 1.000000
vn 0.000000 0.000000 1.000000
vn 0.000000 0.000000 1.000000
vn 0.000000 0.000000 -1.000000
vn 0.000000 0.000000 -1.000000
vn 0.000000 0.000000 -1.000000
vn 0.000000 0.000000 -1.000000
vn -1.000000 0.000000 0.000000
vn -1.000000 0.000000 0.000000
vn -1.000000 0.000000 0.000000
vn -1.000000 0.000000 0.000000
vn 0.000000 1.000000 0.000000
vn 0.000000 1.000000 0.000000
vn 0.000000 1.000000 0.000000
vn 0.000000 1.000000 0.000000
vn 1.000000 -0.000000 0.000000
vn 1.000000 -0.000000 0.000000
vn 1.000000 -0.000000 0.000000
vn 1.000000 -0.000000 0.000000
vn -0.000001 -1.000000 0.000000
vn -0.000001 -1.000000 0.000000
vn -0.000001 -1.000000 0.000000
vn -0.000001 -1.000000 0.000000
vn 0.000001 0.000000 1.000000
vn 0.000001 0.000000 1.000000
vn 0.000001 0.000000 1.000000
vn 0.000001 0.000000 1.000000
vn 0.000001 0.000000 -1.000000
vn 0.000001 0.000000 -1.000000
vn 0.000001 0.000000 -1.000000
vn 0.000001 0.000000 -1.000000
vn 0.000000 0.000000 0.000000
vn 0.000000 0.000000 0.000000
vn 0.000000 0.000000 0.000000
vn 0.000000 0.000000 0.000000
vn 1.000000 0.000000 0.000000
vn 1.000000 0.000000 0.000000
vn 1.000000 0.000000 0.000000
vn 1.000000 0.000000 0.000000
vn 1.000000 0.000000 -0.000000
vn 1.000000 0.000000 -0.000000
vn 1.000000 0.000000 -0.000000
vn 1.000000 0.000000 -0.000000
vn 0.000000 -1.000000 0.000000
vn 0.000000 -1.000000 0.000000
vn 0.000000 -1.000000 0.000000
vn 0.000000 -1.000000 0.000000
vn 0.000000 0.000000 -1.000000
vn 0.000000 0.000000 -1.000000
vn 0.000000 0.000000 -1.000000
vn 0.000000 0.000000 -1.000000
vn 0.000000 1.000000 0.000000
vn 0.000000 1.000000 0.000000
vn 0.000000 1.000000 0.000000
vn 0.000000 1.000000 0.000000
vn 0.000000 0.000000 1.000000
vn 0.000000 0.000000 1.000000
vn 0.000000 0.000000 1.000000
vn 0.000000 0.000000 1.000000
vn 0.000000 -1.000000 -0.000000
vn 0.000000 -1.000000 0.000000
vn 0.000000 -1.000000 0.000000
vn 0.000000 -1.000000 -0.000000
vn -1.000000 0.000000 0.000000
vn -1.000000 0.000000 0.000000
vn -1.000000 0.000000 0.000000
vn -1.000000 0.000000 0.000000
vn 0.000000 0.000000 1.000000
vn 0.000000 0.000000 1.000000
vn 0.000000 0.000000 1.000000
vn 0.000000 0.000000 1.000000
vn 1.000000 0.000000 0.000000
vn 1.000000 0.000000 0.000000
vn 1.000000 0.000000 0.000000
vn 1.000000 0.000000 0.000000
vn 0.000000 0.000000 -1.000000
vn 0.000000 0.000000 -1.000000
vn 0.000000 -0.000000 -1.000000
vn 0.000000 -0.000000 -1.000000
vn 0.000000 -1.000000 0.000000
vn 0.000000 -1.000000 -0.000000
vn 0.000000 -1.000000 0.000000
vn 0.000000 -1.000000 -0.000000
vn -0.175468 0.984485 0.000000
vn -0.175468 0.984485 0.000000
vn -0.000000 1.000000 0.000000
vn -0.000000 1.000000 0.000000
vn 0.000000 0.000005 1.000000
vn 0.175467 0.984485 0.000000
vn 0.175467 0.984485 0.000000
vn 0.000000 -0.000005 -1.000000
s 1
g N_ElectricalBox N_assets
usemtl initialShadingGroup
f 1/534/1 2/552/2 22/570/3 21/4/4
f 2/552/2 3/551/5 23/569/6 22/570/3
f 3/551/5 4/550/7 24/568/8 23/569/6
f 4/550/7 5/549/9 25/567/10 24/568/8
f 5/549/9 6/548/11 26/566/12 25/567/10
f 6/548/11 7/547/13 27/565/14 26/566/12
f 7/547/13 8/546/15 28/564/16 27/565/14
f 8/546/15 9/545/17 29/563/18 28/564/16
f 9/545/17 10/544/19 30/694/20 29/563/18
f 10/693/19 11/543/21 31/561/22 30/562/20
f 11/543/21 12/542/23 32/560/24 31/561/22
f 12/542/23 13/541/25 33/559/26 32/560/24
f 13/541/25 14/540/27 34/558/28 33/559/26
f 14/540/27 15/539/29 35/557/30 34/558/28
f 15/539/29 16/538/31 36/556/32 35/557/30
f 16/538/31 17/537/33 37/555/34 36/556/32
f 17/537/33 18/536/35 38/554/36 37/555/34
f 18/536/35 19/535/37 39/553/38 38/554/36
f 19/535/37 20/533/39 40/40/40 39/553/38
f 20/533/39 1/534/1 21/4/4 40/40/40
s 2
f 2/2/41 1/1/42 41/41/43
f 3/5/44 2/2/41 41/41/43
f 4/7/45 3/5/44 41/41/43
f 5/9/46 4/7/45 41/41/43
f 6/11/47 5/9/46 41/41/43
f 7/13/48 6/11/47 41/41/43
f 8/15/49 7/13/48 41/41/43
f 9/17/50 8/15/49 41/41/43
f 10/19/51 9/17/50 41/41/43
f 11/21/52 10/19/51 41/41/43
f 12/23/53 11/21/52 41/41/43
f 13/25/54 12/23/53 41/41/43
f 14/27/55 13/25/54 41/41/43
f 15/29/56 14/27/55 41/41/43
f 16/31/57 15/29/56 41/41/43
f 17/33/58 16/31/57 41/41/43
f 18/35/59 17/33/58 41/41/43
f 19/37/60 18/35/59 41/41/43
f 20/39/61 19/37/60 41/41/43
f 1/1/42 20/39/61 41/41/43
s 3
f 21/4/62 22/3/63 42/42/64
f 22/3/63 23/6/65 42/42/64
f 23/6/65 24/8/66 42/42/64
f 24/8/66 25/10/67 42/42/64
f 25/10/67 26/12/68 42/42/64
f 26/12/68 27/14/69 42/42/64
f 27/14/69 28/16/70 42/42/64
f 28/16/70 29/18/71 42/42/64
f 29/18/71 30/20/72 42/42/64
f 30/20/72 31/22/73 42/42/64
f 31/22/73 32/24/74 42/42/64
f 32/24/74 33/26/75 42/42/64
f 33/26/75 34/28/76 42/42/64
f 34/28/76 35/30/77 42/42/64
f 35/30/77 36/32/78 42/42/64
f 36/32/78 37/34/79 42/42/64
f 37/34/79 38/36/80 42/42/64
f 38/36/80 39/38/81 42/42/64
f 39/38/81 40/40/82 42/42/64
f 40/40/82 21/4/62 42/42/64
s 4
f 43/43/83 44/44/84 46/715/85 45/429/86
s 5
f 47/47/87 48/713/88 50/48/89 49/49/90
s off
f 44/44/91 50/48/92 48/46/93 46/45/94
f 49/49/95 43/43/96 45/716/97 47/714/98
s 6
f 93/50/99 94/529/100 95/52/101 96/53/102
f 94/529/100 97/528/103 98/54/104 95/52/101
f 97/528/103 99/526/105 100/55/106 98/54/104
f 99/526/105 101/531/107 102/57/108 100/55/106
s 7
f 55/588/109 56/596/110 76/58/111 75/59/112
f 56/593/110 57/601/113 77/60/114 76/58/111
f 57/598/113 58/606/115 78/61/116 77/60/114
f 58/603/115 59/611/117 79/62/118 78/61/116
f 59/608/117 60/616/119 80/63/120 79/62/118
f 60/613/119 61/621/121 81/64/122 80/63/120
f 61/618/121 62/626/123 82/65/124 81/64/122
f 62/623/123 63/631/125 83/66/126 82/65/124
f 63/628/125 64/636/127 84/67/128 83/66/126
f 64/633/127 65/642/129 85/68/130 84/67/128
s 6
f 103/69/131 104/524/132 105/71/133 106/72/134
f 104/524/132 107/523/135 108/74/136 105/71/133
f 107/523/135 109/522/137 110/76/138 108/74/136
f 109/522/137 111/521/139 112/78/140 110/76/138
f 111/521/139 113/520/141 114/80/142 112/78/140
f 113/520/141 93/50/99 96/53/102 114/80/142
s off
f 52/579/143 51/574/144 91/686/145
f 53/582/146 52/576/147 91/684/148
f 54/586/149 53/580/150 91/683/151
f 55/592/152 54/584/153 91/682/154
f 56/597/155 55/589/156 91/681/157
f 57/602/158 56/594/159 91/680/160
f 58/607/161 57/599/162 91/679/163
f 59/612/164 58/604/165 91/678/166
f 60/617/167 59/609/168 91/677/169
f 61/622/170 60/614/171 91/676/172
f 62/627/173 61/619/174 91/675/175
f 63/632/176 62/624/177 91/674/178
f 64/637/179 63/629/180 91/673/181
f 65/643/182 64/634/183 91/672/184
f 66/648/185 65/640/186 91/671/187
f 67/653/188 66/645/189 91/670/190
f 68/658/191 67/650/192 91/669/193
f 69/663/194 68/655/195 91/668/196
f 70/667/197 69/660/198 91/571/199
f 51/572/200 70/664/201 91/685/202
s 9
f 71/81/203 72/82/204 92/83/205
f 72/82/204 73/84/206 92/83/205
f 73/84/206 74/85/207 92/83/205
f 74/85/207 75/59/208 92/83/205
f 75/59/208 76/58/209 92/83/205
f 76/58/209 77/60/210 92/83/205
f 77/60/210 78/61/211 92/83/205
f 78/61/211 79/62/212 92/83/205
f 79/62/212 80/63/213 92/83/205
f 80/63/213 81/64/214 92/83/205
f 81/64/214 82/65/215 92/83/205
f 82/65/215 83/66/216 92/83/205
f 83/66/216 84/67/217 92/83/205
f 84/67/217 85/68/218 92/83/205
f 85/68/218 86/86/219 92/83/205
f 86/86/219 87/87/220 92/83/205
f 87/87/220 88/88/221 92/83/205
f 88/88/221 89/89/222 92/83/205
f 89/89/222 90/90/223 92/83/205
f 90/90/223 71/81/203 92/83/205
s 10
f 51/573/224 52/578/225 94/51/226 93/692/227
s 9
f 72/82/204 71/81/203 96/53/228 95/52/229
s 10
f 52//225 53//230 97//231 94//226
s 9
f 73/84/206 72/82/204 95/52/229 98/54/232
s 10
f 53//230 54//233 99//234 97//231
s 9
f 74/85/207 73/84/206 98/54/232 100/55/235
s 10
f 54/583/233 55/591/236 101/527/237 99/691/234
s 7
f 55/587/109 75/59/112 102/57/238 101/56/239
s 9
f 75/59/208 74/85/207 100/55/235 102/57/240
s 10
f 65/639/241 66/647/242 104/70/243 103/525/244
s 9
f 86/86/219 85/68/218 106/72/245 105/71/246
s 7
f 85/68/130 65/638/129 103/530/247 106/72/248
s 10
f 66/644/242 67/652/249 107/73/250 104/690/243
s 9
f 87/87/220 86/86/219 105/71/246 108/74/251
s 10
f 67/649/249 68/657/252 109/75/253 107/689/250
s 9
f 88/88/221 87/87/220 108/74/251 110/76/254
s 10
f 68/654/252 69/662/255 111/77/256 109/688/253
s 9
f 89/89/222 88/88/221 110/76/254 112/78/257
s 10
f 69/659/255 70/666/258 113/79/259 111/687/256
s 9
f 90/90/223 89/89/222 112/78/257 114/80/260
s 10
f 70//258 51//224 93//227 113//259
s 9
f 71/81/203 90/90/223 114/80/260 96/53/228
s off
f 115/509/261 46/92/262 117/93/263 116/405/264
f 116/94/265 117/403/266 119/404/267 118/406/268
f 118/96/269 119/95/270 48/97/271 120/512/272
f 120/98/273 48/97/274 46/92/275 115/513/276
f 46/92/277 48/97/278 119/95/279 117/93/280
f 120/508/281 115/91/282 116/511/283 118/510/284
s 12
f 203/99/285 204/469/286 205/101/287 206/102/288
f 204/469/286 207/468/289 208/104/290 205/101/287
s 13
f 207/473/291 209/467/292 210/106/293 208/104/294
f 209/467/292 211/466/295 212/108/296 210/106/293
f 211/466/295 213/465/297 214/110/298 212/108/296
f 213/465/297 215/464/299 216/112/300 214/110/298
s 14
f 215/472/301 217/463/302 218/114/303 216/112/304
f 217/463/302 219/462/305 220/116/306 218/114/303
f 219/462/305 221/461/307 222/118/308 220/116/306
f 221/461/307 223/460/309 224/120/310 222/118/308
f 223/460/309 225/459/311 226/122/312 224/120/310
f 225/459/311 227/458/313 228/124/314 226/122/312
s 15
f 227/471/315 229/457/316 230/126/317 228/124/318
f 229/457/316 231/456/319 232/128/320 230/126/317
f 231/456/319 233/455/321 234/130/322 232/128/320
f 233/455/321 235/454/323 236/132/324 234/130/322
s 12
f 235/470/325 237/453/326 238/134/327 236/132/328
f 237/453/326 239/452/329 240/136/330 238/134/327
f 239/452/329 241/450/331 242/138/332 240/136/330
f 241/450/331 203/99/285 206/102/288 242/138/332
s 17
f 122/139/333 121/140/334 161/141/335
f 123/142/336 122/139/333 161/141/335
f 124/143/337 123/142/336 161/141/335
f 125/144/338 124/143/337 161/141/335
f 126/145/339 125/144/338 161/141/335
f 127/146/340 126/145/339 161/141/335
f 128/147/341 127/146/340 161/141/335
f 129/148/342 128/147/341 161/141/335
f 130/149/343 129/148/342 161/141/335
f 131/150/344 130/149/343 161/141/335
f 132/151/345 131/150/344 161/141/335
f 133/152/346 132/151/345 161/141/335
f 134/153/347 133/152/346 161/141/335
f 135/154/348 134/153/347 161/141/335
f 136/155/349 135/154/348 161/141/335
f 137/156/350 136/155/349 161/141/335
f 138/157/351 137/156/350 161/141/335
f 139/158/352 138/157/351 161/141/335
f 140/159/353 139/158/352 161/141/335
f 121/140/334 140/159/353 161/141/335
s 18
f 141/479/354 142/495/355 162/162/356
f 142/495/355 143/494/357 162/162/356
f 143/494/357 144/493/358 162/162/356
f 144/493/358 145/492/359 162/162/356
f 145/492/359 146/491/360 162/162/356
f 146/491/360 147/490/361 162/162/356
f 147/490/361 148/489/362 162/162/356
f 148/489/362 149/169/363 162/162/356
f 149/169/363 150/170/364 162/162/356
f 150/170/364 151/488/365 162/162/356
f 151/488/365 152/487/366 162/162/356
f 152/487/366 153/486/367 162/162/356
f 153/486/367 154/485/368 162/162/356
f 154/485/368 155/484/369 162/162/356
f 155/484/369 156/483/370 162/162/356
f 156/483/370 157/482/371 162/162/356
f 157/482/371 158/481/372 162/162/356
f 158/481/372 159/480/373 162/162/356
f 159/480/373 160/478/374 162/162/356
f 160/478/374 141/479/354 162/162/356
s 17
f 121/140/334 122/139/333 164/181/375 163/182/376
s 19
f 244/183/377 243/184/378 245/185/379 246/186/380
s 17
f 122/139/333 123/142/336 167/187/381 164/181/375
s 19
f 247/188/382 244/183/377 246/186/380 248/189/383
s 17
f 123/142/336 124/143/337 169/190/384 167/187/381
s 19
f 249/191/385 247/188/382 248/189/383 250/192/386
s 17
f 124/143/337 125/144/338 171/193/387 169/190/384
s 19
f 251/194/388 249/191/385 250/192/386 252/195/389
s 17
f 125/144/338 126/145/339 173/196/390 171/193/387
s 19
f 253/197/391 251/194/388 252/195/389 254/198/392
s 17
f 126/145/339 127/146/340 175/199/393 173/196/390
s 19
f 255/200/394 253/197/391 254/198/392 256/201/395
s 17
f 127/146/340 128/147/341 177/202/396 175/199/393
s 19
f 257/203/397 255/200/394 256/201/395 258/204/398
s 17
f 128/147/341 129/148/342 179/205/399 177/202/396
s 19
f 259/206/400 257/203/397 258/204/398 260/207/401
s 17
f 129/148/342 130/149/343 181/208/402 179/205/399
s 19
f 261/474/403 259/206/400 260/207/401 262/475/404
s 17
f 130/149/343 131/150/344 183/211/405 181/208/402
s 19
f 263/212/406 261/209/403 262/210/404 264/213/407
s 17
f 131/150/344 132/151/345 185/214/408 183/211/405
s 19
f 265/215/409 263/212/406 264/213/407 266/216/410
s 17
f 132/151/345 133/152/346 187/217/411 185/214/408
s 19
f 267/218/412 265/215/409 266/216/410 268/219/413
s 17
f 133/152/346 134/153/347 189/220/414 187/217/411
s 19
f 269/221/415 267/218/412 268/219/413 270/222/416
s 17
f 134/153/347 135/154/348 191/223/417 189/220/414
s 19
f 271/224/418 269/221/415 270/222/416 272/225/419
s 17
f 135/154/348 136/155/349 193/226/420 191/223/417
s 19
f 273/227/421 271/224/418 272/225/419 274/228/422
s 17
f 136/155/349 137/156/350 195/229/423 193/226/420
s 19
f 275/230/424 273/227/421 274/228/422 276/231/425
s 17
f 137/156/350 138/157/351 197/232/426 195/229/423
s 19
f 277/233/427 275/230/424 276/231/425 278/234/428
s 17
f 138/157/351 139/158/352 199/235/429 197/232/426
s 19
f 279/236/430 277/233/427 278/234/428 280/237/431
s 17
f 139/158/352 140/159/353 201/238/432 199/235/429
s 19
f 281/239/433 279/236/430 280/237/431 282/240/434
s 17
f 140/159/353 121/140/334 163/182/376 201/238/432
s 19
f 243/184/378 281/239/433 282/240/434 245/185/379
s 17
f 163/182/376 164/181/375 204/100/435 203/451/436
s 20
f 165/449/437 166/431/438 206/102/439 205/101/440
s 17
f 164/181/375 167/187/381 207/103/441 204/100/435
s 20
f 168/448/442 165/449/437 205/101/440 208/104/443
s 17
f 167/187/381 169/190/384 209/105/444 207/103/441
s 20
f 170/447/445 168/448/442 208/104/443 210/106/446
s 17
f 169/190/384 171/193/387 211/107/447 209/105/444
s 20
f 172/446/448 170/447/445 210/106/446 212/108/449
s 17
f 171/193/387 173/196/390 213/109/450 211/107/447
s 20
f 174/445/451 172/446/448 212/108/449 214/110/452
s 17
f 173/196/390 175/199/393 215/111/453 213/109/450
s 20
f 176/444/454 174/445/451 214/110/452 216/112/455
s 17
f 175/199/393 177/202/396 217/113/456 215/111/453
s 20
f 178/443/457 176/444/454 216/112/455 218/114/458
s 17
f 177/202/396 179/205/399 219/115/459 217/113/456
s 20
f 180/442/460 178/443/457 218/114/458 220/116/461
s 17
f 179/205/399 181/208/402 221/117/462 219/115/459
s 20
f 182/441/463 180/442/460 220/116/461 222/118/464
s 17
f 181/208/402 183/211/405 223/119/465 221/117/462
s 20
f 184/440/466 182/441/463 222/118/464 224/120/467
s 17
f 183/211/405 185/214/408 225/121/468 223/119/465
s 20
f 186/439/469 184/440/466 224/120/467 226/122/470
s 17
f 185/214/408 187/217/411 227/123/471 225/121/468
s 20
f 188/438/472 186/439/469 226/122/470 228/124/473
s 17
f 187/217/411 189/220/414 229/125/474 227/123/471
s 20
f 190/437/475 188/438/472 228/124/473 230/126/476
s 17
f 189/220/414 191/223/417 231/127/477 229/125/474
s 20
f 192/436/478 190/437/475 230/126/476 232/128/479
s 17
f 191/223/417 193/226/420 233/129/480 231/127/477
s 20
f 194/435/481 192/436/478 232/128/479 234/130/482
s 17
f 193/226/420 195/229/423 235/131/483 233/129/480
s 20
f 196/434/484 194/435/481 234/130/482 236/132/485
s 17
f 195/229/423 197/232/426 237/133/486 235/131/483
s 20
f 198/433/487 196/434/484 236/132/485 238/134/488
s 17
f 197/232/426 199/235/429 239/135/489 237/133/486
s 20
f 200/432/490 198/433/487 238/134/488 240/136/491
s 17
f 199/235/429 201/238/432 241/137/492 239/135/489
s 20
f 202/430/493 200/432/490 240/136/491 242/138/494
s 17
f 201/238/432 163/182/376 203/451/436 241/137/492
s 20
f 166/431/438 202/430/493 242/138/494 206/102/439
s 21
f 142/161/495 141/160/496 243/184/497 244/183/498
s 22
f 166/242/499 165/241/500 246/186/501 245/185/502
s 21
f 143/163/503 142/161/495 244/183/498 247/188/504
s 22
f 165/241/500 168/243/505 248/189/506 246/186/501
s 21
f 144/164/507 143/163/503 247/188/504 249/191/508
s 22
f 168/243/505 170/244/509 250/192/510 248/189/506
s 21
f 145/165/511 144/164/507 249/191/508 251/194/512
s 22
f 170/244/509 172/245/513 252/195/514 250/192/510
s 21
f 146/166/515 145/165/511 251/194/512 253/197/516
s 22
f 172/245/513 174/246/517 254/198/518 252/195/514
s 21
f 147/167/519 146/166/515 253/197/516 255/200/520
s 22
f 174/246/517 176/247/521 256/201/522 254/198/518
s 21
f 148/168/523 147/167/519 255/200/520 257/203/524
s 22
f 176/247/521 178/248/525 258/204/526 256/201/522
s 21
f 149/169/527 148/168/523 257/203/524 259/206/528
s 22
f 178/248/525 180/249/529 260/207/530 258/204/526
s 21
f 150/170/531 149/169/527 259/206/528 261/474/532
s 22
f 180/249/529 182/476/533 262/475/534 260/207/530
s 21
f 151/171/535 150/477/531 261/209/532 263/212/536
s 22
f 182/250/533 184/251/537 264/213/538 262/210/534
s 21
f 152/172/539 151/171/535 263/212/536 265/215/540
s 22
f 184/251/537 186/252/541 266/216/542 264/213/538
s 21
f 153/173/543 152/172/539 265/215/540 267/218/544
s 22
f 186/252/541 188/253/545 268/219/546 266/216/542
s 21
f 154/174/547 153/173/543 267/218/544 269/221/548
s 22
f 188/253/545 190/254/549 270/222/550 268/219/546
s 21
f 155/175/551 154/174/547 269/221/548 271/224/552
s 22
f 190/254/549 192/255/553 272/225/554 270/222/550
s 21
f 156/176/555 155/175/551 271/224/552 273/227/556
s 22
f 192/255/553 194/256/557 274/228/558 272/225/554
s 21
f 157/177/559 156/176/555 273/227/556 275/230/560
s 22
f 194/256/557 196/257/561 276/231/562 274/228/558
s 21
f 158/178/563 157/177/559 275/230/560 277/233/564
s 22
f 196/257/561 198/258/565 278/234/566 276/231/562
s 21
f 159/179/567 158/178/563 277/233/564 279/236/568
s 22
f 198/258/565 200/259/569 280/237/570 278/234/566
s 21
f 160/180/571 159/179/567 279/236/568 281/239/572
s 22
f 200/259/569 202/260/573 282/240/574 280/237/570
s 21
f 141/160/496 160/180/571 281/239/572 243/184/497
s 22
f 202/260/573 166/242/499 245/185/502 282/240/574
s off
f 283/261/575 284/262/576 286/274/577 285/264/578
f 287/278/579 288/266/580 290/267/581 289/268/582
f 289/268/583 290/267/584 284/262/585 283/261/586
f 284/262/587 290/267/588 288/277/589 286/263/590
f 289/268/591 283/261/592 285/273/593 287/265/594
s 4
f 43/269/83 291/708/595 292/383/596 44/272/84
s 23
f 291/380/597 285/264/598 286/274/599 292/427/600
s off
f 44/272/601 292/707/602 293/382/603 50/275/604
s 23
f 292/271/600 286/263/599 288/277/605 293/426/606
s 5
f 50/275/89 293/706/607 294/381/608 49/276/90
s 23
f 293/279/606 288/266/605 287/278/609 294/425/610
f 285/273/598 291/428/597 294/280/610 287/265/609
s off
f 291/270/611 43/269/612 49/276/613 294/705/614
f 295/281/615 296/282/616 298/283/617 297/502/618
f 297/284/619 298/283/620 300/285/621 299/500/622
f 299/286/623 300/285/624 302/287/625 301/506/626
s 24
f 301/288/627 302/287/628 296/282/629 295/504/630
s off
f 296/282/631 302/287/632 300/285/633 298/283/634
f 303/289/635 304/499/636 305/498/637 306/496/638
s 24
f 301/288/627 295/504/630 304/505/639 303/497/640
s off
f 295/281/641 297/502/642 305/503/643 304/290/644
f 297/284/645 299/500/646 306/501/647 305/291/648
f 299/286/649 301/506/650 303/507/651 306/292/652
f 307/711/653 115/709/654 116/710/655 308/401/656
f 308/296/657 116/399/658 310/400/659 309/402/660
f 309/298/661 310/297/662 312/299/663 311/300/664
f 311/300/665 312/299/666 115/294/667 307/293/668
f 115/294/669 312/299/670 310/297/671 116/295/672
f 311/300/673 307/293/674 308/712/675 309/298/676
s 25
f 313/301/677 314/302/678 52/303/679 51/575/680
f 314/302/678 315/304/681 53/305/682 52/577/679
f 315/304/681 316/306/683 54/307/684 53/581/682
f 316/306/683 317/308/685 55/309/686 54/585/684
f 317/308/685 318/310/687 56/311/688 55/590/686
f 318/310/687 319/312/689 57/313/690 56/595/688
f 319/312/689 320/314/691 58/315/692 57/600/690
f 320/314/691 321/316/693 59/317/694 58/605/692
f 321/316/693 322/318/695 60/319/696 59/610/694
f 322/318/695 323/320/697 61/321/698 60/615/696
f 323/320/697 324/322/699 62/323/700 61/620/698
f 324/322/699 325/324/701 63/325/702 62/625/700
f 325/324/701 326/326/703 64/327/704 63/630/702
f 326/326/703 327/328/705 65/329/706 64/635/704
f 327/328/705 328/330/707 66/331/708 65/641/706
f 328/330/707 329/332/709 67/333/710 66/646/708
f 329/332/709 330/334/711 68/335/712 67/651/710
f 330/334/711 331/336/713 69/337/714 68/656/712
f 331/336/713 332/338/715 70/339/716 69/661/714
f 332/338/715 313/301/677 51/532/680 70/665/716
s 26
f 314/302/717 313/301/718 42/340/719
f 315/304/720 314/302/717 42/340/719
f 316/306/721 315/304/720 42/340/719
f 317/308/722 316/306/721 42/340/719
f 318/310/723 317/308/722 42/340/719
f 319/312/724 318/310/723 42/340/719
f 320/314/725 319/312/724 42/340/719
f 321/316/726 320/314/725 42/340/719
f 322/318/727 321/316/726 42/340/719
f 323/320/728 322/318/727 42/340/719
f 324/322/729 323/320/728 42/340/719
f 325/324/730 324/322/729 42/340/719
f 326/326/731 325/324/730 42/340/719
f 327/328/732 326/326/731 42/340/719
f 328/330/733 327/328/732 42/340/719
f 329/332/734 328/330/733 42/340/719
f 330/334/735 329/332/734 42/340/719
f 331/336/736 330/334/735 42/340/719
f 332/338/737 331/336/736 42/340/719
f 313/301/718 332/338/737 42/340/719
s off
f 51//738 52//739 91//740
f 52//741 53//742 91//743
f 53//744 54//745 91//746
f 54//747 55//748 91//749
f 55//750 56//751 91//752
f 56//753 57//754 91//755
f 57//756 58//757 91//758
f 58//759 59//760 91//761
f 59//762 60//763 91//764
f 60//765 61//766 91//767
f 61//768 62//769 91//770
f 62//771 63//772 91//773
f 63//774 64//775 91//776
f 64//777 65//778 91//779
f 65//780 66//781 91//782
f 66//783 67//784 91//785
f 67//786 68//787 91//788
f 68//789 69//790 91//791
f 69//792 70//793 91//794
f 70//795 51//796 91//797
f 45/341/798 307/519/799 308/517/800 333/397/801
f 333/344/802 308/395/803 335/396/804 334/398/805
f 334/346/806 335/516/807 336/514/808 47/348/809
f 47/348/810 336/518/811 307/342/812 45/341/813
f 307/515/814 336/347/815 335/345/816 308/343/817
f 47/348/818 45/341/819 333/397/820 334/346/821
f 337/697/822 338/695/823 340/696/824 339/394/825
f 339/352/826 340/393/827 342/390/828 341/391/829
f 349/354/830 350/355/831 351/356/832 352/357/833
f 343/358/834 344/359/835 338/350/836 337/349/837
f 338/350/838 344/359/839 342/353/840 340/351/841
f 343/358/842 337/349/843 339/698/844 341/392/845
f 341//846 342//847 346//848 345//849
s 27
f 342/353/850 344/359/851 347/702/852 346/701/853
f 344/359/851 343/358/854 348/703/855 347/362/852
f 343/358/854 341/392/856 345/389/857 348/700/855
s off
f 345/361/858 346/388/859 350/387/860 349/386/861
f 346/360/862 347/704/863 351/356/864 350/355/865
f 347/362/866 348/703/867 352/357/868 351/356/869
f 348/363/870 345/699/871 349/354/872 352/357/873
s 28
f 355/371/874 356/384/875 354/364/876 353/385/877
s off
f 357/372/878 358/414/879 359/413/880 360/407/881
s 29
f 358/414/882 361/412/883 362/416/884 359/413/885
s off
f 361/415/886 363/410/887 364/408/888 362/411/889
s 30
f 363/410/890 357/372/891 360/407/892 364/408/893
s 28
f 353/366/877 354/365/876 358/373/894 357/409/895
f 354/365/876 356/370/875 361/376/896 358/373/894
f 356/370/875 355/369/874 363/378/897 361/376/896
f 355/369/874 353/366/877 357/409/895 363/378/897
s 31
f 360/375/898 359/419/899 366/423/900 365/421/901
s 29
f 359/374/885 362/418/884 366/368/902
s 31
f 362/377/903 364/417/904 365/367/901 366/424/900
s 30
f 364/379/893 360/420/892 365/422/905
