# This file uses centimeters as units for non-parametric coordinates.

mtllib N_Goal.mtl
g default
v 25.561363 -60.901981 146.925110
v 23.734962 134.491226 145.063354
v -174.779358 -60.901981 146.925110
v 25.561363 -60.901981 -55.143738
v 23.734962 134.491226 -57.005493
v -174.779358 -60.901981 -55.143738
v -177.108795 -63.860771 -55.875000
v 21.014702 143.460632 -55.875000
v -177.108795 -63.860771 144.465698
v 21.014702 143.460632 144.465698
v 24.487732 136.727692 140.910767
v 21.762558 137.100006 140.910767
v 19.776680 139.003052 140.910767
v 19.288643 141.709900 140.910767
v 20.484863 144.186646 140.910767
v 22.908424 145.487244 140.910767
v 25.633598 145.114929 140.910767
v 27.619476 143.211914 140.910767
v 28.107513 140.505066 140.910767
v 26.911285 138.028320 140.910767
v 24.487732 136.727692 -53.146240
v 21.762558 137.100006 -53.146240
v 19.776680 139.003052 -53.146240
v 19.288643 141.709900 -53.146240
v 20.484863 144.186646 -53.146240
v 22.908424 145.487244 -53.146240
v 25.633598 145.114929 -53.146240
v 27.619476 143.211914 -53.146240
v 28.107513 140.505066 -53.146240
v 26.911285 138.028320 -53.146240
v -168.498108 -64.778999 142.461945
v -170.104706 -63.239418 140.845245
v -172.090591 -61.336388 140.845245
v -173.697189 -59.796806 142.461945
v -174.310852 -59.208740 145.077820
v -173.697189 -59.796806 147.693695
v -172.090591 -61.336388 149.310394
v -170.104706 -63.239418 149.310394
v -168.498108 -64.778999 147.693695
v -167.884445 -65.367073 145.077820
v 23.428963 135.503113 142.461945
v 21.822357 137.042709 140.845245
v 19.836487 138.945740 140.845245
v 18.229874 140.485321 142.461945
v 17.616211 141.073395 145.077820
v 18.229874 140.485321 147.693695
v 19.836487 138.945740 149.310394
v 21.822357 137.042709 149.310394
v 23.428963 135.503113 147.693695
v 24.042633 134.915054 145.077820
v -171.097656 -62.287903 145.077820
v 23.371826 135.563232 -54.762939
v 21.765228 137.102814 -53.146240
v 19.779350 139.005829 -53.146240
v 18.172745 140.545410 -54.763000
v 17.559074 141.133484 -57.378845
v 18.172745 140.545410 -59.994751
v 19.779350 139.005829 -61.611450
v 21.765228 137.102814 -61.611450
v 23.371826 135.563232 -59.994690
v 23.985497 134.975159 -57.378845
v -168.555252 -64.718918 -54.762939
v -170.161850 -63.179337 -53.146240
v -172.147736 -61.276306 -53.146240
v -173.754333 -59.736717 -54.763000
v -174.368011 -59.148651 -57.378845
v -173.754333 -59.736725 -59.994751
v -172.147736 -61.276306 -61.611450
v -170.161850 -63.179337 -61.611450
v -168.555252 -64.718918 -59.994690
v -167.941589 -65.306984 -57.378845
v -171.154785 -62.227821 -57.378845
v 21.752594 137.089630 -54.195496
v 19.766724 138.992661 -54.195496
v 19.242088 141.661316 -54.489319
v 20.379082 144.076263 -54.964783
v 22.743408 145.315063 -55.440186
v 25.431969 144.904526 -55.734009
v 27.417847 143.001495 -55.734009
v 27.942490 140.332855 -55.440186
v 26.805504 137.917908 -54.964783
v 24.441162 136.679108 -54.489319
v 22.050568 137.400574 -53.564209
v 20.064690 139.303589 -53.564209
v 19.216705 141.634827 -54.659302
v 19.830490 143.503784 -56.431152
v 21.671600 144.196594 -58.203003
v 24.036812 143.448639 -59.297974
v 26.022690 141.545609 -59.297974
v 26.870682 139.214386 -58.202942
v 26.256912 137.345459 -56.431152
v 24.415771 136.652618 -54.659241
v 22.489563 137.858673 -53.132141
v 20.503693 139.761703 -53.132141
v 19.100906 141.513977 -54.695679
v 18.817001 142.446182 -57.225586
v 19.760429 142.202209 -59.755371
v 21.570839 140.875305 -61.318909
v 23.556717 138.972290 -61.318909
v 24.959518 137.220032 -59.755310
v 25.243423 136.287842 -57.225586
v 24.299973 136.531769 -54.695679
v 21.780083 137.081024 141.917938
v 24.471649 136.683517 142.205383
v 26.829071 137.930725 142.686584
v 27.951836 140.346191 143.177734
v 27.411140 143.007370 143.491211
v 25.413498 144.897751 143.507263
v 22.721924 145.295258 143.219818
v 20.364517 144.048065 142.738586
v 19.241737 141.632568 142.247467
v 19.782440 138.971405 141.934021
v 22.107101 137.400925 141.238586
v 24.482620 136.664093 142.318420
v 26.317200 137.349869 144.099548
v 26.910103 139.196274 145.901672
v 26.034866 141.498077 147.036438
v 24.025833 143.376099 147.070374
v 21.650314 144.112946 145.990570
v 19.815735 143.427170 144.209412
v 19.222816 141.580750 142.407288
v 20.098053 139.278931 141.272583
v 22.538567 137.828217 140.821381
v 24.358269 136.501556 142.373199
v 25.305664 136.246078 144.901367
v 25.018890 137.159393 147.440155
v 23.607506 138.892639 149.019897
v 21.610596 140.783768 149.037170
v 19.790901 142.110428 147.485352
v 18.843513 142.365906 144.957153
v 19.130264 141.452591 142.418365
v 20.541656 139.719345 140.838654
v -175.519730 -61.252869 144.465729
v 23.761597 144.955826 144.465729
v -175.519730 -61.252869 -55.875000
v 23.761597 144.955826 -55.875000
v -173.628128 -59.239021 140.910767
v -172.011429 -61.464218 140.910767
v -172.011429 -64.214706 140.910767
v -173.628128 -66.439911 140.910767
v -176.244003 -67.289856 140.910767
v -178.859879 -66.439903 140.910767
v -180.476578 -64.214706 140.910767
v -180.476578 -61.464214 140.910767
v -178.859879 -59.239021 140.910767
v -176.244003 -58.389069 140.910767
v -173.628128 -59.239021 -53.146240
v -172.011429 -61.464218 -53.146240
v -172.011429 -64.214706 -53.146240
v -173.628128 -66.439911 -53.146240
v -176.244003 -67.289856 -53.146240
v -178.859879 -66.439903 -53.146240
v -180.476578 -64.214706 -53.146240
v -180.476578 -61.464214 -53.146240
v -178.859879 -59.239021 -53.146240
v -176.244003 -58.389069 -53.146240
v 22.045559 -59.156193 142.461945
v 22.045559 -61.381390 140.845245
v 22.045559 -64.131882 140.845245
v 22.045559 -66.357079 142.461945
v 22.045559 -67.207031 145.077881
v 22.045559 -66.357079 147.693665
v 22.045559 -64.131882 149.310394
v 22.045559 -61.381390 149.310394
v 22.045559 -59.156193 147.693665
v 22.045559 -58.306244 145.077881
v -172.011429 -59.156193 142.461945
v -172.011429 -61.381390 140.845245
v -172.011429 -64.131882 140.845245
v -172.011429 -66.357079 142.461945
v -172.011429 -67.207031 145.077820
v -172.011429 -66.357079 147.693695
v -172.011429 -64.131882 149.310394
v -172.011429 -61.381390 149.310394
v -172.011429 -59.156193 147.693695
v -172.011429 -58.306244 145.077820
v -172.015289 -59.239021 -54.762939
v -172.015289 -61.464218 -53.146240
v -172.015289 -64.214706 -53.146240
v -172.015289 -66.439911 -54.763000
v -172.015289 -67.289856 -57.378845
v -172.015289 -66.439903 -59.994751
v -172.015289 -64.214706 -61.611450
v -172.015289 -61.464214 -61.611450
v -172.015289 -59.239021 -59.994690
v -172.015289 -58.389069 -57.378845
v 22.041700 -59.239021 -54.762939
v 22.041700 -61.464218 -53.146240
v 22.041700 -64.214706 -53.146240
v 22.041700 -66.439911 -54.763000
v 22.041700 -67.289856 -57.378845
v 22.041700 -66.439903 -59.994751
v 22.041700 -64.214706 -61.611450
v 22.041700 -61.464214 -61.611450
v 22.041700 -59.239021 -59.994690
v 22.041700 -58.389065 -57.378845
v -171.997040 -61.464218 -54.195496
v -171.997040 -64.214706 -54.195496
v -173.560837 -66.439911 -54.489319
v -176.091110 -67.289856 -54.964783
v -178.621384 -66.439903 -55.440186
v -180.185150 -64.214706 -55.734009
v -180.185150 -61.464214 -55.734009
v -178.621368 -59.239021 -55.440186
v -176.091110 -58.389069 -54.964783
v -173.560822 -59.239021 -54.489319
v -172.427704 -61.464218 -53.564209
v -172.427704 -64.214706 -53.564209
v -173.524155 -66.439911 -54.659302
v -175.298218 -67.289856 -56.431152
v -177.072266 -66.439903 -58.203003
v -178.168701 -64.214706 -59.297974
v -178.168701 -61.464214 -59.297974
v -177.072266 -59.239021 -58.202942
v -175.298218 -58.389069 -56.431152
v -173.524124 -59.239021 -54.659241
v -173.062195 -61.464218 -53.132141
v -173.062195 -64.214706 -53.132141
v -173.356781 -66.439911 -54.695679
v -173.833405 -67.289856 -57.225586
v -174.310013 -66.439903 -59.755371
v -174.604568 -64.214706 -61.318909
v -174.604568 -61.464214 -61.318909
v -174.310013 -59.239021 -59.755310
v -173.833405 -58.389069 -57.225586
v -173.356750 -59.239021 -54.695679
v -172.009842 -61.438423 141.917938
v -173.585098 -59.220062 142.205383
v -176.116669 -58.380917 142.686584
v -178.637482 -59.241508 143.177734
v -180.184753 -61.473122 143.491211
v -180.167480 -64.223358 143.507263
v -178.592224 -66.441719 143.219818
v -176.060684 -67.280869 142.738586
v -173.539841 -66.420273 142.247467
v -171.992569 -64.188660 141.934021
v -172.467072 -61.423645 141.238586
v -173.578674 -59.198708 142.318420
v -175.343124 -58.348598 144.099548
v -177.086456 -59.198025 145.901672
v -178.142822 -61.422543 147.036438
v -178.108734 -64.172455 147.070374
v -176.997147 -66.397392 145.990570
v -175.232697 -67.247505 144.209412
v -173.489334 -66.398071 142.407288
v -172.432968 -64.173561 141.272583
v -173.074097 -61.407753 140.821381
v -173.375275 -59.176022 142.373199
v -173.846313 -58.315239 144.901367
v -174.307312 -59.154194 147.440155
v -174.582214 -61.372437 149.019897
v -174.565979 -64.122665 149.037170
v -174.264816 -66.354401 147.485352
v -173.793793 -67.215179 144.957153
v -173.332764 -66.376228 142.418365
v -173.057877 -64.157990 140.838654
v 30.013567 137.367447 140.910767
v 27.788370 135.750748 140.910767
v 25.037876 135.750748 140.910767
v 22.812679 137.367447 140.910767
v 21.962730 139.983322 140.910767
v 22.812681 142.599197 140.910767
v 25.037878 144.215897 140.910767
v 27.788372 144.215897 140.910767
v 30.013567 142.599197 140.910767
v 30.863516 139.983322 140.910767
v 30.013567 137.367447 -53.146240
v 27.788370 135.750748 -53.146240
v 25.037876 135.750748 -53.146240
v 22.812679 137.367447 -53.146240
v 21.962730 139.983322 -53.146240
v 22.812681 142.599197 -53.146240
v 25.037878 144.215897 -53.146240
v 27.788372 144.215897 -53.146240
v 30.013567 142.599197 -53.146240
v 30.863516 139.983322 -53.146240
v 30.096394 -58.306244 142.461945
v 27.871197 -58.306244 140.845245
v 25.120703 -58.306244 140.845245
v 22.895508 -58.306244 142.461945
v 22.045559 -58.306244 145.077881
v 22.895508 -58.306244 147.693665
v 25.120705 -58.306244 149.310394
v 27.871197 -58.306244 149.310394
v 30.096394 -58.306244 147.693665
v 30.946342 -58.306244 145.077881
v 30.096394 135.750748 142.461945
v 27.871197 135.750748 140.845245
v 25.120703 135.750748 140.845245
v 22.895508 135.750748 142.461945
v 22.045559 135.750748 145.077820
v 22.895508 135.750748 147.693695
v 25.120705 135.750748 149.310394
v 27.871197 135.750748 149.310394
v 30.096394 135.750748 147.693695
v 30.946342 135.750748 145.077820
v 30.013567 135.754608 -54.762939
v 27.788370 135.754608 -53.146240
v 25.037876 135.754608 -53.146240
v 22.812679 135.754608 -54.763000
v 21.962730 135.754608 -57.378845
v 22.812681 135.754608 -59.994751
v 25.037878 135.754608 -61.611450
v 27.788372 135.754608 -61.611450
v 30.013567 135.754608 -59.994690
v 30.863516 135.754608 -57.378845
v 30.013567 -58.302383 -54.762939
v 27.788370 -58.302383 -53.146240
v 25.037876 -58.302383 -53.146240
v 22.812679 -58.302383 -54.763000
v 21.962730 -58.302383 -57.378845
v 22.812681 -58.302383 -59.994751
v 25.037878 -58.302383 -61.611450
v 27.788372 -58.302383 -61.611450
v 30.013567 -58.302383 -59.994690
v 30.863516 -58.302383 -57.378845
v 27.788370 135.736359 -54.195496
v 25.037876 135.736359 -54.195496
v 22.812679 137.300156 -54.489319
v 21.962730 139.830429 -54.964783
v 22.812681 142.360703 -55.440186
v 25.037878 143.924469 -55.734009
v 27.788372 143.924469 -55.734009
v 30.013567 142.360687 -55.440186
v 30.863516 139.830429 -54.964783
v 30.013567 137.300140 -54.489319
v 27.788370 136.167023 -53.564209
v 25.037876 136.167023 -53.564209
v 22.812679 137.263474 -54.659302
v 21.962730 139.037537 -56.431152
v 22.812681 140.811584 -58.203003
v 25.037878 141.908020 -59.297974
v 27.788372 141.908020 -59.297974
v 30.013567 140.811584 -58.202942
v 30.863516 139.037537 -56.431152
v 30.013567 137.263443 -54.659241
v 27.788370 136.801514 -53.132141
v 25.037876 136.801514 -53.132141
v 22.812679 137.096100 -54.695679
v 21.962730 137.572723 -57.225586
v 22.812681 138.049332 -59.755371
v 25.037878 138.343887 -61.318909
v 27.788372 138.343887 -61.318909
v 30.013567 138.049332 -59.755310
v 30.863516 137.572723 -57.225586
v 30.013567 137.096069 -54.695679
v 27.814165 135.749161 141.917938
v 30.032524 137.324417 142.205383
v 30.871670 139.855988 142.686584
v 30.011078 142.376801 143.177734
v 27.779465 143.924072 143.491211
v 25.029228 143.906799 143.507263
v 22.810867 142.331543 143.219818
v 21.971722 139.800003 142.738586
v 22.832314 137.279160 142.247467
v 25.063929 135.731888 141.934021
v 27.828941 136.206390 141.238586
v 30.053879 137.317993 142.318420
v 30.903988 139.082443 144.099548
v 30.054562 140.825775 145.901672
v 27.830044 141.882141 147.036438
v 25.080132 141.848053 147.070374
v 22.855194 140.736465 145.990570
v 22.005083 138.972015 144.209412
v 22.854511 137.228653 142.407288
v 25.079027 136.172287 141.272583
v 27.844831 136.813416 140.821381
v 30.076565 137.114594 142.373199
v 30.937347 137.585632 144.901367
v 30.098392 138.046631 147.440155
v 27.880152 138.321533 149.019897
v 25.129917 138.305298 149.037170
v 22.898186 138.004135 147.485352
v 22.037403 137.533112 144.957153
v 22.876358 137.072083 142.418365
v 25.094597 136.797195 140.838654
v 23.708044 -61.265457 140.845245
v 23.303116 -59.113266 142.461945
v 23.148445 -58.291203 145.077881
v 23.303116 -59.113266 147.693665
v 23.708044 -61.265457 149.310394
v 24.208567 -63.925705 149.310394
v 24.613497 -66.077896 147.693665
v 24.768166 -66.899963 145.077881
v 24.613497 -66.077896 142.461945
v 24.208567 -63.925705 140.845245
v 24.567913 -60.828598 140.845245
v 23.059753 -59.320438 142.461945
v 22.483685 -58.744373 145.077881
v 23.059753 -59.320438 147.693665
v 24.567913 -60.828598 149.310394
v 26.432110 -62.692795 149.310394
v 27.940273 -64.200958 147.693665
v 28.516338 -64.777031 145.077881
v 27.940273 -64.200958 142.461945
v 26.432110 -62.692795 140.845245
v 25.004772 -59.968731 140.845245
v 22.852581 -59.563797 142.461945
v 22.030521 -59.409130 145.077881
v 22.852581 -59.563797 147.693665
v 25.004772 -59.968731 149.310394
v 27.665024 -60.469250 149.310394
v 29.817211 -60.874180 147.693665
v 30.639277 -61.028854 145.077881
v 29.817211 -60.874180 142.461945
v 27.665024 -60.469250 140.845245
v 23.684937 -61.344318 -53.146240
v 24.210630 -63.995174 -53.146240
v 24.635927 -66.139763 -54.763000
v 24.798374 -66.958923 -57.378845
v 24.635925 -66.139755 -59.994751
v 24.210630 -63.995174 -61.611450
v 23.684937 -61.344315 -61.611450
v 23.259640 -59.199730 -59.994690
v 23.097191 -58.380566 -57.378845
v 23.259644 -59.199730 -54.762939
v 24.502480 -60.893272 -53.146240
v 26.413422 -62.709648 -53.146240
v 27.959408 -64.179131 -54.762939
v 28.549919 -64.740417 -57.378845
v 27.959400 -64.179131 -59.994751
v 26.413422 -62.709648 -61.611450
v 24.502476 -60.893272 -61.611450
v 22.956490 -59.423790 -59.994751
v 22.365978 -58.862495 -57.378845
v 22.956493 -59.423790 -54.762939
v 24.925985 -59.988010 -53.146240
v 27.595123 -60.463219 -53.146240
v 29.754505 -60.847668 -54.762939
v 30.579311 -60.994514 -57.378845
v 29.754501 -60.847668 -59.994690
v 27.595125 -60.463219 -61.611450
v 24.925985 -59.988014 -61.611450
v 22.766607 -59.603561 -59.994751
v 21.941797 -59.456715 -57.378845
v 22.766609 -59.603561 -54.763000
v 23.087605 -63.375736 147.044250
v -172.305603 -61.549335 148.906006
v 23.087605 136.964981 147.044250
v 23.087608 -63.375736 -60.163269
v -172.305603 -61.549335 -58.301514
v 23.087608 136.964981 -60.163269
vt 0.334531 0.015037
vt 0.338936 0.015037
vt 0.338936 0.316833
vt 0.334531 0.316833
vt 0.334480 0.013446
vt 0.338810 0.012958
vt 0.342966 0.015037
vt 0.342966 0.316833
vt 0.338857 0.318922
vt 0.334514 0.318465
vt 0.331434 0.015037
vt 0.331434 0.316833
vt 0.331403 0.013471
vt 0.342741 0.012194
vt 0.342787 0.319661
vt 0.331417 0.318465
vt 0.338726 0.012710
vt 0.341731 0.009907
vt 0.341855 0.321942
vt 0.338814 0.319186
vt 0.338517 0.012692
vt 0.340004 0.008744
vt 0.340134 0.323177
vt 0.338617 0.319243
vt 0.336943 0.012625
vt 0.337900 0.008556
vt 0.342847 0.007137
vt 0.339588 0.004812
vt 0.342983 0.324697
vt 0.339737 0.327112
vt 0.337998 0.323416
vt 0.337041 0.319348
vt 0.011018 0.012625
vt 0.011975 0.008556
vt 0.336943 0.004488
vt 0.337041 0.327484
vt 0.012073 0.323416
vt 0.011116 0.319348
vt 0.006964 0.008556
vt 0.011018 0.004488
vt 0.011116 0.327484
vt 0.007062 0.323416
vt 0.008512 0.015139
vt 0.008610 0.316833
vt 0.005416 0.015139
vt 0.008512 0.001974
vt 0.008610 0.329998
vt 0.005513 0.316833
vt 0.002910 0.012625
vt 0.005416 0.001974
vt 0.005513 0.329998
vt 0.003008 0.319347
vt 0.001953 0.008556
vt 0.002910 0.004488
vt 0.003008 0.327484
vt 0.002051 0.323416
vt 0.330622 0.335316
vt 0.330623 0.339520
vt 0.015235 0.339610
vt 0.015234 0.335405
vt 0.334816 0.335632
vt 0.334307 0.339766
vt 0.330624 0.343367
vt 0.015236 0.343456
vt 0.011507 0.339878
vt 0.011028 0.335733
vt 0.330621 0.332360
vt 0.015233 0.332450
vt 0.334841 0.332696
vt 0.340578 0.337975
vt 0.338735 0.341551
vt 0.333510 0.343518
vt 0.012280 0.343629
vt 0.007017 0.341617
vt 0.005236 0.337996
vt 0.011027 0.332778
vt 0.340633 0.335058
vt 0.343803 0.342021
vt 0.341236 0.344714
vt 0.335807 0.344419
vt 0.009898 0.344518
vt 0.004495 0.344715
vt 0.001953 0.341994
vt 0.005236 0.335040
vt 0.337111 0.346133
vt 0.008607 0.346162
vt 0.341649 0.347286
vt 0.337398 0.348201
vt 0.332913 0.345485
vt 0.333002 0.345738
vt 0.012778 0.345594
vt 0.012718 0.345782
vt 0.008358 0.348200
vt 0.004107 0.347288
vt 0.341737 0.658362
vt 0.337486 0.659277
vt 0.333146 0.347288
vt 0.012610 0.347286
vt 0.008447 0.659277
vt 0.004195 0.658365
vt 0.333235 0.658365
vt 0.012698 0.658362
vt 0.703596 0.009454
vt 0.703597 0.005319
vt 0.982380 0.005347
vt 0.982379 0.009482
vt 0.702149 0.009492
vt 0.702127 0.005358
vt 0.703597 0.001974
vt 0.982380 0.002002
vt 0.983887 0.005347
vt 0.983887 0.009482
vt 0.703596 0.012799
vt 0.982379 0.012827
vt 0.701736 0.012827
vt 0.701677 0.002003
vt 0.984310 0.002002
vt 0.984308 0.012827
vt 0.988508 0.282426
vt 0.988509 0.286569
vt 0.709164 0.286628
vt 0.709163 0.282485
vt 0.992246 0.282412
vt 0.992223 0.286555
vt 0.988510 0.289921
vt 0.709164 0.289980
vt 0.705439 0.286629
vt 0.705438 0.282486
vt 0.988507 0.279074
vt 0.709162 0.279133
vt 0.991831 0.279071
vt 0.997375 0.282488
vt 0.997327 0.286630
vt 0.991773 0.289916
vt 0.705862 0.289980
vt 0.700308 0.286630
vt 0.700307 0.282487
vt 0.705860 0.279134
vt 0.995820 0.279137
vt 0.995694 0.289981
vt 0.701885 0.289981
vt 0.701883 0.279135
vt 0.317957 0.674869
vt 0.322146 0.674869
vt 0.322146 0.971817
vt 0.317957 0.971817
vt 0.317816 0.672823
vt 0.321852 0.672072
vt 0.326334 0.674869
vt 0.326334 0.971817
vt 0.321901 0.974600
vt 0.317849 0.973872
vt 0.315368 0.674869
vt 0.315368 0.971817
vt 0.315338 0.673303
vt 0.317735 0.672579
vt 0.320526 0.669821
vt 0.325906 0.671335
vt 0.328923 0.674869
vt 0.328923 0.971817
vt 0.325952 0.975327
vt 0.320631 0.976843
vt 0.317791 0.974132
vt 0.315345 0.973422
vt 0.317484 0.672562
vt 0.318222 0.668677
vt 0.323351 0.667095
vt 0.328428 0.670895
vt 0.328456 0.975777
vt 0.323472 0.979555
vt 0.318286 0.978059
vt 0.317522 0.974188
vt 0.315368 0.672495
vt 0.315368 0.668492
vt 0.318976 0.664808
vt 0.325131 0.665443
vt 0.325227 0.981230
vt 0.319049 0.981930
vt 0.315375 0.978294
vt 0.315375 0.974291
vt 0.004646 0.672495
vt 0.004646 0.668492
vt 0.315368 0.664489
vt 0.319459 0.662433
vt 0.319520 0.984323
vt 0.315375 0.982297
vt 0.004652 0.978294
vt 0.004652 0.974291
vt 0.002632 0.672495
vt 0.002880 0.668492
vt 0.004646 0.664489
vt 0.004646 0.674969
vt 0.315368 0.674969
vt 0.315368 0.662015
vt 0.315375 0.984770
vt 0.004652 0.982297
vt 0.002804 0.978294
vt 0.002569 0.974291
vt 0.315375 0.971817
vt 0.004652 0.971817
vt 0.002632 0.664489
vt 0.001984 0.674969
vt 0.004646 0.662015
vt 0.004652 0.984770
vt 0.002569 0.982297
vt 0.001953 0.971817
vt 0.001984 0.662015
vt 0.001953 0.984770
vt 0.338631 0.673745
vt 0.342779 0.673745
vt 0.342779 0.967810
vt 0.338631 0.967810
vt 0.338984 0.670310
vt 0.342981 0.671054
vt 0.346927 0.673745
vt 0.346927 0.967810
vt 0.343021 0.970566
vt 0.339009 0.971286
vt 0.336068 0.673745
vt 0.336068 0.967810
vt 0.336530 0.669835
vt 0.341443 0.666182
vt 0.344207 0.668913
vt 0.346995 0.671783
vt 0.349490 0.673745
vt 0.349490 0.967810
vt 0.347034 0.969845
vt 0.344279 0.972788
vt 0.341465 0.975473
vt 0.336530 0.971731
vt 0.339768 0.664463
vt 0.345850 0.663851
vt 0.346581 0.667698
vt 0.347005 0.671612
vt 0.349493 0.672219
vt 0.349513 0.969400
vt 0.347092 0.970103
vt 0.346601 0.973992
vt 0.345846 0.977825
vt 0.339727 0.977132
vt 0.345414 0.661457
vt 0.349490 0.663467
vt 0.349490 0.667431
vt 0.347328 0.671529
vt 0.347357 0.970158
vt 0.349484 0.974224
vt 0.349484 0.978188
vt 0.345378 0.980195
vt 0.349490 0.661017
vt 0.657195 0.663467
vt 0.657195 0.667431
vt 0.349490 0.671395
vt 0.349484 0.970260
vt 0.657189 0.974224
vt 0.657189 0.978188
vt 0.349484 0.980638
vt 0.657195 0.661017
vt 0.661267 0.663467
vt 0.661512 0.667431
vt 0.657195 0.671395
vt 0.657189 0.970260
vt 0.661458 0.974224
vt 0.661225 0.978188
vt 0.657189 0.980638
vt 0.660625 0.661017
vt 0.666542 0.663467
vt 0.667456 0.667431
vt 0.661267 0.671395
vt 0.657195 0.673844
vt 0.349490 0.673844
vt 0.661225 0.970260
vt 0.667398 0.974224
vt 0.666508 0.978188
vt 0.660616 0.980638
vt 0.664151 0.661017
vt 0.666542 0.671395
vt 0.660625 0.673844
vt 0.666508 0.970260
vt 0.660616 0.967810
vt 0.657189 0.967810
vt 0.664178 0.980638
vt 0.664151 0.673844
vt 0.664178 0.967810
vt 0.982328 0.019084
vt 0.982328 0.023041
vt 0.713081 0.023041
vt 0.713081 0.019084
vt 0.984124 0.019108
vt 0.983725 0.023015
vt 0.711625 0.023055
vt 0.711218 0.019152
vt 0.982328 0.015566
vt 0.713081 0.015566
vt 0.984792 0.015685
vt 0.710558 0.015719
vt 0.986752 0.016428
vt 0.984281 0.019092
vt 0.710982 0.019189
vt 0.708523 0.016516
vt 0.307986 0.016371
vt 0.307986 0.019899
vt 0.037973 0.019941
vt 0.037972 0.016412
vt 0.310529 0.016195
vt 0.311199 0.019627
vt 0.307987 0.023867
vt 0.037973 0.023909
vt 0.034781 0.019701
vt 0.035442 0.016259
vt 0.312575 0.015396
vt 0.315054 0.018067
vt 0.311599 0.023546
vt 0.034373 0.023616
vt 0.030936 0.018141
vt 0.033401 0.015460
vt 0.316557 0.021525
vt 0.029413 0.021585
vt 0.317133 0.015359
vt 0.319293 0.018008
vt 0.026601 0.017995
vt 0.028776 0.015359
vt 0.992412 0.019730
vt 0.996738 0.019618
vt 0.996771 0.019431
vt 0.992836 0.020906
vt 0.989234 0.019431
vt 0.989642 0.020576
vt 0.986763 0.680762
vt 0.990859 0.680762
vt 0.990859 0.971156
vt 0.986763 0.971156
vt 0.986625 0.678761
vt 0.990572 0.678026
vt 0.994955 0.680762
vt 0.994955 0.971156
vt 0.990620 0.973878
vt 0.986658 0.973166
vt 0.986546 0.678522
vt 0.989276 0.675825
vt 0.994536 0.677306
vt 0.994582 0.974589
vt 0.989378 0.976072
vt 0.986600 0.973421
vt 0.986301 0.678506
vt 0.987023 0.674707
vt 0.992039 0.673160
vt 0.992156 0.978723
vt 0.987085 0.977261
vt 0.986338 0.973475
vt 0.984232 0.678440
vt 0.984232 0.674526
vt 0.987760 0.670923
vt 0.987831 0.981046
vt 0.984238 0.977490
vt 0.984238 0.973576
vt 0.985870 0.680870
vt 0.984232 0.680860
vt 0.680367 0.678440
vt 0.680367 0.674526
vt 0.984232 0.670611
vt 0.993779 0.671544
vt 0.988232 0.668601
vt 0.993873 0.980362
vt 0.988292 0.983386
vt 0.984238 0.981405
vt 0.680373 0.977490
vt 0.680373 0.973576
vt 0.985877 0.971135
vt 0.984238 0.971156
vt 0.680367 0.680860
vt 0.676346 0.678440
vt 0.676104 0.674526
vt 0.680367 0.670612
vt 0.984232 0.668192
vt 0.984238 0.983824
vt 0.680373 0.981405
vt 0.676057 0.977490
vt 0.676311 0.973576
vt 0.680373 0.971156
vt 0.676980 0.680860
vt 0.671137 0.678440
vt 0.670235 0.674526
vt 0.676346 0.670612
vt 0.680367 0.668192
vt 0.680373 0.983824
vt 0.676311 0.981405
vt 0.670182 0.977490
vt 0.671107 0.973576
vt 0.676977 0.971156
vt 0.673498 0.680860
vt 0.671137 0.670612
vt 0.676980 0.668192
vt 0.676977 0.983824
vt 0.671107 0.981405
vt 0.673528 0.971156
vt 0.673498 0.668192
vt 0.673528 0.983824
vt 0.681137 0.340352
vt 0.685229 0.340352
vt 0.685229 0.630489
vt 0.681137 0.630489
vt 0.681485 0.336962
vt 0.685429 0.337697
vt 0.689322 0.340352
vt 0.689322 0.630489
vt 0.685468 0.633208
vt 0.681510 0.633919
vt 0.683911 0.332890
vt 0.686639 0.335584
vt 0.689389 0.338416
vt 0.689427 0.632497
vt 0.686709 0.635400
vt 0.683933 0.638049
vt 0.688259 0.330590
vt 0.688980 0.334385
vt 0.689399 0.338247
vt 0.689484 0.632751
vt 0.689001 0.636588
vt 0.688255 0.640370
vt 0.682259 0.331193
vt 0.687829 0.328228
vt 0.691851 0.330211
vt 0.691851 0.334122
vt 0.689717 0.338165
vt 0.689746 0.632805
vt 0.691845 0.636817
vt 0.691845 0.640728
vt 0.682218 0.639686
vt 0.687794 0.642708
vt 0.691851 0.327793
vt 0.995446 0.330211
vt 0.995446 0.334122
vt 0.691851 0.338033
vt 0.691845 0.632906
vt 0.995440 0.636817
vt 0.995440 0.640728
vt 0.691845 0.643145
vt 0.995446 0.327793
vt 0.997413 0.330211
vt 0.997171 0.334122
vt 0.995446 0.338033
vt 0.690188 0.340485
vt 0.691851 0.340450
vt 0.690207 0.630468
vt 0.691845 0.630489
vt 0.995440 0.632906
vt 0.997091 0.636817
vt 0.997345 0.640728
vt 0.995440 0.643145
vt 0.998047 0.327793
vt 0.997413 0.338033
vt 0.995446 0.340450
vt 0.995440 0.630489
vt 0.997345 0.632906
vt 0.998011 0.643145
vt 0.998047 0.340450
vt 0.998011 0.630489
vt 0.064945 0.030506
vt 0.064946 0.026644
vt 0.325373 0.026680
vt 0.325373 0.030542
vt 0.063594 0.030542
vt 0.063573 0.026680
vt 0.326781 0.026680
vt 0.326781 0.030542
vt 0.726397 0.029711
vt 0.726397 0.025838
vt 0.987526 0.025850
vt 0.987526 0.029723
vt 0.722903 0.029723
vt 0.722925 0.025851
vt 0.991008 0.025850
vt 0.991008 0.029723
vt 0.718109 0.029651
vt 0.718154 0.025779
vt 0.995804 0.025851
vt 0.995804 0.029723
vt 0.012908 0.289732
vt 0.015359 0.015343
vt 0.281774 0.289732
vt 0.693461 0.617557
vt 0.695912 0.343168
vt 0.962327 0.617557
vt 0.938603 0.936556
vt 0.938752 0.939827
vt 0.531292 0.939827
vt 0.531144 0.936556
vt 0.938935 0.943871
vt 0.531476 0.943871
vt 0.529733 0.939866
vt 0.529142 0.936585
vt 0.939083 0.947142
vt 0.531624 0.947143
vt 0.529940 0.943910
vt 0.529684 0.947171
vt 0.566114 0.920492
vt 0.566262 0.917220
vt 0.973718 0.917220
vt 0.973569 0.920492
vt 0.566445 0.913177
vt 0.973901 0.913177
vt 0.977471 0.917207
vt 0.976879 0.920488
vt 0.566593 0.909905
vt 0.974049 0.909905
vt 0.977678 0.913163
vt 0.977422 0.909902
vt 0.982904 0.913237
vt 0.982671 0.917280
vt 0.574931 0.960468
vt 0.575079 0.957196
vt 0.982538 0.957196
vt 0.982390 0.960468
vt 0.572960 0.960468
vt 0.573541 0.957197
vt 0.575262 0.953153
vt 0.982721 0.953153
vt 0.573725 0.953153
vt 0.575411 0.949881
vt 0.982870 0.949881
vt 0.573440 0.949881
vt 0.759961 0.923230
vt 0.760109 0.926502
vt 0.352648 0.926502
vt 0.352500 0.923231
vt 0.763331 0.923230
vt 0.763912 0.926502
vt 0.760292 0.930546
vt 0.352831 0.930546
vt 0.764096 0.930546
vt 0.760441 0.933817
vt 0.352979 0.933817
vt 0.769148 0.926502
vt 0.769331 0.930546
vt 0.763811 0.933817
vt 0.052081 0.027351
vt 0.056579 0.027351
vt 0.056626 0.028389
vt 0.052128 0.028389
vt 0.052049 0.026646
vt 0.056547 0.026646
vt 0.060300 0.029146
vt 0.060287 0.028872
vt 0.048523 0.029146
vt 0.048510 0.028872
vt 0.746296 0.032451
vt 0.750603 0.032451
vt 0.750596 0.033403
vt 0.746288 0.033431
vt 0.754031 0.034152
vt 0.754077 0.033833
vt 0.742756 0.034152
vt 0.742799 0.033906
vt 0.794208 0.716599
vt 0.797020 0.713946
vt 0.975869 0.903508
vt 0.973058 0.906160
vt 0.792558 0.715087
vt 0.794815 0.712032
vt 0.976860 0.904505
vt 0.974064 0.907173
vt 0.791318 0.714668
vt 0.791506 0.711049
vt 0.790731 0.717558
vt 0.791167 0.717596
vt 0.790037 0.715071
vt 0.788097 0.711989
vt 0.788231 0.716561
vt 0.785696 0.713874
vt 0.589877 0.903706
vt 0.587342 0.901020
vt 0.588831 0.904741
vt 0.586280 0.902070
vt 0.583915 0.900181
vt 0.585291 0.898846
vt 0.590594 0.907173
vt 0.591927 0.905880
vt 0.786057 0.698953
vt 0.788611 0.701625
vt 0.591336 0.890199
vt 0.588782 0.887527
vt 0.788447 0.697051
vt 0.790409 0.700122
vt 0.588731 0.892706
vt 0.586193 0.890018
vt 0.791853 0.696088
vt 0.791689 0.699711
vt 0.585065 0.896117
vt 0.582546 0.893413
vt 0.795171 0.697050
vt 0.792931 0.700122
vt 0.791996 0.702606
vt 0.791556 0.702641
vt 0.797389 0.698951
vt 0.794593 0.701624
vt 0.977604 0.887481
vt 0.974808 0.890154
vt 0.980001 0.889970
vt 0.977190 0.892627
vt 0.983257 0.893478
vt 0.980429 0.896117
vt 0.754267 0.684653
vt 0.757171 0.687391
vt 0.572600 0.883171
vt 0.569697 0.880433
vt 0.755263 0.683597
vt 0.758167 0.686335
vt 0.570306 0.885140
vt 0.006061 0.024017
vt 0.566854 0.886083
vt 0.566754 0.882348
vt 0.563358 0.885040
vt 0.565395 0.881874
vt 0.009794 0.024017
vt 0.009969 0.023531
vt 0.560893 0.883084
vt 0.563509 0.880309
vt 0.356032 0.689952
vt 0.358648 0.687177
vt 0.354927 0.688910
vt 0.357543 0.686135
vt 0.353916 0.692197
vt 0.558777 0.885329
vt 0.359348 0.683597
vt 0.360765 0.684932
vt 0.352500 0.690862
vt 0.361492 0.711115
vt 0.364047 0.708443
vt 0.561276 0.897083
vt 0.558721 0.899754
vt 0.358861 0.708598
vt 0.361416 0.705926
vt 0.563058 0.898564
vt 0.561129 0.901649
vt 0.355238 0.705133
vt 0.357793 0.702461
vt 0.564308 0.898920
vt 0.564562 0.902542
vt 0.564618 0.896067
vt 0.564102 0.895990
vt 0.565579 0.898453
vt 0.567850 0.901509
vt 0.567259 0.896924
vt 0.570054 0.899598
vt 0.747536 0.708438
vt 0.750332 0.711112
vt 0.749941 0.705923
vt 0.752737 0.708597
vt 0.753253 0.702461
vt 0.756048 0.705135
vt 0.059465 0.620552
vt 0.061916 0.346162
vt 0.328331 0.620552
vt 0.682506 0.276343
vt 0.684957 0.001953
vt 0.951372 0.276343
vt 0.677894 0.331056
vt 0.677894 0.658278
vt 0.347022 0.658278
vt 0.347022 0.331056
vt 0.828751 0.033193
vt 0.824916 0.033448
vt 0.825164 0.032449
vt 0.828761 0.033448
vt 0.678786 0.001974
vt 0.678786 0.328317
vt 0.347022 0.328317
vt 0.347022 0.001974
vt 0.047963 0.032279
vt 0.052365 0.032279
vt 0.052365 0.033336
vt 0.047963 0.033336
vt 0.055926 0.031787
vt 0.055926 0.031502
vt 0.052365 0.034059
vt 0.047963 0.034059
vt 0.044402 0.031787
vt 0.044402 0.031502
vt 0.041395 0.027357
vt 0.044924 0.026832
vt 0.044956 0.026643
vt 0.041433 0.028489
vt 0.037011 0.027386
vt 0.037049 0.028489
vt 0.041467 0.029185
vt 0.037084 0.029213
vt 0.033448 0.026910
vt 0.033479 0.026643
vt 0.731255 0.033226
vt 0.735656 0.033226
vt 0.735656 0.034283
vt 0.731255 0.034283
vt 0.739217 0.032734
vt 0.739217 0.032450
vt 0.735656 0.035007
vt 0.731255 0.035007
vt 0.727694 0.032734
vt 0.727694 0.032450
vt 0.987913 0.002044
vt 0.994029 0.002409
vt 0.994116 0.001965
vt 0.988939 0.005105
vt 0.987865 0.001965
vt 0.988846 0.004942
vt 0.990777 0.007292
vt 0.990733 0.007210
vt 0.001953 0.019288
vt 0.006247 0.017876
vt 0.006247 0.018655
vt 0.001953 0.019644
vt 0.010540 0.019288
vt 0.010540 0.019644
vt 0.006247 0.019796
vt 0.001953 0.020062
vt 0.010540 0.020062
vt 0.322374 0.019368
vt 0.326482 0.019727
vt 0.326188 0.019368
vt 0.323415 0.020638
vt 0.326482 0.016271
vt 0.322374 0.016631
vt 0.323415 0.015360
vt 0.326188 0.016631
vt 0.987865 0.011462
vt 0.992280 0.010015
vt 0.992280 0.010866
vt 0.987865 0.011857
vt 0.996696 0.011462
vt 0.996696 0.011857
vt 0.992280 0.011915
vt 0.987865 0.012175
vt 0.996696 0.012175
vt 0.692091 0.001973
vt 0.696136 0.002236
vt 0.695917 0.001973
vt 0.693194 0.003294
vt 0.996017 0.015936
vt 0.991973 0.016198
vt 0.993075 0.014877
vt 0.995798 0.016198
vt 0.818069 0.032453
vt 0.821888 0.032709
vt 0.821896 0.032453
vt 0.818335 0.033459
vt 0.808192 0.033253
vt 0.804376 0.033502
vt 0.804623 0.032450
vt 0.808164 0.033502
vt 0.002499 0.030123
vt 0.007629 0.030884
vt 0.007675 0.030820
vt 0.001953 0.030884
vt 0.763493 0.032451
vt 0.758365 0.033212
vt 0.757819 0.032451
vt 0.763539 0.032516
vt 0.002451 0.026626
vt 0.007587 0.027386
vt 0.007695 0.027315
vt 0.001953 0.027386
vt 0.773201 0.032452
vt 0.767990 0.033197
vt 0.767404 0.032452
vt 0.773179 0.032498
vt 0.784222 0.032447
vt 0.786760 0.033841
vt 0.786727 0.033516
vt 0.783836 0.033841
vt 0.793606 0.032452
vt 0.791069 0.033845
vt 0.790683 0.032452
vt 0.793573 0.032776
vt 0.779865 0.033584
vt 0.776989 0.033903
vt 0.777357 0.032448
vt 0.779874 0.033903
vt 0.811557 0.032444
vt 0.814141 0.033801
vt 0.814106 0.033399
vt 0.811222 0.033801
vt 0.800503 0.032452
vt 0.797959 0.033816
vt 0.797529 0.032452
vt 0.800440 0.032745
vt 0.568007 0.881972
vt 0.006374 0.022774
vn 0.000000 0.009528 0.999955
vn 0.000000 0.009528 0.999955
vn 0.000000 0.009528 0.999955
vn 0.000000 0.009528 0.999955
vn 0.000000 0.009528 0.999955
vn 0.000000 0.009528 0.999955
vn 0.722962 -0.690888 0.000000
vn 0.722962 -0.690888 0.000000
vn 0.722962 -0.690888 0.000000
vn 0.722962 -0.690888 0.000000
vn -0.135363 -0.990796 0.000000
vn -0.135363 -0.990796 0.000000
vn -0.135363 -0.990796 0.000000
vn -0.135363 -0.990796 0.000000
vn -0.691889 -0.722004 0.000000
vn -0.691889 -0.722004 0.000000
vn -0.691889 -0.722004 0.000000
vn -0.691889 -0.722004 0.000000
vn -0.984132 -0.177436 0.000000
vn -0.984132 -0.177436 0.000000
vn -0.984132 -0.177436 0.000000
vn -0.984132 -0.177436 0.000000
vn -0.900473 0.434911 0.000000
vn -0.900473 0.434911 0.000000
vn -0.900473 0.434911 0.000000
vn -0.900473 0.434911 0.000000
vn -0.472860 0.881137 0.000000
vn -0.472860 0.881137 0.000000
vn -0.472860 0.881137 0.000000
vn -0.472860 0.881137 0.000000
vn 0.135363 0.990796 0.000000
vn 0.135363 0.990796 0.000000
vn 0.135363 0.990796 0.000000
vn 0.135363 0.990796 0.000000
vn 0.691883 0.722010 0.000000
vn 0.691883 0.722010 0.000000
vn 0.691883 0.722010 0.000000
vn 0.691883 0.722010 0.000000
vn 0.984132 0.177436 0.000000
vn 0.984132 0.177436 0.000000
vn 0.984132 0.177436 0.000000
vn 0.984132 0.177436 0.000000
vn 0.900472 -0.434913 0.000000
vn 0.900472 -0.434913 0.000000
vn 0.900472 -0.434913 0.000000
vn 0.900472 -0.434913 0.000000
vn 0.472870 -0.881132 0.000000
vn 0.472870 -0.881132 0.000000
vn 0.472870 -0.881132 0.000000
vn 0.472870 -0.881132 0.000000
vn 0.424381 -0.406681 -0.809019
vn 0.424381 -0.406681 -0.809019
vn 0.424381 -0.406681 -0.809019
vn 0.424381 -0.406681 -0.809019
vn 0.000000 0.000000 -1.000000
vn 0.000000 0.000000 -1.000000
vn 0.000000 0.000000 -1.000000
vn 0.000000 0.000000 -1.000000
vn -0.424384 0.406681 -0.809017
vn -0.424384 0.406681 -0.809017
vn -0.424384 0.406681 -0.809017
vn -0.424384 0.406681 -0.809017
vn -0.686670 0.658023 -0.309016
vn -0.686670 0.658023 -0.309016
vn -0.686670 0.658023 -0.309016
vn -0.686670 0.658023 -0.309016
vn -0.686670 0.658023 0.309016
vn -0.686670 0.658023 0.309016
vn -0.686670 0.658023 0.309016
vn -0.686670 0.658023 0.309016
vn -0.424386 0.406681 0.809017
vn -0.424386 0.406681 0.809017
vn -0.424386 0.406681 0.809017
vn -0.424386 0.406681 0.809017
vn 0.000000 0.000000 1.000000
vn 0.000000 0.000000 1.000000
vn 0.000000 0.000000 1.000000
vn 0.000000 0.000000 1.000000
vn 0.424387 -0.406680 0.809016
vn 0.424387 -0.406680 0.809016
vn 0.424387 -0.406680 0.809016
vn 0.424387 -0.406680 0.809016
vn 0.686667 -0.658025 0.309016
vn 0.686667 -0.658025 0.309016
vn 0.686667 -0.658025 0.309016
vn 0.686667 -0.658025 0.309016
vn 0.686671 -0.658022 -0.309015
vn 0.686671 -0.658022 -0.309015
vn 0.686671 -0.658022 -0.309015
vn 0.686671 -0.658022 -0.309015
vn -0.691888 -0.722004 -0.000002
vn -0.691886 -0.722007 -0.000003
vn -0.691886 -0.722007 0.000000
vn -0.691885 -0.722008 -0.000001
vn -0.691884 -0.722009 0.000000
vn -0.691889 -0.722004 0.000000
vn -0.691884 -0.722008 0.000000
vn -0.691884 -0.722008 0.000001
vn -0.691888 -0.722005 0.000002
vn -0.691886 -0.722006 0.000003
vn -0.691886 -0.722006 0.000000
vn 0.424385 -0.406682 0.809016
vn 0.424385 -0.406682 0.809016
vn 0.424385 -0.406682 0.809016
vn 0.424385 -0.406682 0.809016
vn 0.000000 0.000000 1.000000
vn 0.000000 0.000000 1.000000
vn 0.000000 0.000000 1.000000
vn 0.000000 0.000000 1.000000
vn -0.424397 0.406691 0.809006
vn -0.424397 0.406691 0.809006
vn -0.424397 0.406691 0.809006
vn -0.424397 0.406691 0.809005
vn -0.686668 0.658022 0.309022
vn -0.686668 0.658022 0.309022
vn -0.686668 0.658022 0.309022
vn -0.686668 0.658022 0.309022
vn -0.686669 0.658024 -0.309016
vn -0.686669 0.658024 -0.309016
vn -0.686669 0.658024 -0.309016
vn -0.686669 0.658024 -0.309016
vn -0.424385 0.406681 -0.809017
vn -0.424385 0.406681 -0.809017
vn -0.424385 0.406681 -0.809017
vn -0.424385 0.406681 -0.809017
vn 0.000000 0.000000 -1.000000
vn 0.000000 0.000000 -1.000000
vn 0.000000 0.000000 -1.000000
vn 0.000000 0.000000 -1.000000
vn 0.424396 -0.406691 -0.809005
vn 0.424396 -0.406691 -0.809006
vn 0.424396 -0.406691 -0.809005
vn 0.424396 -0.406691 -0.809006
vn 0.686668 -0.658022 -0.309020
vn 0.686668 -0.658023 -0.309020
vn 0.686668 -0.658022 -0.309020
vn 0.686668 -0.658023 -0.309020
vn 0.686669 -0.658024 0.309014
vn 0.686669 -0.658024 0.309014
vn 0.686669 -0.658024 0.309014
vn 0.686669 -0.658024 0.309014
vn -0.691885 -0.722008 0.000000
vn -0.691887 -0.722006 -0.000001
vn -0.691886 -0.722007 0.000000
vn -0.691887 -0.722006 -0.000003
vn -0.691886 -0.722007 -0.000000
vn -0.691885 -0.722008 0.000001
vn -0.691885 -0.722008 0.000001
vn -0.691887 -0.722006 0.000002
vn -0.691883 -0.722010 0.000000
vn -0.691884 -0.722009 -0.000001
vn -0.691887 -0.722006 0.000000
vn 0.492498 0.513940 0.702361
vn 0.492498 0.513941 0.702361
vn -0.009318 -0.009723 0.999909
vn -0.009318 -0.009723 0.999909
vn -0.342047 0.460096 0.819339
vn -0.303146 0.487823 0.818615
vn -0.439663 0.382961 0.812427
vn -0.439663 0.382961 0.812427
vn -0.730873 0.609821 0.306500
vn -0.729312 0.611539 0.306796
vn -0.700898 0.641509 0.311782
vn -0.700898 0.641509 0.311782
vn -0.614161 0.730133 -0.299520
vn -0.620810 0.723846 -0.301068
vn -0.665307 0.678682 -0.311059
vn -0.665307 0.678682 -0.311059
vn -0.216921 0.605856 -0.765431
vn -0.227758 0.596492 -0.769626
vn -0.360066 0.466884 -0.807696
vn -0.360066 0.466884 -0.807696
vn 0.243485 0.254087 -0.936032
vn 0.243486 0.254087 -0.936031
vn 0.077676 0.081058 -0.993678
vn 0.077676 0.081058 -0.993678
vn 0.605659 -0.202164 -0.769615
vn 0.614554 -0.190936 -0.765420
vn 0.481803 -0.339870 -0.807685
vn 0.481803 -0.339870 -0.807685
vn 0.749627 -0.589419 -0.301074
vn 0.755625 -0.582508 -0.299525
vn 0.706395 -0.635800 -0.311070
vn 0.706395 -0.635800 -0.311070
vn 0.642044 -0.702606 0.306798
vn 0.640390 -0.704243 0.306501
vn 0.670778 -0.672940 0.311783
vn 0.670778 -0.672940 0.311783
vn 0.500271 -0.282125 0.818618
vn 0.474246 -0.322137 0.819341
vn 0.401344 -0.422937 0.812433
vn 0.401344 -0.422937 0.812433
vn -0.691822 -0.721938 0.013719
vn -0.691822 -0.721938 0.013719
vn -0.490239 -0.511570 -0.705664
vn -0.490241 -0.511572 -0.705662
vn -0.982611 -0.183594 0.027736
vn -0.982611 -0.183593 0.027736
vn -0.968350 -0.206025 -0.140897
vn -0.975155 -0.200393 -0.094427
vn -0.901551 0.432128 0.021712
vn -0.901551 0.432128 0.021712
vn -0.897977 0.435523 0.062910
vn -0.897732 0.435690 0.065202
vn -0.470642 0.881828 -0.029599
vn -0.470642 0.881828 -0.029599
vn -0.476879 0.874047 -0.092891
vn -0.477617 0.872627 -0.101997
vn 0.137903 0.986558 -0.087673
vn 0.137903 0.986558 -0.087673
vn 0.115896 0.955134 -0.272557
vn 0.113977 0.951192 -0.286779
vn 0.687538 0.717473 -0.111908
vn 0.687538 0.717473 -0.111908
vn 0.647799 0.676002 -0.351252
vn 0.647799 0.676002 -0.351252
vn 0.979790 0.179788 -0.087681
vn 0.979790 0.179788 -0.087681
vn 0.945476 0.154375 -0.286781
vn 0.949333 0.156460 -0.272558
vn 0.901069 -0.432664 -0.029599
vn 0.901069 -0.432664 -0.029599
vn 0.892175 -0.440023 -0.102000
vn 0.893562 -0.439225 -0.092892
vn 0.470132 -0.882329 0.021709
vn 0.470132 -0.882329 0.021709
vn 0.473527 -0.878363 0.065200
vn 0.473371 -0.878614 0.062907
vn -0.141584 -0.989538 0.027726
vn -0.141584 -0.989538 0.027726
vn -0.158682 -0.982803 -0.094442
vn -0.164596 -0.976245 -0.140905
vn 0.488823 0.510106 -0.707704
vn 0.488822 0.510105 -0.707705
vn 0.804988 0.044143 -0.591646
vn 0.805002 0.044158 -0.591626
vn -0.839737 0.495054 0.223079
vn -0.839739 0.495052 0.223076
vn -0.528080 0.818708 -0.225495
vn -0.528084 0.818704 -0.225501
vn -0.012817 0.815118 -0.579154
vn -0.012832 0.815102 -0.579175
vn 0.489427 0.510734 -0.706833
vn 0.489426 0.510734 -0.706833
vn 0.814914 0.021880 -0.579168
vn 0.814928 0.021894 -0.579149
vn 0.840451 -0.492737 -0.225504
vn 0.840456 -0.492732 -0.225497
vn 0.530363 -0.817896 0.223073
vn 0.530369 -0.817890 0.223081
vn 0.009848 0.806156 -0.591621
vn 0.009832 0.806139 -0.591644
vn 0.469954 -0.322240 -0.821769
vn 0.482489 -0.302766 -0.821910
vn 0.400578 -0.420868 -0.813884
vn 0.400578 -0.420868 -0.813884
vn 0.645708 -0.696553 -0.312851
vn 0.648450 -0.693937 -0.312992
vn 0.673262 -0.669383 -0.314079
vn 0.673262 -0.669383 -0.314079
vn 0.761746 -0.577462 0.293735
vn 0.755180 -0.585000 0.295768
vn 0.709700 -0.633387 0.308458
vn 0.709700 -0.633387 0.308458
vn 0.617171 -0.192151 0.763006
vn 0.607920 -0.203775 0.767404
vn 0.484000 -0.340841 0.805960
vn 0.484000 -0.340841 0.805960
vn 0.242310 0.247931 0.937985
vn 0.241835 0.247438 0.938238
vn 0.077656 0.076993 0.994003
vn 0.077656 0.076993 0.994003
vn -0.232452 0.587985 0.774752
vn -0.222517 0.596535 0.771124
vn -0.362485 0.461669 0.809609
vn -0.362485 0.461669 0.809609
vn -0.627300 0.715573 0.307327
vn -0.621662 0.720857 0.306434
vn -0.668601 0.674322 0.313469
vn -0.668601 0.674322 0.313469
vn -0.735394 0.606909 -0.301424
vn -0.734111 0.608294 -0.301760
vn -0.703487 0.639892 -0.309266
vn -0.703487 0.639892 -0.309266
vn -0.276914 0.509220 -0.814871
vn -0.346350 0.460363 -0.817379
vn -0.441908 0.384197 -0.810623
vn -0.441908 0.384197 -0.810623
vn 0.489508 0.514118 -0.704318
vn 0.451569 0.474745 -0.755449
vn -0.012277 -0.008338 -0.999890
vn -0.012277 -0.008338 -0.999890
vn -0.139244 -0.989888 -0.027077
vn -0.139244 -0.989888 -0.027077
vn -0.167924 -0.959557 0.225949
vn -0.156339 -0.981171 0.113409
vn 0.472146 -0.881150 -0.025562
vn 0.472146 -0.881150 -0.025562
vn 0.478644 -0.874949 -0.073236
vn 0.478309 -0.875353 -0.070557
vn 0.902315 -0.430305 0.025794
vn 0.902315 -0.430305 0.025794
vn 0.896467 -0.434675 0.086050
vn 0.895402 -0.435152 0.094331
vn 0.979314 0.182582 0.087229
vn 0.979313 0.182582 0.087229
vn 0.948728 0.159864 0.272686
vn 0.945015 0.157904 0.286378
vn 0.685258 0.719117 0.115288
vn 0.685258 0.719117 0.115288
vn 0.643689 0.676504 0.357781
vn 0.643866 0.676687 0.357115
vn 0.135224 0.986395 0.093484
vn 0.135224 0.986395 0.093484
vn 0.108281 0.948456 0.297836
vn 0.110546 0.952900 0.282421
vn -0.472763 0.880483 0.035292
vn -0.472763 0.880483 0.035292
vn -0.483078 0.868115 0.114070
vn -0.481868 0.870111 0.103485
vn -0.902754 0.429763 -0.018394
vn -0.902754 0.429763 -0.018394
vn -0.900460 0.430820 -0.059717
vn -0.900800 0.430736 -0.055008
vn -0.982079 -0.186704 -0.025743
vn -0.982079 -0.186704 -0.025743
vn -0.972361 -0.205295 0.111214
vn -0.969099 -0.207886 0.132781
vn -0.689604 -0.724115 -0.010154
vn -0.689604 -0.724115 -0.010154
vn -0.403047 -0.422969 0.811573
vn -0.449248 -0.471498 0.758859
vn 0.038867 0.834924 0.548992
vn 0.042242 0.840124 0.540747
vn 0.547453 -0.799310 -0.247789
vn 0.543462 -0.803579 -0.242714
vn 0.845995 -0.486830 0.217458
vn 0.846285 -0.486521 0.217021
vn 0.815077 0.022031 0.578934
vn 0.815847 0.022866 0.577815
vn 0.485686 0.506731 0.712273
vn 0.486456 0.507565 0.711152
vn -0.019458 0.808037 0.588810
vn -0.019081 0.808439 0.588271
vn -0.536822 0.809360 0.238242
vn -0.536660 0.809530 0.238026
vn -0.847199 0.486964 -0.212414
vn -0.850688 0.483224 -0.206940
vn 0.804961 0.042739 0.591786
vn 0.810455 0.048829 0.583762
vn 0.493973 0.515698 0.700033
vn 0.498197 0.520285 0.693616
vn -0.719082 0.694925 0.000000
vn -0.719082 0.694925 0.000000
vn -0.719082 0.694925 0.000000
vn -0.719082 0.694925 0.000000
vn 0.809018 0.587783 0.000000
vn 0.809018 0.587783 0.000000
vn 0.809018 0.587783 0.000000
vn 0.809018 0.587783 0.000000
vn 1.000000 0.000000 0.000000
vn 1.000000 0.000000 0.000000
vn 1.000000 0.000000 0.000000
vn 1.000000 0.000000 0.000000
vn 0.809019 -0.587782 0.000000
vn 0.809019 -0.587782 0.000000
vn 0.809019 -0.587782 0.000000
vn 0.809019 -0.587782 0.000000
vn 0.309016 -0.951057 0.000000
vn 0.309016 -0.951057 0.000000
vn 0.309016 -0.951057 0.000000
vn 0.309016 -0.951057 0.000000
vn -0.309018 -0.951056 0.000000
vn -0.309018 -0.951056 0.000000
vn -0.309018 -0.951056 0.000000
vn -0.309018 -0.951056 0.000000
vn -0.809015 -0.587788 0.000000
vn -0.809015 -0.587788 0.000000
vn -0.809015 -0.587788 0.000000
vn -0.809015 -0.587788 0.000000
vn -1.000000 0.000000 0.000000
vn -1.000000 0.000000 0.000000
vn -1.000000 0.000000 0.000000
vn -1.000000 0.000000 0.000000
vn -0.809014 0.587789 0.000000
vn -0.809014 0.587789 0.000000
vn -0.809014 0.587789 0.000000
vn -0.809014 0.587789 0.000000
vn -0.309018 0.951056 0.000000
vn -0.309018 0.951056 0.000000
vn -0.309018 0.951056 0.000000
vn -0.309018 0.951056 0.000000
vn 0.309018 0.951056 0.000000
vn 0.309018 0.951056 0.000000
vn 0.309018 0.951056 0.000000
vn 0.309018 0.951056 0.000000
vn 0.000000 0.587785 -0.809018
vn 0.000000 0.587785 -0.809018
vn 0.000000 0.587785 -0.809018
vn 0.000000 0.587785 -0.809018
vn 0.000000 0.000000 -1.000000
vn 0.000000 0.000000 -1.000000
vn 0.000000 0.000000 -1.000000
vn 0.000000 0.000000 -1.000000
vn 0.000000 -0.587786 -0.809017
vn 0.000000 -0.587786 -0.809017
vn 0.000000 -0.587786 -0.809017
vn 0.000000 -0.587786 -0.809017
vn 0.000000 -0.951057 -0.309015
vn 0.000000 -0.951057 -0.309015
vn 0.000000 -0.951057 -0.309015
vn 0.000000 -0.951057 -0.309015
vn -0.000000 -0.951054 0.309023
vn -0.000000 -0.951055 0.309023
vn -0.000000 -0.951054 0.309023
vn -0.000000 -0.951054 0.309023
vn 0.000000 -0.587789 0.809014
vn 0.000000 -0.587789 0.809014
vn 0.000000 -0.587789 0.809014
vn 0.000000 -0.587789 0.809014
vn 0.000000 0.000000 1.000000
vn 0.000000 0.000000 1.000000
vn 0.000000 0.000000 1.000000
vn 0.000000 0.000000 1.000000
vn 0.000000 0.587788 0.809015
vn 0.000000 0.587788 0.809015
vn 0.000000 0.587788 0.809015
vn 0.000000 0.587788 0.809015
vn -0.000000 0.951055 0.309022
vn -0.000000 0.951055 0.309022
vn -0.000000 0.951055 0.309022
vn -0.000000 0.951055 0.309022
vn 0.000000 0.951058 -0.309014
vn 0.000000 0.951058 -0.309013
vn 0.000000 0.951058 -0.309013
vn 0.000000 0.951058 -0.309013
vn 0.000000 0.587785 0.809017
vn 0.000000 0.587785 0.809017
vn 0.000000 0.587785 0.809017
vn 0.000000 0.587785 0.809017
vn 0.000000 0.000000 1.000000
vn 0.000000 0.000000 1.000000
vn 0.000000 0.000000 1.000000
vn 0.000000 0.000000 1.000000
vn 0.000000 -0.587798 0.809008
vn 0.000000 -0.587798 0.809008
vn 0.000000 -0.587798 0.809008
vn 0.000000 -0.587798 0.809008
vn 0.000000 -0.951056 0.309020
vn 0.000000 -0.951056 0.309020
vn 0.000000 -0.951056 0.309020
vn 0.000000 -0.951056 0.309020
vn 0.000000 -0.951057 -0.309015
vn 0.000000 -0.951057 -0.309015
vn 0.000000 -0.951057 -0.309015
vn 0.000000 -0.951057 -0.309015
vn 0.000000 -0.587785 -0.809017
vn 0.000000 -0.587785 -0.809017
vn 0.000000 -0.587785 -0.809017
vn 0.000000 -0.587785 -0.809017
vn 0.000000 0.000000 -1.000000
vn 0.000000 0.000000 -1.000000
vn 0.000000 0.000000 -1.000000
vn 0.000000 0.000000 -1.000000
vn 0.000000 0.587800 -0.809006
vn 0.000000 0.587800 -0.809006
vn 0.000000 0.587800 -0.809006
vn 0.000000 0.587800 -0.809006
vn -0.000000 0.951055 -0.309022
vn -0.000000 0.951055 -0.309022
vn -0.000000 0.951055 -0.309022
vn -0.000000 0.951055 -0.309022
vn -0.000000 0.951057 0.309015
vn -0.000000 0.951057 0.309015
vn -0.000000 0.951057 0.309015
vn -0.000000 0.951057 0.309015
vn -0.711820 0.000000 0.702362
vn -0.711820 0.000000 0.702362
vn 0.013469 0.000000 0.999909
vn 0.013469 0.000000 0.999909
vn -0.095537 -0.565287 0.819344
vn -0.142467 -0.556384 0.818621
vn 0.027694 -0.582400 0.812430
vn 0.027694 -0.582400 0.812430
vn 0.065384 -0.949622 0.306502
vn 0.063063 -0.949683 0.306798
vn 0.021766 -0.949903 0.311785
vn 0.021766 -0.949903 0.311785
vn -0.102231 -0.948597 -0.299521
vn -0.093092 -0.949048 -0.301069
vn -0.029695 -0.949926 -0.311061
vn -0.029695 -0.949926 -0.311061
vn -0.287348 -0.575802 -0.765430
vn -0.273089 -0.577148 -0.769625
vn -0.087969 -0.583000 -0.807696
vn -0.087969 -0.583000 -0.807696
vn -0.351917 0.000000 -0.936031
vn -0.351917 0.000000 -0.936031
vn -0.112267 0.000000 -0.993678
vn -0.112267 0.000000 -0.993678
vn -0.273084 0.577162 -0.769616
vn -0.287345 0.575816 -0.765421
vn -0.087966 0.583016 -0.807685
vn -0.087966 0.583016 -0.807685
vn -0.093095 0.949045 -0.301075
vn -0.102234 0.948595 -0.299527
vn -0.029697 0.949923 -0.311069
vn -0.029697 0.949923 -0.311069
vn 0.063064 0.949684 0.306796
vn 0.065390 0.949622 0.306499
vn 0.021762 0.949904 0.311783
vn 0.021762 0.949904 0.311783
vn -0.142436 0.556397 0.818617
vn -0.095540 0.565290 0.819341
vn 0.027676 0.582394 0.812435
vn 0.027676 0.582394 0.812435
vn 0.999906 0.000000 0.013712
vn 0.999906 0.000000 0.013712
vn 0.708539 0.000000 -0.705671
vn 0.708539 0.000000 -0.705671
vn 0.812414 -0.582421 0.027737
vn 0.812414 -0.582421 0.027737
vn 0.818742 -0.556602 -0.140910
vn 0.819384 -0.565413 -0.094432
vn 0.311771 -0.949909 0.021711
vn 0.311771 -0.949909 0.021711
vn 0.306846 -0.949678 0.062910
vn 0.306556 -0.949617 0.065201
vn -0.311052 -0.949932 -0.029602
vn -0.311052 -0.949932 -0.029602
vn -0.301122 -0.949051 -0.092892
vn -0.299586 -0.948602 -0.101998
vn -0.807712 -0.583021 -0.087679
vn -0.807712 -0.583021 -0.087679
vn -0.769799 -0.577166 -0.272559
vn -0.765626 -0.575824 -0.286781
vn -0.993718 0.000000 -0.111910
vn -0.993718 0.000000 -0.111910
vn -0.936280 0.000000 -0.351253
vn -0.936280 0.000000 -0.351253
vn -0.807712 0.583021 -0.087682
vn -0.807712 0.583021 -0.087682
vn -0.765622 0.575830 -0.286780
vn -0.769796 0.577171 -0.272558
vn -0.311051 0.949932 -0.029604
vn -0.311051 0.949932 -0.029604
vn -0.299586 0.948601 -0.102001
vn -0.301122 0.949050 -0.092894
vn 0.311773 0.949909 0.021713
vn 0.311773 0.949909 0.021713
vn 0.306554 0.949617 0.065206
vn 0.306845 0.949678 0.062912
vn 0.812413 0.582422 0.027745
vn 0.812413 0.582422 0.027745
vn 0.819383 0.565417 -0.094420
vn 0.818742 0.556610 -0.140883
vn -0.706508 0.000000 -0.707705
vn -0.706508 0.000000 -0.707705
vn -0.588829 0.550663 -0.591652
vn -0.588850 0.550662 -0.591630
vn 0.223566 -0.948817 0.223079
vn 0.223570 -0.948817 0.223075
vn -0.225744 -0.947730 -0.225494
vn -0.225738 -0.947730 -0.225499
vn -0.579654 -0.573223 -0.579152
vn -0.579632 -0.573223 -0.579174
vn -0.707381 0.000000 -0.706833
vn -0.707381 0.000000 -0.706833
vn -0.579627 0.573233 -0.579169
vn -0.579645 0.573233 -0.579150
vn -0.225739 0.947728 -0.225505
vn -0.225747 0.947729 -0.225498
vn 0.223574 0.948817 0.223072
vn 0.223567 0.948817 0.223080
vn -0.588859 -0.550658 -0.591626
vn -0.588835 -0.550658 -0.591649
vn -0.092497 0.562261 -0.821771
vn -0.115229 0.557837 -0.821913
vn 0.026720 0.580412 -0.813884
vn 0.026720 0.580412 -0.813884
vn 0.056162 0.948141 -0.312849
vn 0.052377 0.948311 -0.312990
vn 0.017485 0.949235 -0.314082
vn 0.017485 0.949235 -0.314082
vn -0.110109 0.949524 0.293736
vn -0.100123 0.949998 0.295769
vn -0.033719 0.950640 0.308459
vn -0.033719 0.950640 0.308459
vn -0.288280 0.578547 0.763006
vn -0.273486 0.579910 0.767404
vn -0.088781 0.585271 0.805963
vn -0.088781 0.585271 0.805963
vn -0.346659 0.003408 0.937985
vn -0.345974 0.003406 0.938238
vn -0.109320 0.002799 0.994003
vn -0.109320 0.002799 0.994003
vn -0.263699 -0.574652 0.774750
vn -0.276746 -0.573395 0.771123
vn -0.082529 -0.581143 0.809606
vn -0.082529 -0.581143 0.809606
vn -0.082629 -0.948008 0.307333
vn -0.090344 -0.947593 0.306439
vn -0.024269 -0.949285 0.313478
vn -0.024269 -0.949285 0.313478
vn 0.070618 -0.950872 -0.301423
vn 0.068730 -0.950904 -0.301759
vn 0.024728 -0.950654 -0.309266
vn 0.024728 -0.950654 -0.309266
vn -0.176067 -0.552272 -0.814860
vn -0.092754 -0.568595 -0.817371
vn 0.028354 -0.584883 -0.810622
vn 0.028354 -0.584883 -0.810622
vn -0.709879 -0.002285 -0.704320
vn -0.655196 -0.002435 -0.755455
vn 0.014520 -0.003097 -0.999890
vn 0.014520 -0.003097 -0.999890
vn 0.811049 0.584351 -0.027084
vn 0.811049 0.584351 -0.027084
vn 0.808996 0.542656 0.225944
vn 0.816585 0.565976 0.113400
vn 0.309527 0.950547 -0.025564
vn 0.309527 0.950547 -0.025564
vn 0.300555 0.950948 -0.073238
vn 0.301079 0.950985 -0.070557
vn -0.313619 0.949198 0.025799
vn -0.313619 0.949198 0.025799
vn -0.306417 0.948000 0.086051
vn -0.305336 0.947561 0.094332
vn -0.809404 0.580738 0.087229
vn -0.809404 0.580738 0.087229
vn -0.771837 0.574377 0.272688
vn -0.767853 0.573053 0.286379
vn -0.993328 -0.002785 0.115292
vn -0.993328 -0.002785 0.115292
vn -0.933801 -0.003321 0.357778
vn -0.934056 -0.003319 0.357112
vn -0.805745 -0.584838 0.093484
vn -0.805745 -0.584838 0.093484
vn -0.759709 -0.578044 0.297837
vn -0.764485 -0.579483 0.282422
vn -0.308612 -0.950533 0.035290
vn -0.308612 -0.950533 0.035290
vn -0.292552 -0.949422 0.114069
vn -0.294829 -0.949930 0.103484
vn 0.314307 -0.949143 -0.018393
vn 0.314307 -0.949143 -0.018393
vn 0.311960 -0.948217 -0.059717
vn 0.312255 -0.948404 -0.055007
vn 0.814292 -0.579885 -0.025744
vn 0.814292 -0.579885 -0.025744
vn 0.820993 -0.560003 0.111212
vn 0.820607 -0.555855 0.132773
vn 0.999944 0.003109 -0.010149
vn 0.999944 0.003109 -0.010149
vn 0.584254 0.001638 0.811569
vn 0.651258 0.001858 0.758854
vn -0.629739 -0.549607 0.548963
vn -0.635826 -0.550770 0.540720
vn 0.198332 0.948297 -0.247784
vn 0.204177 0.948369 -0.242709
vn -0.233839 0.947645 0.217456
vn -0.234263 0.947641 0.217020
vn -0.579849 0.573247 0.578933
vn -0.580983 0.573226 0.577816
vn -0.701906 0.000063 0.712270
vn -0.703041 0.000041 0.711149
vn -0.569944 -0.573118 0.588812
vn -0.570495 -0.573124 0.588273
vn -0.212947 -0.947573 0.238244
vn -0.213182 -0.947574 0.238028
vn 0.234577 -0.948607 -0.212413
vn 0.239692 -0.948538 -0.206939
vn -0.587803 0.551605 0.591794
vn -0.596002 0.551361 0.583767
vn -0.714109 -0.000156 0.700034
vn -0.720344 -0.000280 0.693617
vn 0.587785 -0.809017 0.000000
vn 0.587785 -0.809017 0.000000
vn 0.587785 -0.809017 0.000000
vn 0.587785 -0.809017 0.000000
vn 0.000000 -1.000000 0.000000
vn 0.000000 -1.000000 0.000000
vn 0.000000 -1.000000 0.000000
vn 0.000000 -1.000000 0.000000
vn -0.587785 -0.809017 0.000000
vn -0.587785 -0.809017 0.000000
vn -0.587785 -0.809017 0.000000
vn -0.587785 -0.809017 0.000000
vn -0.951056 -0.309018 0.000000
vn -0.951056 -0.309018 0.000000
vn -0.951056 -0.309018 0.000000
vn -0.951056 -0.309018 0.000000
vn -0.951056 0.309018 0.000000
vn -0.951056 0.309018 0.000000
vn -0.951056 0.309018 0.000000
vn -0.951056 0.309018 0.000000
vn -0.587785 0.809017 0.000000
vn -0.587785 0.809017 0.000000
vn -0.587785 0.809017 0.000000
vn -0.587785 0.809017 0.000000
vn 0.000000 1.000000 0.000000
vn 0.000000 1.000000 0.000000
vn 0.000000 1.000000 0.000000
vn 0.000000 1.000000 0.000000
vn 0.587786 0.809017 0.000000
vn 0.587786 0.809017 0.000000
vn 0.587786 0.809017 0.000000
vn 0.587786 0.809017 0.000000
vn 0.951056 0.309018 0.000000
vn 0.951056 0.309018 0.000000
vn 0.951056 0.309018 0.000000
vn 0.951056 0.309018 0.000000
vn 0.951056 -0.309018 0.000000
vn 0.951056 -0.309018 0.000000
vn 0.951056 -0.309018 0.000000
vn 0.951056 -0.309018 0.000000
vn 0.587786 0.000000 -0.809017
vn 0.587786 0.000000 -0.809017
vn 0.587786 0.000000 -0.809017
vn 0.587786 0.000000 -0.809017
vn 0.000000 0.000000 -1.000000
vn 0.000000 0.000000 -1.000000
vn 0.000000 0.000000 -1.000000
vn 0.000000 0.000000 -1.000000
vn -0.587786 0.000000 -0.809016
vn -0.587786 0.000000 -0.809016
vn -0.587786 0.000000 -0.809016
vn -0.587786 0.000000 -0.809016
vn -0.951058 -0.000000 -0.309014
vn -0.951058 -0.000000 -0.309014
vn -0.951058 -0.000000 -0.309014
vn -0.951058 -0.000000 -0.309014
vn -0.951055 0.000000 0.309022
vn -0.951055 0.000000 0.309022
vn -0.951055 0.000000 0.309022
vn -0.951055 0.000000 0.309022
vn -0.587791 -0.000000 0.809013
vn -0.587791 -0.000000 0.809013
vn -0.587791 -0.000000 0.809013
vn -0.587791 -0.000000 0.809013
vn 0.000000 0.000000 1.000000
vn 0.000000 0.000000 1.000000
vn 0.000000 0.000000 1.000000
vn 0.000000 0.000000 1.000000
vn 0.587791 -0.000000 0.809013
vn 0.587791 -0.000000 0.809013
vn 0.587791 -0.000000 0.809013
vn 0.587791 -0.000000 0.809013
vn 0.951055 0.000000 0.309022
vn 0.951055 0.000000 0.309022
vn 0.951055 0.000000 0.309022
vn 0.951055 0.000000 0.309022
vn 0.951058 -0.000000 -0.309014
vn 0.951058 -0.000000 -0.309014
vn 0.951058 -0.000000 -0.309014
vn 0.951058 -0.000000 -0.309014
vn 0.587785 0.000000 0.809018
vn 0.587785 0.000000 0.809018
vn 0.587785 0.000000 0.809018
vn 0.587785 0.000000 0.809018
vn 0.000000 0.000000 1.000000
vn 0.000000 0.000000 1.000000
vn 0.000000 0.000000 1.000000
vn 0.000000 0.000000 1.000000
vn -0.587800 0.000000 0.809006
vn -0.587800 0.000000 0.809006
vn -0.587800 0.000000 0.809006
vn -0.587800 0.000000 0.809006
vn -0.951055 0.000000 0.309021
vn -0.951055 0.000000 0.309021
vn -0.951055 0.000000 0.309021
vn -0.951055 0.000000 0.309021
vn -0.951058 0.000000 -0.309014
vn -0.951058 0.000000 -0.309014
vn -0.951058 0.000000 -0.309014
vn -0.951058 0.000000 -0.309014
vn -0.587785 0.000000 -0.809018
vn -0.587785 0.000000 -0.809018
vn -0.587785 0.000000 -0.809018
vn -0.587785 0.000000 -0.809018
vn 0.000000 0.000000 -1.000000
vn 0.000000 0.000000 -1.000000
vn 0.000000 0.000000 -1.000000
vn 0.000000 0.000000 -1.000000
vn 0.587801 0.000000 -0.809006
vn 0.587801 0.000000 -0.809006
vn 0.587801 0.000000 -0.809006
vn 0.587801 0.000000 -0.809006
vn 0.951056 0.000000 -0.309020
vn 0.951056 0.000000 -0.309020
vn 0.951056 0.000000 -0.309020
vn 0.951056 0.000000 -0.309020
vn 0.951058 0.000000 0.309014
vn 0.951058 0.000000 0.309014
vn 0.951058 0.000000 0.309014
vn 0.951058 0.000000 0.309014
vn 0.000000 0.711822 0.702360
vn 0.000000 0.711822 0.702360
vn 0.000000 -0.013466 0.999909
vn 0.000000 -0.013466 0.999909
vn -0.565294 0.095534 0.819339
vn -0.556393 0.142464 0.818615
vn -0.582404 -0.027697 0.812428
vn -0.582404 -0.027697 0.812427
vn -0.949621 -0.065384 0.306503
vn -0.949683 -0.063063 0.306800
vn -0.949904 -0.021766 0.311784
vn -0.949904 -0.021766 0.311784
vn -0.948597 0.102231 -0.299519
vn -0.949048 0.093092 -0.301068
vn -0.949925 0.029696 -0.311063
vn -0.949925 0.029696 -0.311063
vn -0.575802 0.287348 -0.765430
vn -0.577148 0.273088 -0.769625
vn -0.583000 0.087967 -0.807696
vn -0.583000 0.087967 -0.807696
vn 0.000000 0.351916 -0.936031
vn 0.000000 0.351916 -0.936031
vn 0.000000 0.112268 -0.993678
vn 0.000000 0.112268 -0.993678
vn 0.577163 0.273084 -0.769616
vn 0.575816 0.287345 -0.765420
vn 0.583015 0.087966 -0.807686
vn 0.583015 0.087966 -0.807686
vn 0.949046 0.093094 -0.301074
vn 0.948595 0.102233 -0.299525
vn 0.949924 0.029696 -0.311068
vn 0.949924 0.029696 -0.311068
vn 0.949685 -0.063062 0.306793
vn 0.949624 -0.065388 0.306496
vn 0.949904 -0.021759 0.311783
vn 0.949904 -0.021759 0.311783
vn 0.556390 0.142438 0.818622
vn 0.565285 0.095541 0.819344
vn 0.582396 -0.027675 0.812434
vn 0.582396 -0.027675 0.812434
vn 0.000000 -0.999906 0.013714
vn 0.000000 -0.999906 0.013714
vn 0.000000 -0.708542 -0.705669
vn 0.000000 -0.708542 -0.705669
vn -0.582425 -0.812411 0.027748
vn -0.582425 -0.812411 0.027748
vn -0.556608 -0.818740 -0.140899
vn -0.565418 -0.819382 -0.094421
vn -0.949909 -0.311773 0.021713
vn -0.949909 -0.311773 0.021713
vn -0.949678 -0.306847 0.062909
vn -0.949617 -0.306557 0.065200
vn -0.949932 0.311052 -0.029603
vn -0.949932 0.311052 -0.029603
vn -0.949051 0.301120 -0.092892
vn -0.948602 0.299584 -0.101998
vn -0.583019 0.807713 -0.087681
vn -0.583019 0.807713 -0.087681
vn -0.577167 0.769799 -0.272558
vn -0.575825 0.765626 -0.286780
vn 0.000000 0.993719 -0.111906
vn 0.000000 0.993719 -0.111906
vn 0.000000 0.936281 -0.351253
vn 0.000000 0.936281 -0.351253
vn 0.583022 0.807711 -0.087681
vn 0.583022 0.807711 -0.087681
vn 0.575829 0.765622 -0.286781
vn 0.577171 0.769796 -0.272559
vn 0.949932 0.311052 -0.029605
vn 0.949932 0.311052 -0.029605
vn 0.948602 0.299585 -0.101999
vn 0.949051 0.301121 -0.092893
vn 0.949909 -0.311771 0.021717
vn 0.949909 -0.311771 0.021717
vn 0.949618 -0.306553 0.065208
vn 0.949678 -0.306843 0.062914
vn 0.582424 -0.812412 0.027748
vn 0.582424 -0.812412 0.027748
vn 0.565421 -0.819380 -0.094424
vn 0.556614 -0.818737 -0.140891
vn 0.000000 0.706510 -0.707703
vn 0.000000 0.706510 -0.707703
vn 0.550655 0.588828 -0.591660
vn 0.550655 0.588849 -0.591638
vn -0.948817 -0.223566 0.223079
vn -0.948817 -0.223570 0.223075
vn -0.947731 0.225742 -0.225492
vn -0.947731 0.225736 -0.225498
vn -0.573224 0.579653 -0.579151
vn -0.573224 0.579631 -0.579174
vn 0.000000 0.707380 -0.706833
vn 0.000000 0.707380 -0.706833
vn 0.573233 0.579627 -0.579169
vn 0.573233 0.579646 -0.579150
vn 0.947730 0.225738 -0.225502
vn 0.947730 0.225745 -0.225495
vn 0.948818 -0.223572 0.223068
vn 0.948818 -0.223564 0.223076
vn -0.550658 0.588858 -0.591626
vn -0.550659 0.588835 -0.591649
vn 0.562264 0.092491 -0.821769
vn 0.557841 0.115223 -0.821911
vn 0.580414 -0.026722 -0.813883
vn 0.580414 -0.026722 -0.813883
vn 0.948140 -0.056162 -0.312851
vn 0.948310 -0.052378 -0.312992
vn 0.949235 -0.017487 -0.314082
vn 0.949235 -0.017487 -0.314082
vn 0.949524 0.110109 0.293733
vn 0.949999 0.100123 0.295767
vn 0.950641 0.033718 0.308457
vn 0.950641 0.033718 0.308457
vn 0.578547 0.288278 0.763006
vn 0.579911 0.273485 0.767405
vn 0.585270 0.088779 0.805964
vn 0.585270 0.088779 0.805964
vn 0.003406 0.346658 0.937985
vn 0.003404 0.345973 0.938238
vn 0.002798 0.109318 0.994003
vn 0.002798 0.109318 0.994003
vn -0.574652 0.263698 0.774751
vn -0.573394 0.276745 0.771123
vn -0.581140 0.082528 0.809609
vn -0.581140 0.082528 0.809608
vn -0.948007 0.082629 0.307336
vn -0.947592 0.090345 0.306442
vn -0.949286 0.024267 0.313475
vn -0.949286 0.024267 0.313475
vn -0.950871 -0.070619 -0.301425
vn -0.950903 -0.068732 -0.301761
vn -0.950654 -0.024730 -0.309266
vn -0.950654 -0.024730 -0.309266
vn -0.552255 0.176066 -0.814871
vn -0.568585 0.092752 -0.817379
vn -0.584882 -0.028355 -0.810623
vn -0.584882 -0.028355 -0.810623
vn -0.002282 0.709898 -0.704301
vn -0.002433 0.655218 -0.755436
vn -0.003098 -0.014516 -0.999890
vn -0.003098 -0.014516 -0.999890
vn 0.584355 -0.811046 -0.027092
vn 0.584355 -0.811046 -0.027092
vn 0.542656 -0.808999 0.225931
vn 0.565978 -0.816586 0.113390
vn 0.950548 -0.309525 -0.025566
vn 0.950548 -0.309525 -0.025566
vn 0.950949 -0.300552 -0.073237
vn 0.950986 -0.301076 -0.070557
vn 0.949198 0.313620 0.025800
vn 0.949198 0.313620 0.025800
vn 0.948000 0.306417 0.086052
vn 0.947561 0.305336 0.094333
vn 0.580743 0.809401 0.087226
vn 0.580743 0.809401 0.087226
vn 0.574379 0.771836 0.272687
vn 0.573054 0.767852 0.286377
vn -0.002783 0.993328 0.115290
vn -0.002783 0.993328 0.115290
vn -0.003315 0.933801 0.357777
vn -0.003314 0.934056 0.357111
vn -0.584837 0.805745 0.093487
vn -0.584837 0.805745 0.093487
vn -0.578044 0.759709 0.297837
vn -0.579483 0.764485 0.282422
vn -0.950532 0.308614 0.035293
vn -0.950532 0.308614 0.035293
vn -0.949422 0.292550 0.114068
vn -0.949930 0.294828 0.103484
vn -0.949143 -0.314309 -0.018391
vn -0.949143 -0.314309 -0.018391
vn -0.948217 -0.311960 -0.059716
vn -0.948405 -0.312255 -0.055006
vn -0.579888 -0.814289 -0.025752
vn -0.579888 -0.814289 -0.025752
vn -0.560007 -0.820990 0.111206
vn -0.555860 -0.820605 0.132770
vn 0.003110 -0.999944 -0.010156
vn 0.003110 -0.999944 -0.010156
vn 0.001653 -0.584270 0.811558
vn 0.001872 -0.651276 0.758839
vn -0.549614 0.629726 0.548972
vn -0.550777 0.635812 0.540728
vn 0.948297 -0.198330 -0.247785
vn 0.948370 -0.204175 -0.242709
vn 0.947646 0.233839 0.217456
vn 0.947641 0.234262 0.217020
vn 0.573248 0.579848 0.578933
vn 0.573227 0.580982 0.577815
vn 0.000066 0.701906 0.712270
vn 0.000044 0.703041 0.711149
vn -0.573120 0.569944 0.588810
vn -0.573125 0.570496 0.588270
vn -0.947572 0.212946 0.238245
vn -0.947574 0.213181 0.238029
vn -0.948607 -0.234575 -0.212415
vn -0.948538 -0.239690 -0.206940
vn 0.551622 0.587794 0.591786
vn 0.551375 0.595993 0.583762
vn -0.000150 0.714113 0.700031
vn -0.000273 0.720348 0.693613
vn -0.591427 0.062483 -0.803934
vn -0.591576 0.055974 -0.804304
vn -0.591907 0.032201 -0.805363
vn -0.591907 0.032201 -0.805363
vn -0.861965 -0.444409 -0.243962
vn -0.911164 -0.312332 -0.268753
vn -0.952079 0.023379 -0.304957
vn -0.952079 0.023379 -0.304957
vn -0.911160 -0.312331 0.268769
vn -0.861957 -0.444416 0.243976
vn -0.952073 0.023379 0.304975
vn -0.952073 0.023379 0.304975
vn -0.591586 0.055975 0.804297
vn -0.591437 0.062484 0.803927
vn -0.591915 0.032202 0.805357
vn -0.591915 0.032202 0.805356
vn 0.000002 0.000000 1.000000
vn 0.000001 0.000000 1.000000
vn 0.000000 0.000000 1.000000
vn 0.000000 0.000000 1.000000
vn 0.563317 -0.203708 0.800735
vn 0.566603 -0.188959 0.802032
vn 0.589440 -0.060472 0.805546
vn 0.589440 -0.060472 0.805546
vn 0.892799 -0.335646 0.300421
vn 0.895769 -0.327172 0.300927
vn 0.946379 -0.104868 0.305564
vn 0.946379 -0.104868 0.305564
vn 0.895773 -0.327173 -0.300911
vn 0.892804 -0.335647 -0.300404
vn 0.946384 -0.104869 -0.305548
vn 0.946384 -0.104869 -0.305548
vn 0.566599 -0.188956 -0.802036
vn 0.563313 -0.203705 -0.800739
vn 0.589436 -0.060470 -0.805548
vn 0.589436 -0.060470 -0.805548
vn 0.000000 0.000000 -1.000000
vn 0.000000 0.000000 -1.000000
vn 0.000000 0.000000 -1.000000
vn 0.000000 0.000000 -1.000000
vn -0.032206 0.591909 -0.805361
vn -0.032206 0.591909 -0.805361
vn -0.055976 0.591577 -0.804303
vn -0.062484 0.591428 -0.803933
vn -0.023381 0.952078 -0.304961
vn -0.023381 0.952078 -0.304961
vn 0.312336 0.911162 -0.268757
vn 0.444416 0.861960 -0.243966
vn -0.023380 0.952073 0.304977
vn -0.023380 0.952073 0.304977
vn 0.444419 0.861955 0.243978
vn 0.312333 0.911159 0.268772
vn -0.032198 0.591916 0.805357
vn -0.032198 0.591916 0.805357
vn -0.062476 0.591436 0.803928
vn -0.055969 0.591585 0.804298
vn 0.000003 0.000000 1.000000
vn 0.000003 0.000000 1.000000
vn -0.000000 0.000000 1.000000
vn -0.000001 0.000000 1.000000
vn 0.060470 -0.589441 0.805545
vn 0.060470 -0.589441 0.805545
vn 0.188959 -0.566603 0.802032
vn 0.203709 -0.563317 0.800735
vn 0.104869 -0.946379 0.305566
vn 0.104869 -0.946379 0.305566
vn 0.327171 -0.895769 0.300928
vn 0.335645 -0.892799 0.300421
vn 0.104871 -0.946384 -0.305549
vn 0.104871 -0.946384 -0.305549
vn 0.335648 -0.892803 -0.300405
vn 0.327175 -0.895773 -0.300912
vn 0.060468 -0.589434 -0.805550
vn 0.060468 -0.589434 -0.805550
vn 0.203705 -0.563310 -0.800741
vn 0.188955 -0.566596 -0.802038
vn -0.000003 0.000000 -1.000000
vn -0.000003 0.000000 -1.000000
vn -0.000002 0.000000 -1.000000
vn -0.000002 0.000000 -1.000000
vn -0.412248 0.412264 -0.812459
vn -0.412248 0.412265 -0.812459
vn 0.676917 -0.676916 0.289081
vn 0.676917 -0.676916 0.289081
vn 0.676913 -0.676914 -0.289097
vn 0.676913 -0.676914 -0.289097
vn -0.412258 0.412269 0.812452
vn -0.412258 0.412268 0.812452
vn -0.000001 0.000000 1.000000
vn -0.000001 0.000000 1.000000
vn 0.425661 -0.425658 0.798516
vn 0.425661 -0.425658 0.798516
vn 0.674862 -0.674865 0.298527
vn 0.674863 -0.674864 0.298527
vn 0.674868 -0.674866 -0.298512
vn 0.674867 -0.674866 -0.298512
vn 0.425656 -0.425653 -0.798522
vn 0.425656 -0.425653 -0.798522
vn 0.000000 0.000000 -1.000000
vn 0.000000 0.000000 -1.000000
vn 0.000000 0.000000 1.000000
vn 0.000000 0.000000 1.000000
vn 0.000000 0.000000 1.000000
vn 0.000000 0.000000 1.000000
vn 0.565949 -0.194960 0.801057
vn 0.568826 -0.181128 0.802266
vn 0.589342 -0.056642 0.805896
vn 0.589342 -0.056642 0.805896
vn 0.897490 -0.322579 0.300757
vn 0.900186 -0.314521 0.301233
vn 0.946984 -0.098229 0.305895
vn 0.946984 -0.098229 0.305895
vn 0.900184 -0.314520 -0.301240
vn 0.897488 -0.322579 -0.300763
vn 0.946982 -0.098229 -0.305903
vn 0.946982 -0.098229 -0.305903
vn 0.568838 -0.181127 -0.802257
vn 0.565962 -0.194959 -0.801048
vn 0.589355 -0.056644 -0.805886
vn 0.589355 -0.056644 -0.805886
vn 0.000000 0.000000 -1.000000
vn 0.000000 0.000000 -1.000000
vn 0.000000 0.000000 -1.000000
vn 0.000000 0.000000 -1.000000
vn -0.592288 0.060396 -0.803459
vn -0.592113 0.052655 -0.804133
vn -0.591446 0.031281 -0.805738
vn -0.591446 0.031281 -0.805738
vn -0.894896 -0.363971 -0.258236
vn -0.927411 -0.251374 -0.276985
vn -0.951861 0.025976 -0.305428
vn -0.951861 0.025976 -0.305428
vn -0.927408 -0.251374 0.276994
vn -0.894868 -0.364044 0.258231
vn -0.951859 0.025974 0.305435
vn -0.951858 0.025974 0.305435
vn -0.592126 0.052659 0.804123
vn -0.592299 0.060406 0.803451
vn -0.591463 0.031281 0.805725
vn -0.591463 0.031281 0.805725
vn -0.000003 0.000000 1.000000
vn -0.000003 0.000000 1.000000
vn -0.000002 0.000000 1.000000
vn -0.000002 0.000000 1.000000
vn 0.064322 -0.589543 0.805172
vn 0.064322 -0.589543 0.805172
vn 0.196696 -0.564303 0.801794
vn 0.212376 -0.560576 0.800406
vn 0.111540 -0.945737 0.305188
vn 0.111540 -0.945737 0.305188
vn 0.339650 -0.891228 0.300583
vn 0.348538 -0.887972 0.300045
vn 0.111539 -0.945738 -0.305187
vn 0.111539 -0.945738 -0.305187
vn 0.348537 -0.887972 -0.300045
vn 0.339650 -0.891228 -0.300583
vn 0.064320 -0.589532 -0.805180
vn 0.064320 -0.589532 -0.805180
vn 0.212378 -0.560567 -0.800413
vn 0.196697 -0.564293 -0.801800
vn -0.000001 0.000000 -1.000000
vn -0.000001 0.000000 -1.000000
vn -0.000000 0.000000 -1.000000
vn -0.000001 0.000000 -1.000000
vn -0.032961 0.592431 -0.804947
vn -0.032961 0.592431 -0.804947
vn -0.058901 0.590818 -0.804652
vn -0.064559 0.590413 -0.804515
vn -0.020020 0.952318 -0.304450
vn -0.020020 0.952318 -0.304450
vn 0.383865 0.886708 -0.257676
vn 0.539156 0.811897 -0.223906
vn -0.020020 0.952321 0.304442
vn -0.020020 0.952321 0.304442
vn 0.539076 0.811947 0.223916
vn 0.383865 0.886711 0.257665
vn -0.032962 0.592416 0.804958
vn -0.032962 0.592416 0.804958
vn -0.064546 0.590403 0.804524
vn -0.058893 0.590807 0.804661
vn 0.000000 0.000000 1.000000
vn 0.000000 0.000000 1.000000
vn 0.433879 -0.417287 0.798512
vn 0.433303 -0.417895 0.798506
vn 0.685889 -0.663667 0.298501
vn 0.685463 -0.664108 0.298498
vn 0.685460 -0.664109 -0.298501
vn 0.685888 -0.663667 -0.298504
vn 0.433312 -0.417889 -0.798505
vn 0.433889 -0.417279 -0.798510
vn 0.000000 0.000000 -1.000000
vn 0.000000 0.000000 -1.000000
vn -0.469926 0.349944 -0.810376
vn -0.459394 0.362262 -0.811001
vn 0.640598 -0.711696 0.288310
vn 0.637442 -0.714518 0.288327
vn 0.637437 -0.714522 -0.288326
vn 0.640607 -0.711689 -0.288309
vn -0.459342 0.362307 0.811011
vn -0.469890 0.349974 0.810383
vn -0.009528 0.000000 -0.999955
vn -0.009528 0.000000 -0.999955
vn -0.009528 0.000000 -0.999955
vn -0.009528 0.000000 -0.999955
vn -0.009528 0.000000 -0.999955
vn -0.009528 0.000000 -0.999955
s off
g polySurface711
usemtl initialShadingGroup
f 1/478/1 2/479/2 3/480/3
f 4/481/4 5/482/5 6/483/6
f 7/657/7 8/658/8 10/659/9 9/660/10
f 11/284/11 12/285/12 22/286/13 21/287/14
f 12/11/15 13/1/16 23/4/17 22/12/18
f 13/1/19 14/2/20 24/3/21 23/4/22
f 14/2/23 15/7/24 25/8/25 24/3/26
f 15/300/27 16/301/28 26/302/29 25/303/30
f 16/301/31 17/306/32 27/307/33 26/302/34
f 17/67/35 18/57/36 28/60/37 27/68/38
f 18/57/39 19/58/40 29/59/41 28/60/42
f 19/58/43 20/63/44 30/64/45 29/59/46
f 20/292/47 11/284/48 21/287/49 30/293/50
f 31/484/51 32/485/52 42/486/53 41/487/54
f 32/485/55 33/488/56 43/489/57 42/486/58
f 33/488/59 34/492/60 44/493/61 43/489/62
f 34/33/63 35/34/64 45/26/65 44/25/66
f 35/34/67 36/40/68 46/35/69 45/26/70
f 36/496/71 37/497/72 47/498/73 46/499/74
f 37/497/75 38/500/76 48/501/77 47/498/78
f 38/500/79 39/504/80 49/505/81 48/501/82
f 39/95/83 40/96/84 50/88/85 49/87/86
f 40/96/87 31/101/88 41/97/89 50/88/90
s 1
f 32/45/91 31/49/92 51/39/93
f 33/43/94 32/45/91 51/39/93
f 34/33/95 33/43/94 51/39/93
f 35/34/96 34/33/95 51/39/93
f 36/40/97 35/34/96 51/39/93
f 37/46/98 36/40/97 51/39/93
f 38/50/99 37/46/98 51/39/93
f 39/54/100 38/50/99 51/39/93
f 40/53/101 39/54/100 51/39/93
f 31/49/92 40/53/101 51/39/93
s off
f 52/510/102 53/511/103 63/512/104 62/513/105
f 53/511/106 54/516/107 64/517/108 63/512/109
f 54/516/110 55/519/111 65/520/112 64/517/113
f 55/32/114 56/31/115 66/37/116 65/38/117
f 56/31/118 57/36/119 67/41/120 66/37/121
f 57/522/122 58/523/123 68/524/124 67/525/125
f 58/523/126 59/528/127 69/529/128 68/524/129
f 59/528/130 60/531/131 70/532/132 69/529/133
f 60/94/134 61/93/135 71/99/136 70/100/137
f 61/93/138 52/98/139 62/102/140 71/99/141
s 2
f 62/52/142 63/48/143 72/42/144
f 63/48/143 64/44/145 72/42/144
f 64/44/145 65/38/146 72/42/144
f 65/38/146 66/37/147 72/42/144
f 66/37/147 67/41/148 72/42/144
f 67/41/148 68/47/149 72/42/144
f 68/47/149 69/51/150 72/42/144
f 69/51/150 70/55/151 72/42/144
f 70/55/151 71/56/152 72/42/144
f 71/56/152 62/52/142 72/42/144
s 3
f 93/515/153 94/518/154 54/516/155 53/511/156
s 4
f 94/518/157 95/521/158 55/519/159 54/516/160
s 5
f 95/24/161 96/23/162 56/31/163 55/32/164
s 6
f 96/23/165 97/30/166 57/36/167 56/31/168
s 7
f 97/526/169 98/527/170 58/523/171 57/522/172
s 8
f 98/527/173 99/530/174 59/528/175 58/523/176
s 9
f 99/530/177 100/535/178 60/531/179 59/528/180
s 10
f 100/82/181 101/86/182 61/93/183 60/94/184
s 11
f 101/86/185 102/92/186 52/98/187 61/93/188
s 12
f 102/514/189 93/515/190 53/511/191 52/510/192
s 3
f 22/12/193 23/4/194 74/10/195 73/16/196
s 4
f 23/4/197 24/3/198 75/9/199 74/10/200
s 5
f 24/3/201 25/8/202 76/15/203 75/9/204
s 6
f 25/303/205 26/302/206 77/308/207 76/309/208
s 7
f 26/302/209 27/307/210 78/313/211 77/308/212
s 8
f 27/68/213 28/60/214 79/66/215 78/76/216
s 9
f 28/60/217 29/59/218 80/65/219 79/66/220
s 10
f 29/59/221 30/64/222 81/73/223 80/65/224
s 11
f 30/293/225 21/287/226 82/291/227 81/295/228
s 12
f 21/287/229 22/286/230 73/290/231 82/291/232
s 3
f 73/540/196 74/541/195 84/537/233 83/536/234
s 4
f 74/741/200 75/742/199 85/743/235 84/744/236
s 5
f 75/9/204 76/15/203 86/19/237 85/20/238
s 6
f 76/309/208 77/308/207 87/314/239 86/315/240
s 7
f 77/308/212 78/313/211 88/317/241 87/314/242
s 8
f 78/76/216 79/66/215 89/75/243 88/84/244
s 9
f 79/66/220 80/65/219 90/74/245 89/75/246
s 10
f 80/65/224 81/73/223 91/81/247 90/74/248
s 11
f 81/295/228 82/291/227 92/298/249 91/299/250
s 12
f 82/661/232 73/662/231 83/663/251 92/664/252
s 3
f 83/536/234 84/537/233 94/538/154 93/539/153
s 4
f 84/537/236 85/542/235 95/543/158 94/538/157
s 5
f 85/20/238 86/19/237 96/23/162 95/24/161
s 6
f 86/19/240 87/29/239 97/30/166 96/23/165
s 7
f 87/314/242 88/317/241 98/320/170 97/321/169
s 8
f 88/533/244 89/534/243 99/530/174 98/527/173
s 9
f 89/75/246 90/74/245 100/82/178 99/83/177
s 10
f 90/74/248 91/81/247 101/86/182 100/82/181
s 11
f 91/81/250 92/91/249 102/92/186 101/86/185
s 12
f 92/544/252 83/536/251 93/539/190 102/545/189
s 23
f 123/490/253 124/491/254 41/487/255 42/486/256
s 24
f 124/90/257 125/85/258 50/88/259 41/97/260
s 25
f 125/85/261 126/79/262 49/87/263 50/88/264
s 26
f 126/507/265 127/506/266 48/501/267 49/505/268
s 27
f 127/506/269 128/502/270 47/498/271 48/501/272
s 28
f 128/502/273 129/503/274 46/499/275 47/498/276
s 29
f 129/28/277 130/22/278 45/26/279 46/35/280
s 30
f 130/22/281 131/21/282 44/25/283 45/26/284
s 31
f 131/495/285 132/494/286 43/489/287 44/493/288
s 32
f 132/494/289 123/490/290 42/486/291 43/489/292
s 23
f 12/285/293 11/284/294 104/288/295 103/289/296
s 24
f 11/284/297 20/292/298 105/294/299 104/288/300
s 25
f 20/63/301 19/58/302 106/62/303 105/72/304
s 26
f 19/58/305 18/57/306 107/61/307 106/62/308
s 27
f 18/57/309 17/67/310 108/69/311 107/61/312
s 28
f 17/306/313 16/301/314 109/305/315 108/312/316
s 29
f 16/301/317 15/300/318 110/304/319 109/305/320
s 30
f 15/7/321 14/2/322 111/6/323 110/14/324
s 31
f 14/2/325 13/1/326 112/5/327 111/6/328
s 32
f 13/1/329 12/11/330 103/13/331 112/5/332
s 23
f 103/322/296 104/323/295 114/324/333 113/325/334
s 24
f 104/288/300 105/294/299 115/296/335 114/297/336
s 25
f 105/72/304 106/62/303 116/71/337 115/80/338
s 26
f 106/62/308 107/61/307 117/70/339 116/71/340
s 27
f 107/61/312 108/69/311 118/77/341 117/70/342
s 28
f 108/312/316 109/305/315 119/311/343 118/316/344
s 29
f 109/305/320 110/304/319 120/310/345 119/311/346
s 30
f 110/14/324 111/6/323 121/17/347 120/18/348
s 31
f 111/745/328 112/746/327 122/747/349 121/748/350
s 32
f 112/326/332 103/322/331 113/325/351 122/327/352
s 23
f 113/547/334 114/550/333 124/551/254 123/548/253
s 24
f 114/89/336 115/80/335 125/85/258 124/90/257
s 25
f 115/80/338 116/71/337 126/79/262 125/85/261
s 26
f 116/71/340 117/70/339 127/78/266 126/79/265
s 27
f 117/508/342 118/509/341 128/502/270 127/506/269
s 28
f 118/316/344 119/311/343 129/318/274 128/319/273
s 29
f 119/27/346 120/18/345 130/22/278 129/28/277
s 30
f 120/18/348 121/17/347 131/21/282 130/22/281
s 31
f 121/552/350 122/546/349 132/549/286 131/553/285
s 32
f 122/546/352 113/547/351 123/548/290 132/549/289
s off
f 133/665/353 134/666/354 136/667/355 135/668/356
f 137/113/357 138/103/358 148/106/359 147/114/360
f 138/103/361 139/104/362 149/105/363 148/106/364
f 139/104/365 140/109/366 150/110/367 149/105/368
f 140/328/369 141/329/370 151/330/371 150/331/372
f 141/329/373 142/334/374 152/335/375 151/330/376
f 142/129/377 143/119/378 153/122/379 152/130/380
f 143/119/381 144/120/382 154/121/383 153/122/384
f 144/120/385 145/125/386 155/126/387 154/121/388
f 145/398/389 146/399/390 156/400/391 155/401/392
f 146/399/393 137/404/394 147/405/395 156/400/396
f 157/441/397 158/452/398 168/443/399 167/433/400
f 158/554/401 159/555/402 169/556/403 168/557/404
f 159/370/405 160/358/406 170/350/407 169/357/408
f 160/358/409 161/359/410 171/351/411 170/350/412
f 161/359/413 162/373/414 172/360/415 171/351/416
f 162/373/417 163/384/418 173/374/419 172/360/420
f 163/578/421 164/579/422 174/580/423 173/581/424
f 164/438/425 165/431/426 175/422/427 174/430/428
f 165/431/429 166/432/430 176/423/431 175/422/432
f 166/432/433 157/441/434 167/433/435 176/423/436
f 177/434/437 178/445/438 188/453/439 187/446/440
f 178/602/441 179/603/442 189/604/443 188/605/444
f 179/369/445 180/355/446 190/367/447 189/379/448
f 180/355/449 181/354/450 191/366/451 190/367/452
f 181/354/453 182/365/454 192/376/455 191/366/456
f 182/365/457 183/375/458 193/385/459 192/376/460
f 183/627/461 184/628/462 194/629/463 193/630/464
f 184/437/465 185/427/466 195/436/467 194/449/468
f 185/427/469 186/426/470 196/435/471 195/436/472
f 186/426/473 177/434/474 187/446/475 196/435/476
s 43
f 217/606/477 218/607/478 179/603/479 178/602/480
s 44
f 218/368/481 219/349/482 180/355/483 179/369/484
s 45
f 219/349/485 220/348/486 181/354/487 180/355/488
s 46
f 220/348/489 221/353/490 182/365/491 181/354/492
s 47
f 221/353/493 222/364/494 183/375/495 182/365/496
s 48
f 222/631/497 223/632/498 184/628/499 183/627/500
s 49
f 223/429/501 224/419/502 185/427/503 184/437/504
s 50
f 224/419/505 225/418/506 186/426/507 185/427/508
s 51
f 225/418/509 226/425/510 177/434/511 186/426/512
s 52
f 226/425/513 217/444/514 178/445/515 177/434/516
s 43
f 148/106/517 149/105/518 198/111/519 197/112/520
s 44
f 149/105/521 150/110/522 199/117/523 198/111/524
s 45
f 150/331/525 151/330/526 200/336/527 199/337/528
s 46
f 151/330/529 152/335/530 201/341/531 200/336/532
s 47
f 152/130/533 153/122/534 202/128/535 201/138/536
s 48
f 153/122/537 154/121/538 203/127/539 202/128/540
s 49
f 154/121/541 155/126/542 204/135/543 203/127/544
s 50
f 155/401/545 156/400/546 205/406/547 204/407/548
s 51
f 156/400/549 147/405/550 206/411/551 205/406/552
s 52
f 147/114/553 148/106/554 197/112/555 206/118/556
s 43
f 197/669/520 198/670/519 208/671/557 207/672/558
s 44
f 198/670/524 199/673/523 209/674/559 208/671/560
s 45
f 199/337/528 200/336/527 210/342/561 209/343/562
s 46
f 200/336/532 201/341/531 211/347/563 210/342/564
s 47
f 201/138/536 202/128/535 212/137/565 211/142/566
s 48
f 202/128/540 203/127/539 213/136/567 212/137/568
s 49
f 203/127/544 204/135/543 214/141/569 213/136/570
s 50
f 204/407/548 205/406/547 215/412/571 214/413/572
s 51
f 205/406/552 206/411/551 216/417/573 215/412/574
s 52
f 206/677/556 197/669/555 207/672/575 216/678/576
s 43
f 207/672/558 208/671/557 218/675/478 217/676/477
s 44
f 208/749/560 209/750/559 219/751/482 218/752/481
s 45
f 209/343/562 210/342/561 220/348/486 219/349/485
s 46
f 210/342/564 211/347/563 221/353/490 220/348/489
s 47
f 211/347/566 212/363/565 222/364/494 221/353/493
s 48
f 212/635/568 213/636/567 223/632/498 222/631/497
s 49
f 213/428/570 214/413/569 224/419/502 223/429/501
s 50
f 214/413/572 215/412/571 225/418/506 224/419/505
s 51
f 215/412/574 216/417/573 226/425/510 225/418/509
s 52
f 216/753/576 207/754/575 217/755/514 226/756/513
s 63
f 247/442/577 248/424/578 167/433/579 168/443/580
s 64
f 248/424/581 249/415/582 176/423/583 167/433/584
s 65
f 249/415/585 250/414/586 175/422/587 176/423/588
s 66
f 250/414/589 251/421/590 174/430/591 175/422/592
s 67
f 251/584/593 252/585/594 173/581/595 174/580/596
s 68
f 252/362/597 253/352/598 172/360/599 173/374/600
s 69
f 253/352/601 254/345/602 171/351/603 172/360/604
s 70
f 254/345/605 255/344/606 170/350/607 171/351/608
s 71
f 255/344/609 256/356/610 169/357/611 170/350/612
s 72
f 256/560/613 247/561/614 168/557/615 169/556/616
s 63
f 138/103/617 137/113/618 228/115/619 227/107/620
s 64
f 137/404/621 146/399/622 229/403/623 228/410/624
s 65
f 146/399/625 145/398/626 230/402/627 229/403/628
s 66
f 145/125/629 144/120/630 231/124/631 230/134/632
s 67
f 144/120/633 143/119/634 232/123/635 231/124/636
s 68
f 143/119/637 142/129/638 233/131/639 232/123/640
s 69
f 142/334/641 141/329/642 234/333/643 233/340/644
s 70
f 141/329/645 140/328/646 235/332/647 234/333/648
s 71
f 140/109/649 139/104/650 236/108/651 235/116/652
s 72
f 139/104/653 138/103/654 227/107/655 236/108/656
s 63
f 227/679/620 228/680/619 238/681/657 237/682/658
s 64
f 228/410/624 229/403/623 239/409/659 238/416/660
s 65
f 229/403/628 230/402/627 240/408/661 239/409/662
s 66
f 230/134/632 231/124/631 241/133/663 240/140/664
s 67
f 231/124/636 232/123/635 242/132/665 241/133/666
s 68
f 232/123/640 233/131/639 243/139/667 242/132/668
s 69
f 233/340/644 234/333/643 244/339/669 243/346/670
s 70
f 234/333/648 235/332/647 245/338/671 244/339/672
s 71
f 235/687/652 236/683/651 246/684/673 245/688/674
s 72
f 236/683/656 227/679/655 237/682/675 246/684/676
s 63
f 237/757/658 238/758/657 248/759/578 247/760/577
s 64
f 238/416/660 239/409/659 249/415/582 248/424/581
s 65
f 239/409/662 240/408/661 250/414/586 249/415/585
s 66
f 240/408/664 241/420/663 251/421/590 250/414/589
s 67
f 241/588/666 242/589/665 252/585/594 251/584/593
s 68
f 242/361/668 243/346/667 253/352/598 252/362/597
s 69
f 243/346/670 244/339/669 254/345/602 253/352/601
s 70
f 244/339/672 245/338/671 255/344/606 254/345/605
s 71
f 245/761/674 246/762/673 256/763/610 255/764/609
s 72
f 246/684/676 237/682/675 247/685/614 256/686/613
s off
f 257/215/677 258/225/678 268/226/679 267/216/680
f 258/458/681 259/459/682 269/460/683 268/461/684
f 259/153/685 260/143/686 270/146/687 269/154/688
f 260/143/689 261/144/690 271/145/691 270/146/692
f 261/144/693 262/149/694 272/150/695 271/145/696
f 262/149/697 263/159/698 273/160/699 272/150/700
f 263/466/701 264/467/702 274/468/703 273/469/704
f 264/219/705 265/209/706 275/212/707 274/220/708
f 265/209/709 266/210/710 276/211/711 275/212/712
f 266/210/713 257/215/714 267/216/715 276/211/716
f 277/260/717 278/269/718 288/270/719 287/252/720
f 278/569/721 279/568/722 289/570/723 288/571/724
f 279/192/725 280/181/726 290/173/727 289/193/728
f 280/181/729 281/182/730 291/174/731 290/173/732
f 281/182/733 282/191/734 292/183/735 291/174/736
f 282/191/737 283/203/738 293/194/739 292/183/740
f 283/595/741 284/594/742 294/596/743 293/597/744
f 284/257/745 285/250/746 295/242/747 294/249/748
f 285/250/749 286/251/750 296/243/751 295/242/752
f 286/251/753 277/260/754 287/252/755 296/243/756
f 297/622/757 298/618/758 308/616/759 307/623/760
f 298/618/761 299/619/762 309/617/763 308/616/764
f 299/199/765 300/180/766 310/188/767 309/200/768
f 300/180/769 301/179/770 311/187/771 310/188/772
f 301/179/773 302/186/774 312/196/775 311/187/776
f 302/186/777 303/195/778 313/204/779 312/196/780
f 303/645/781 304/646/782 314/644/783 313/643/784
f 304/256/785 305/247/786 315/255/787 314/264/788
f 305/247/789 306/246/790 316/254/791 315/255/792
f 306/246/793 297/253/794 307/261/795 316/254/796
s 83
f 337/620/797 338/621/798 299/619/799 298/618/800
s 84
f 338/621/801 339/624/802 300/625/803 299/619/804
s 85
f 339/172/805 340/171/806 301/179/807 300/180/808
s 86
f 340/171/809 341/178/810 302/186/811 301/179/812
s 87
f 341/178/813 342/185/814 303/195/815 302/186/816
s 88
f 342/647/817 343/648/818 304/646/819 303/645/820
s 89
f 343/248/821 344/239/822 305/247/823 304/256/824
s 90
f 344/239/825 345/238/826 306/246/827 305/247/828
s 91
f 345/238/829 346/245/830 297/253/831 306/246/832
s 92
f 346/626/833 337/620/834 298/618/835 297/622/836
s 83
f 268/461/837 269/460/838 318/464/839 317/465/840
s 84
f 269/154/841 270/146/842 319/152/843 318/164/844
s 85
f 270/146/845 271/145/846 320/151/847 319/152/848
s 86
f 271/145/849 272/150/850 321/161/851 320/151/852
s 87
f 272/150/853 273/160/854 322/169/855 321/161/856
s 88
f 273/469/857 274/468/858 323/472/859 322/473/860
s 89
f 274/220/861 275/212/862 324/218/863 323/230/864
s 90
f 275/212/865 276/211/866 325/217/867 324/218/868
s 91
f 276/211/869 267/216/870 326/227/871 325/217/872
s 92
f 267/216/873 268/226/874 317/236/875 326/227/876
s 83
f 317/689/840 318/690/839 328/691/877 327/692/878
s 84
f 318/690/844 319/693/843 329/694/879 328/691/880
s 85
f 319/152/848 320/151/847 330/162/881 329/163/882
s 86
f 320/151/852 321/161/851 331/170/883 330/162/884
s 87
f 321/161/856 322/169/855 332/177/885 331/170/886
s 88
f 322/473/860 323/472/859 333/476/887 332/477/888
s 89
f 323/230/864 324/218/863 334/229/889 333/240/890
s 90
f 324/218/868 325/217/867 335/228/891 334/229/892
s 91
f 325/217/872 326/227/871 336/237/893 335/228/894
s 92
f 326/697/876 317/689/875 327/692/895 336/698/896
s 83
f 327/692/878 328/691/877 338/695/798 337/696/797
s 84
f 328/765/880 329/766/879 339/767/802 338/768/801
s 85
f 329/163/882 330/162/881 340/171/806 339/172/805
s 86
f 330/162/884 331/170/883 341/178/810 340/171/809
s 87
f 331/170/886 332/177/885 342/185/814 341/178/813
s 88
f 332/649/888 333/650/887 343/648/818 342/647/817
s 89
f 333/240/890 334/229/889 344/239/822 343/248/821
s 90
f 334/229/892 335/228/891 345/238/826 344/239/825
s 91
f 335/228/894 336/237/893 346/245/830 345/238/829
s 92
f 336/769/896 327/770/895 337/771/834 346/772/833
s 103
f 367/573/897 368/574/898 287/575/899 288/571/900
s 104
f 368/244/901 369/233/902 296/243/903 287/252/904
s 105
f 369/233/905 370/232/906 295/242/907 296/243/908
s 106
f 370/232/909 371/241/910 294/249/911 295/242/912
s 107
f 371/598/913 372/599/914 293/597/915 294/596/916
s 108
f 372/184/917 373/175/918 292/183/919 293/194/920
s 109
f 373/175/921 374/166/922 291/174/923 292/183/924
s 110
f 374/166/925 375/165/926 290/173/927 291/174/928
s 111
f 375/576/929 376/572/930 289/570/931 290/577/932
s 112
f 376/572/933 367/573/934 288/571/935 289/570/936
s 103
f 258/225/937 257/215/938 348/224/939 347/235/940
s 104
f 257/215/941 266/210/942 349/214/943 348/224/944
s 105
f 266/210/945 265/209/946 350/213/947 349/214/948
s 106
f 265/209/949 264/219/950 351/221/951 350/213/952
s 107
f 264/467/953 263/466/954 352/470/955 351/471/956
s 108
f 263/159/957 262/149/958 353/158/959 352/168/960
s 109
f 262/149/961 261/144/962 354/148/963 353/158/964
s 110
f 261/144/965 260/143/966 355/147/967 354/148/968
s 111
f 260/143/969 259/153/970 356/155/971 355/147/972
s 112
f 259/459/973 258/458/974 347/462/975 356/463/976
s 103
f 347/699/940 348/700/939 358/701/977 357/702/978
s 104
f 348/224/944 349/214/943 359/223/979 358/234/980
s 105
f 349/214/948 350/213/947 360/222/981 359/223/982
s 106
f 350/213/952 351/221/951 361/231/983 360/222/984
s 107
f 351/471/956 352/470/955 362/474/985 361/475/986
s 108
f 352/168/960 353/158/959 363/167/987 362/176/988
s 109
f 353/158/964 354/148/963 364/157/989 363/167/990
s 110
f 354/148/968 355/147/967 365/156/991 364/157/992
s 111
f 355/773/972 356/774/971 366/775/993 365/776/994
s 112
f 356/703/976 347/699/975 357/702/995 366/704/996
s 103
f 357/777/978 358/778/977 368/779/898 367/780/897
s 104
f 358/234/980 359/223/979 369/233/902 368/244/901
s 105
f 359/223/982 360/222/981 370/232/906 369/233/905
s 106
f 360/222/984 361/231/983 371/241/910 370/232/909
s 107
f 361/600/986 362/601/985 372/599/914 371/598/913
s 108
f 362/176/988 363/167/987 373/175/918 372/184/917
s 109
f 363/167/990 364/157/989 374/166/922 373/175/921
s 110
f 364/157/992 365/156/991 375/165/926 374/166/925
s 111
f 365/781/994 366/782/993 376/783/930 375/784/929
s 112
f 366/704/996 357/702/995 367/705/934 376/706/933
s 123
f 397/202/997 398/189/998 280/181/999 279/192/1000
s 124
f 398/189/1001 399/190/1002 281/182/1003 280/181/1004
s 125
f 399/190/1005 400/201/1006 282/191/1007 281/182/1008
s 126
f 400/201/1009 401/207/1010 283/203/1011 282/191/1012
s 127
f 401/591/1013 402/590/1014 284/594/1015 283/595/1016
s 128
f 402/265/1017 403/258/1018 285/250/1019 284/257/1020
s 129
f 403/258/1021 404/259/1022 286/251/1023 285/250/1024
s 130
f 404/259/1025 405/268/1026 277/260/1027 286/251/1028
s 131
f 405/268/1029 406/277/1030 278/269/1031 277/260/1032
s 132
f 406/567/1033 397/566/1034 279/568/1035 278/569/1036
s 123
f 158/452/1037 157/441/1038 378/451/1039 377/456/1040
s 124
f 157/441/1041 166/432/1042 379/440/1043 378/451/1044
s 125
f 166/432/1045 165/431/1046 380/439/1047 379/440/1048
s 126
f 165/431/1049 164/438/1050 381/450/1051 380/439/1052
s 127
f 164/579/1053 163/578/1054 382/582/1055 381/583/1056
s 128
f 163/384/1057 162/373/1058 383/383/1059 382/392/1060
s 129
f 162/373/1061 161/359/1062 384/372/1063 383/383/1064
s 130
f 161/359/1065 160/358/1066 385/371/1067 384/372/1068
s 131
f 160/358/1069 159/370/1070 386/380/1071 385/371/1072
s 132
f 159/555/1073 158/554/1074 377/558/1075 386/559/1076
s 123
f 377/558/1040 378/564/1039 388/565/1077 387/562/1078
s 124
f 378/707/1044 379/708/1043 389/709/1079 388/710/1080
s 125
f 379/708/1048 380/711/1047 390/712/1081 389/709/1082
s 126
f 380/592/1052 381/583/1051 391/587/1083 390/593/1084
s 127
f 381/583/1056 382/582/1055 392/586/1085 391/587/1086
s 128
f 382/392/1060 383/383/1059 393/391/1087 392/396/1088
s 129
f 383/383/1064 384/372/1063 394/382/1089 393/391/1090
s 130
f 384/372/1068 385/371/1067 395/381/1091 394/382/1092
s 131
f 385/371/1072 386/380/1071 396/390/1093 395/381/1094
s 132
f 386/559/1076 377/558/1075 387/562/1095 396/563/1096
s 123
f 387/716/1078 388/717/1077 398/718/998 397/719/997
s 124
f 388/710/1080 389/709/1079 399/713/1002 398/714/1001
s 125
f 389/709/1082 390/712/1081 400/715/1006 399/713/1005
s 126
f 390/720/1084 391/721/1083 401/722/1010 400/723/1009
s 127
f 391/587/1086 392/586/1085 402/590/1014 401/591/1013
s 128
f 392/275/1088 393/266/1087 403/258/1018 402/265/1017
s 129
f 393/266/1090 394/267/1089 404/259/1022 403/258/1021
s 130
f 394/267/1092 395/276/1091 405/268/1026 404/259/1025
s 131
f 395/276/1094 396/282/1093 406/277/1030 405/268/1029
s 132
f 396/563/1096 387/562/1095 397/566/1034 406/567/1033
s 143
f 427/613/1097 428/612/1098 308/616/1099 309/617/1100
s 144
f 428/279/1101 429/271/1102 307/261/1103 308/280/1104
s 145
f 429/271/1105 430/262/1106 316/254/1107 307/261/1108
s 146
f 430/262/1109 431/263/1110 315/255/1111 316/254/1112
s 147
f 431/263/1113 432/274/1114 314/264/1115 315/255/1116
s 148
f 432/642/1117 433/641/1118 313/643/1119 314/644/1120
s 149
f 433/208/1121 434/205/1122 312/196/1123 313/204/1124
s 150
f 434/205/1125 435/197/1126 311/187/1127 312/196/1128
s 151
f 435/197/1129 436/198/1130 310/188/1131 311/187/1132
s 152
f 436/198/1133 427/206/1134 309/200/1135 310/188/1136
s 143
f 188/605/1137 189/604/1138 408/608/1139 407/785/1140
s 144
f 189/379/1141 190/367/1142 409/378/1143 408/389/1144
s 145
f 190/367/1145 191/366/1146 410/377/1147 409/378/1148
s 146
f 191/366/1149 192/376/1150 411/386/1151 410/377/1152
s 147
f 192/376/1153 193/385/1154 412/393/1155 411/386/1156
s 148
f 193/630/1157 194/629/1158 413/633/1159 412/634/1160
s 149
f 194/449/1161 195/436/1162 414/448/1163 413/455/1164
s 150
f 195/436/1165 196/435/1166 415/447/1167 414/448/1168
s 151
f 196/435/1169 187/446/1170 416/454/1171 415/447/1172
s 152
f 187/446/1173 188/453/1174 407/457/1175 416/454/1176
s 143
f 407/785/1140 408/608/1139 418/610/1177 417/611/1178
s 144
f 408/389/1144 409/378/1143 419/388/1179 418/395/1180
s 145
f 409/378/1148 410/377/1147 420/387/1181 419/388/1182
s 146
f 410/377/1152 411/386/1151 421/394/1183 420/387/1184
s 147
f 411/386/1156 412/393/1155 422/397/1185 421/394/1186
s 148
f 412/634/1160 413/633/1159 423/637/1187 422/638/1188
s 149
f 413/633/1164 414/639/1163 424/640/1189 423/637/1190
s 150
f 414/724/1168 415/725/1167 425/726/1191 424/727/1192
s 151
f 415/725/1172 416/728/1171 426/729/1193 425/726/1194
s 152
f 416/614/1176 407/609/1175 417/786/1195 426/615/1196
s 143
f 417/611/1178 418/610/1177 428/612/1098 427/613/1097
s 144
f 418/283/1180 419/278/1179 429/271/1102 428/279/1101
s 145
f 419/278/1182 420/272/1181 430/262/1106 429/271/1105
s 146
f 420/272/1184 421/273/1183 431/263/1110 430/262/1109
s 147
f 421/273/1186 422/281/1185 432/274/1114 431/263/1113
s 148
f 422/638/1188 423/637/1187 433/641/1118 432/642/1117
s 149
f 423/733/1190 424/734/1189 434/735/1122 433/736/1121
s 150
f 424/727/1192 425/726/1191 435/730/1126 434/731/1125
s 151
f 425/726/1194 426/729/1193 436/732/1130 435/730/1129
s 152
f 426/737/1196 417/738/1195 427/739/1134 436/740/1133
s off
f 437/651/1197 438/652/1198 439/653/1199
f 440/654/1200 441/655/1201 442/656/1202
