# This file uses centimeters as units for non-parametric coordinates.

mtllib N_House_1_Obj.mtl
g default
v 212.646118 275.911102 193.944336
v 240.849731 275.911102 193.944336
v 212.646118 385.396881 193.944336
v 240.849731 385.396881 193.944336
v 212.646118 385.396881 153.641602
v 240.849731 385.396881 153.641602
v 212.646118 275.911102 153.641602
v 240.849731 275.911102 153.641602
v 212.646118 404.483490 193.944336
v 240.849731 404.483490 193.944336
v 240.849731 404.483490 153.641602
v 212.646118 404.483490 153.641602
v 208.891968 385.396881 198.180176
v 244.603882 385.396881 198.180176
v 244.603882 404.483490 198.180176
v 208.891968 404.483490 198.180176
v 244.603882 385.396881 149.405273
v 244.603882 404.483490 149.405273
v 208.891968 385.396881 149.405273
v 208.891968 404.483490 149.405273
v 212.646118 386.195373 193.944336
v 240.849731 386.195373 193.944336
v 240.849731 386.195373 153.641602
v 212.646118 386.195373 153.641602
v -388.042847 265.385528 -484.903320
v -388.043823 265.385528 482.527832
v 388.025024 265.385528 482.528320
v 388.024292 265.385528 -484.903809
v -0.088493 418.371673 -15.108887
v 388.024292 249.108001 -484.903809
v -388.042847 249.108001 -484.903320
v 388.025024 249.108001 482.528320
v -388.043823 249.108001 482.527832
v 434.024780 265.385528 -524.987793
v -434.024780 265.385528 -524.987305
v 434.024780 249.108001 -524.987793
v -434.024780 249.108001 -524.987305
v 434.025513 265.385528 524.987793
v 434.025513 249.108001 524.987793
v -434.025513 265.385528 524.987305
v -434.025513 249.108001 524.987305
v -388.043579 -0.000031 -132.362793
v -388.043579 -0.000038 271.935547
v -388.043579 249.107955 -132.362793
v -388.043579 249.107955 271.935547
v 388.025024 249.107955 -132.362793
v 388.025024 249.107955 271.935547
v 388.025024 -0.000031 -132.362793
v 388.025024 -0.000031 271.935547
v -183.305298 -0.000038 271.935547
v -183.305298 -0.000031 -132.362793
v -183.305298 249.107955 -132.362793
v -183.305298 249.107955 271.935547
v -236.899536 -0.000031 271.935547
v -343.141724 -0.000031 271.935547
v -236.899536 208.245910 271.935547
v -343.141724 208.245910 271.935547
v -236.899536 -0.000031 249.479980
v -343.141724 -0.000031 249.479980
v -236.899536 208.245910 249.479980
v -343.141724 208.245910 249.479980
v -388.043579 0.000000 -484.902344
v -388.043579 0.000000 -132.362305
v -388.043579 249.107986 -484.902344
v -388.043579 249.107986 -132.362305
v 388.025024 249.107986 -484.902344
v 388.025024 249.107986 -132.362305
v 388.025024 0.000000 -484.902344
v 388.025024 0.000000 -132.362305
v -388.043579 1.429378 -461.376465
v -388.043579 1.429378 -146.805664
v -388.043579 226.718658 -146.805664
v -388.043579 226.718658 -461.376465
v -370.359985 1.429378 -461.376465
v -370.359985 1.429378 -146.805664
v -370.359985 226.718658 -146.805664
v -370.359985 226.718658 -461.376465
v -182.803345 -0.000031 266.198242
v -182.803345 -0.000031 482.528809
v -182.803345 249.107955 266.198242
v -182.803345 249.107955 482.528809
v 388.024780 249.107955 266.198242
v 388.024780 249.107955 482.528809
v 388.024780 -0.000031 266.198242
v 388.024780 -0.000031 482.528809
v -341.596558 104.122940 252.927246
v -341.596558 104.122940 261.539551
v -236.899536 104.122940 252.927246
v -236.899536 104.122940 261.539551
v -341.596558 208.245910 261.539551
v -341.596558 208.245910 252.927246
v -236.899536 208.245910 252.927246
v -236.899536 208.245910 261.539551
v -260.640259 127.766311 255.456543
v -317.855835 127.766311 255.456543
v -260.640259 184.602539 255.456543
v -317.855835 184.602539 255.456543
v -253.929810 121.073265 262.113770
v -259.140015 126.266159 258.848145
v -324.557495 121.082115 262.114746
v -319.356079 126.266159 258.848145
v -253.938599 191.286727 262.114746
v -259.140015 186.102691 258.848145
v -324.566284 191.295578 262.113770
v -319.356079 186.102691 258.848145
v -341.596558 -0.000031 252.927246
v -341.596558 -0.000031 261.539551
v -236.899536 -0.000031 252.927246
v -236.899536 -0.000031 261.539551
v -260.640259 23.643339 255.456543
v -317.855835 23.643339 255.456543
v -260.640259 80.479560 255.456543
v -317.855835 80.479560 255.456543
v -253.929810 16.950292 262.113770
v -259.140015 22.143188 258.848145
v -324.557495 16.959142 262.114746
v -319.356079 22.143188 258.848145
v -253.938599 87.163757 262.114746
v -259.140015 81.979713 258.848145
v -324.566284 87.172607 262.113770
v -319.356079 81.979713 258.848145
v -247.106079 105.072967 261.083008
v -247.542603 105.930007 261.083008
v -248.222778 106.610153 261.083008
v -249.079956 107.046836 261.083008
v -250.029907 107.197303 261.083008
v -250.979858 107.046829 261.083008
v -251.837036 106.610153 261.083008
v -252.517212 105.930007 261.083008
v -252.953735 105.072967 261.083008
v -253.104370 104.122940 261.083008
v -252.953735 103.172912 261.083008
v -252.517212 102.315872 261.083008
v -251.837036 101.635726 261.083008
v -250.979858 101.199050 261.083008
v -250.029907 101.048576 261.083008
v -249.079956 101.199050 261.083008
v -248.222778 101.635726 261.083008
v -247.542603 102.315872 261.083008
v -247.106079 103.172912 261.083008
v -246.955444 104.122940 261.083008
v -247.106079 105.072967 262.066406
v -247.542603 105.930007 262.066406
v -248.222778 106.610153 262.066406
v -249.079956 107.046836 262.066406
v -250.029907 107.197303 262.066406
v -250.979858 107.046829 262.066406
v -251.837036 106.610153 262.066406
v -252.517212 105.930007 262.066406
v -252.953735 105.072967 262.066406
v -253.104370 104.122940 262.066406
v -252.953735 103.172912 262.066406
v -252.517212 102.315872 262.066406
v -251.837036 101.635726 262.066406
v -250.979858 101.199050 262.066406
v -250.029907 101.048576 262.066406
v -249.079956 101.199050 262.066406
v -248.222778 101.635726 262.066406
v -247.542603 102.315872 262.066406
v -247.106079 103.172912 262.066406
v -246.955444 104.122940 262.066406
v -250.029907 104.122940 261.083008
v -250.029907 104.122940 262.066406
v -249.110962 104.421554 262.065918
v -249.248169 104.690948 262.065918
v -249.461792 104.904731 262.065918
v -249.732056 105.041992 262.065918
v -250.029907 105.089286 262.065918
v -250.328491 105.041992 262.065918
v -250.598022 104.904731 262.065918
v -250.811646 104.690948 262.065918
v -250.948853 104.421554 262.065918
v -250.996216 104.122940 262.065918
v -250.948853 103.824325 262.065918
v -250.811646 103.554939 262.065918
v -250.598022 103.341148 262.065918
v -250.328491 103.203887 262.065918
v -250.029907 103.156593 262.065918
v -249.732056 103.203887 262.065918
v -249.461792 103.341148 262.065918
v -249.248169 103.554939 262.065918
v -249.110962 103.824325 262.065918
v -249.064331 104.122940 262.065918
v -249.110962 104.421554 265.321777
v -249.248169 104.690948 265.321777
v -249.461792 104.904731 265.321777
v -249.732056 105.041992 265.321777
v -250.029907 105.089286 265.321777
v -250.328491 105.041992 265.321777
v -250.598022 104.904731 265.321777
v -250.811646 104.690948 265.321777
v -250.948853 104.421554 265.321777
v -250.996216 104.122940 265.321777
v -250.948853 103.824325 265.321777
v -250.811646 103.554939 265.321777
v -250.598022 103.341148 265.321777
v -250.328491 103.203887 265.321777
v -250.029907 103.156593 265.321777
v -249.732056 103.203887 265.321777
v -249.461792 103.341148 265.321777
v -249.248169 103.554939 265.321777
v -249.110962 103.824325 265.321777
v -249.064331 104.122940 265.321777
v -250.029907 104.122940 262.065918
v -249.110962 104.421554 265.912598
v -249.248169 104.690948 265.912598
v -250.029907 104.122940 265.912598
v -249.461792 104.904731 265.912598
v -249.732056 105.041992 265.912598
v -250.029907 105.089286 265.912598
v -250.328491 105.041992 265.912598
v -250.598022 104.904731 265.912598
v -250.811646 104.690948 265.912598
v -250.948853 104.421554 265.912598
v -250.996216 104.122940 265.912598
v -250.948853 103.824325 265.912598
v -250.811646 103.554939 265.912598
v -250.598022 103.341148 265.912598
v -250.328491 103.203887 265.912598
v -250.029907 103.156593 265.912598
v -249.732056 103.203887 265.912598
v -249.461792 103.341148 265.912598
v -249.248169 103.554939 265.912598
v -249.110962 103.824325 265.912598
v -249.064331 104.122940 265.912598
v -257.265503 105.089286 265.346680
v -257.265503 105.041992 265.346680
v -257.502319 105.041992 265.887695
v -257.502319 105.089286 265.887695
v -257.265503 104.904731 265.346680
v -257.502319 104.904731 265.887695
v -257.265503 104.690948 265.346680
v -257.502319 104.690948 265.887695
v -257.265503 104.421554 265.346680
v -257.502319 104.421554 265.887695
v -257.265503 104.122940 265.346680
v -257.502319 104.122940 265.887695
v -257.265503 103.824325 265.346680
v -257.502319 103.824325 265.887695
v -257.265503 103.554939 265.346680
v -257.502319 103.554939 265.887695
v -257.265503 103.341148 265.346680
v -257.502319 103.341148 265.887695
v -257.265503 103.203887 265.346680
v -257.502319 103.203887 265.887695
v -257.265503 103.156593 265.346680
v -257.502319 103.156593 265.887695
v -257.935669 105.089286 264.895508
v -257.935669 105.041992 264.895508
v -258.213013 105.041992 265.270996
v -258.213013 105.089286 265.270996
v -257.935669 104.904731 264.895508
v -258.213013 104.904731 265.270996
v -257.935669 104.690948 264.895508
v -258.213013 104.690948 265.270996
v -257.935669 104.421554 264.895508
v -258.213013 104.421554 265.270996
v -257.935669 104.122940 264.895508
v -258.213013 104.122940 265.270996
v -257.935669 103.824325 264.895508
v -258.213013 103.824325 265.270996
v -257.935669 103.554939 264.895508
v -258.213013 103.554939 265.270996
v -257.935669 103.341148 264.895508
v -258.213013 103.341148 265.270996
v -257.935669 103.203887 264.895508
v -258.213013 103.203887 265.270996
v -257.935669 103.156593 264.895508
v -258.213013 103.156593 265.270996
v -247.106079 95.786911 260.694824
v -247.542603 96.643951 260.694824
v -248.222778 97.324096 260.694824
v -249.079956 97.760780 260.694824
v -250.029907 97.911247 260.694824
v -250.979858 97.760772 260.694824
v -251.837036 97.324096 260.694824
v -252.517212 96.643951 260.694824
v -252.953735 95.786911 260.694824
v -253.104370 94.836883 260.694824
v -252.953735 93.886856 260.694824
v -252.517212 93.029815 260.694824
v -251.837036 92.349670 260.694824
v -250.979858 91.912994 260.694824
v -250.029907 91.762519 260.694824
v -249.079956 91.912994 260.694824
v -248.222778 92.349670 260.694824
v -247.542603 93.029815 260.694824
v -247.106079 93.886856 260.694824
v -246.955444 94.836883 260.694824
v -247.106079 95.786911 262.454590
v -247.542603 96.643951 262.454590
v -248.222778 97.324096 262.454590
v -249.079956 97.760780 262.454590
v -250.029907 97.911247 262.454590
v -250.979858 97.760772 262.454590
v -251.837036 97.324096 262.454590
v -252.517212 96.643951 262.454590
v -252.953735 95.786911 262.454590
v -253.104370 94.836883 262.454590
v -252.953735 93.886856 262.454590
v -252.517212 93.029815 262.454590
v -251.837036 92.349670 262.454590
v -250.979858 91.912994 262.454590
v -250.029907 91.762519 262.454590
v -249.079956 91.912994 262.454590
v -248.222778 92.349670 262.454590
v -247.542603 93.029815 262.454590
v -247.106079 93.886856 262.454590
v -246.955444 94.836883 262.454590
v -250.029907 94.836883 260.694824
v -250.029907 94.836883 262.454590
v -388.043335 -0.000031 457.796387
v -388.043335 -0.000031 482.528809
v -388.043335 249.107955 457.796387
v -388.043335 249.107955 482.528809
v -363.145874 249.107955 457.796387
v -363.145874 249.107955 482.528809
v -363.145874 -0.000031 457.796387
v -363.145874 -0.000031 482.528809
v -371.537720 130.253997 -463.554199
v -371.537720 130.253997 -148.359863
v -371.537720 98.061340 -463.554199
v -371.537720 98.061340 -148.359863
v -374.182251 102.004730 -458.020508
v -370.904175 98.061340 -463.554199
v -374.182251 102.004730 -153.893555
v -370.904175 98.061340 -148.359863
v -374.182251 126.310607 -458.020508
v -370.904175 130.253997 -463.554199
v -374.182251 126.310607 -153.893555
v -370.904175 130.253997 -148.359863
v -370.904175 98.061340 -463.553711
v -370.904175 98.061340 -148.359375
v -370.904175 65.868690 -463.553711
v -370.904175 65.868690 -148.359375
v -373.548706 69.812080 -458.020020
v -370.270630 65.868690 -463.553711
v -373.548706 69.812080 -153.893066
v -370.270630 65.868690 -148.359375
v -373.548706 94.117958 -458.020020
v -370.270630 98.061340 -463.553711
v -373.548706 94.117958 -153.893066
v -370.270630 98.061340 -148.359375
v -372.171509 226.077697 -463.554688
v -372.171509 226.077697 -148.360352
v -372.171509 193.885055 -463.554688
v -372.171509 193.885055 -148.360352
v -374.816040 197.828445 -458.020996
v -371.537964 193.885055 -463.554688
v -374.816040 197.828445 -153.894043
v -371.537964 193.885055 -148.360352
v -374.816040 222.134323 -458.020996
v -371.537964 226.077697 -463.554688
v -374.816040 222.134323 -153.894043
v -371.537964 226.077697 -148.360352
v -370.270386 33.676036 -463.482910
v -370.270386 33.676036 -148.358887
v -370.270386 1.483386 -463.482910
v -370.270386 1.483386 -148.358887
v -372.914917 5.426781 -458.068848
v -369.636841 1.483386 -463.482910
v -372.914917 5.426781 -153.772949
v -369.636841 1.483386 -148.358887
v -372.914917 29.732654 -458.068848
v -369.636841 33.676036 -463.482910
v -372.914917 29.732654 -153.772949
v -369.636841 33.676036 -148.358887
v -372.171509 162.446624 -463.554199
v -372.171509 162.446624 -148.359863
v -372.171509 130.253982 -463.554199
v -372.171509 130.253982 -148.359863
v -374.816040 134.197372 -458.020508
v -371.537964 130.253982 -463.554199
v -374.816040 134.197372 -153.893555
v -371.537964 130.253982 -148.359863
v -374.816040 158.503250 -458.020508
v -371.537964 162.446624 -463.554199
v -374.816040 158.503250 -153.893555
v -371.537964 162.446624 -148.359863
v -370.904175 65.868682 -463.553711
v -370.904175 65.868682 -148.359375
v -370.904175 33.676036 -463.553711
v -370.904175 33.676036 -148.359375
v -373.548706 37.619430 -458.020020
v -370.270630 33.676036 -463.553711
v -373.548706 37.619430 -153.893066
v -370.270630 33.676036 -148.359375
v -373.548706 61.925304 -458.020020
v -370.270630 65.868682 -463.553711
v -373.548706 61.925304 -153.893066
v -370.270630 65.868682 -148.359375
v -372.171509 194.717071 -463.554688
v -372.171509 194.717071 -148.360352
v -372.171509 162.524429 -463.554688
v -372.171509 162.524429 -148.360352
v -374.816040 166.467819 -458.020996
v -371.537964 162.524429 -463.554688
v -374.816040 166.467819 -153.894043
v -371.537964 162.524429 -148.360352
v -374.816040 190.773696 -458.020996
v -371.537964 194.717071 -463.554688
v -374.816040 190.773696 -153.894043
v -371.537964 194.717071 -148.360352
vt 0.017624 0.900554
vt 0.033551 0.900554
vt 0.033551 0.943679
vt 0.017624 0.943679
vt 0.039117 0.900554
vt 0.055045 0.900554
vt 0.055045 0.943679
vt 0.039117 0.943679
vt 0.170033 0.920042
vt 0.170033 0.900830
vt 0.177576 0.900830
vt 0.177576 0.920042
vt 0.181757 0.920042
vt 0.181757 0.900830
vt 0.189300 0.900830
vt 0.189300 0.920042
vt 0.997924 0.922944
vt 0.997924 0.938819
vt 0.990696 0.938819
vt 0.990696 0.922944
vt 0.196800 0.924078
vt 0.196800 0.939953
vt 0.189572 0.939953
vt 0.189572 0.924078
vt 0.707941 0.004791
vt 0.707941 0.418366
vt 0.701508 0.418366
vt 0.701508 0.004791
vt 0.721618 0.004791
vt 0.721618 0.418366
vt 0.715185 0.418366
vt 0.715185 0.004791
vt 0.001992 0.893295
vt 0.001992 0.734046
vt 0.100439 0.734046
vt 0.100439 0.893295
vt 0.203999 0.734046
vt 0.203999 0.893296
vt 0.105552 0.893296
vt 0.105552 0.734046
vt 0.249250 0.830824
vt 0.249250 0.912851
vt 0.240375 0.912851
vt 0.240375 0.830824
vt 0.224744 0.912853
vt 0.224744 0.830826
vt 0.233618 0.830826
vt 0.233618 0.912853
vt 0.467034 0.857868
vt 0.467034 0.733962
vt 0.556068 0.733962
vt 0.556068 0.857868
vt 0.459968 0.734507
vt 0.459968 0.873369
vt 0.361520 0.873369
vt 0.361520 0.734507
vt 0.840238 0.998008
vt 0.840238 0.859146
vt 0.840803 0.864835
vt 0.840803 0.988741
vt 0.938686 0.859146
vt 0.929837 0.864835
vt 0.938686 0.998008
vt 0.929837 0.988741
vt 0.467034 0.865884
vt 0.552527 0.865884
vt 0.552527 0.964005
vt 0.467034 0.964005
vt 0.447014 0.979585
vt 0.361520 0.979585
vt 0.361520 0.881464
vt 0.447014 0.881464
vt 0.994604 0.701271
vt 0.998008 0.701271
vt 0.998008 0.742284
vt 0.994604 0.742284
vt 0.994604 0.660258
vt 0.998008 0.660258
vt 0.998008 0.831869
vt 0.994604 0.831869
vt 0.994604 0.790856
vt 0.998008 0.790856
vt 0.994604 0.749843
vt 0.998008 0.749843
vt 0.085399 0.903930
vt 0.085399 0.927499
vt 0.084058 0.926908
vt 0.084058 0.904521
vt 0.086689 0.901884
vt 0.086690 0.929541
vt 0.093165 0.927499
vt 0.093165 0.903930
vt 0.094506 0.904521
vt 0.094506 0.926908
vt 0.091874 0.901888
vt 0.091875 0.929544
vt 0.101031 0.903814
vt 0.101031 0.927383
vt 0.099690 0.926792
vt 0.099690 0.904405
vt 0.102321 0.901769
vt 0.102321 0.929425
vt 0.108797 0.927383
vt 0.108797 0.903814
vt 0.110137 0.904405
vt 0.110137 0.926792
vt 0.107506 0.901772
vt 0.107506 0.929429
vt 0.832811 0.940380
vt 0.832811 0.940718
vt 0.832422 0.940718
vt 0.832422 0.940380
vt 0.832811 0.940986
vt 0.832422 0.940986
vt 0.832811 0.940006
vt 0.832422 0.940006
vt 0.832811 0.939632
vt 0.832422 0.939632
vt 0.832811 0.939294
vt 0.832422 0.939294
vt 0.832811 0.939027
vt 0.832422 0.939027
vt 0.799205 0.942660
vt 0.799205 0.942322
vt 0.799594 0.942322
vt 0.799594 0.942660
vt 0.799205 0.941948
vt 0.799594 0.941948
vt 0.799205 0.942928
vt 0.799594 0.942928
vt 0.799205 0.941574
vt 0.799594 0.941574
vt 0.799205 0.941236
vt 0.799594 0.941236
vt 0.799205 0.940968
vt 0.799594 0.940968
vt 0.823079 0.939243
vt 0.823186 0.939243
vt 0.823186 0.940525
vt 0.823079 0.940525
vt 0.823270 0.939243
vt 0.823270 0.940525
vt 0.823186 0.940758
vt 0.823079 0.940758
vt 0.822962 0.939243
vt 0.822962 0.940525
vt 0.823270 0.940758
vt 0.822962 0.940758
vt 0.822843 0.939243
vt 0.822843 0.940525
vt 0.822843 0.940758
vt 0.822737 0.939243
vt 0.822737 0.940525
vt 0.822737 0.940758
vt 0.822653 0.939243
vt 0.822653 0.940525
vt 0.822653 0.940758
vt 0.991230 0.947297
vt 0.991123 0.947297
vt 0.991123 0.946014
vt 0.991230 0.946014
vt 0.991005 0.947297
vt 0.991005 0.946014
vt 0.991314 0.947297
vt 0.991314 0.946014
vt 0.990887 0.947297
vt 0.990887 0.946014
vt 0.990781 0.947297
vt 0.990781 0.946014
vt 0.990696 0.947297
vt 0.990696 0.946014
vt 0.807716 0.942559
vt 0.807716 0.942897
vt 0.807021 0.942897
vt 0.807021 0.942559
vt 0.807716 0.943165
vt 0.807021 0.943165
vt 0.807716 0.942185
vt 0.807021 0.942185
vt 0.807716 0.941811
vt 0.807021 0.941811
vt 0.807716 0.941473
vt 0.807021 0.941473
vt 0.807716 0.941206
vt 0.807021 0.941206
vt 0.814837 0.942897
vt 0.814837 0.942559
vt 0.815532 0.942559
vt 0.815532 0.942897
vt 0.814837 0.942185
vt 0.815532 0.942185
vt 0.814837 0.943165
vt 0.815532 0.943165
vt 0.814837 0.941811
vt 0.815532 0.941811
vt 0.814837 0.941473
vt 0.815532 0.941473
vt 0.814837 0.941206
vt 0.815532 0.941206
vt 0.922306 0.003146
vt 0.932081 0.003146
vt 0.932081 0.101267
vt 0.922306 0.101267
vt 0.707374 0.833517
vt 0.697600 0.833517
vt 0.697600 0.735395
vt 0.707374 0.735395
vt 0.958477 0.003558
vt 0.958477 0.127710
vt 0.945754 0.127710
vt 0.945754 0.003558
vt 0.966853 0.125530
vt 0.966853 0.005738
vt 0.976458 0.005738
vt 0.976458 0.125530
vt 0.965294 0.127710
vt 0.965294 0.003558
vt 0.978017 0.003558
vt 0.978017 0.127710
vt 0.958477 0.134992
vt 0.958477 0.259144
vt 0.945754 0.259144
vt 0.945754 0.134992
vt 0.966853 0.256965
vt 0.966853 0.137172
vt 0.976458 0.137172
vt 0.976458 0.256965
vt 0.965294 0.259144
vt 0.965294 0.134992
vt 0.978017 0.134992
vt 0.978017 0.259144
vt 0.958477 0.265264
vt 0.958477 0.389416
vt 0.945754 0.389416
vt 0.945754 0.265264
vt 0.966853 0.387236
vt 0.966853 0.267443
vt 0.976458 0.267443
vt 0.976458 0.387236
vt 0.965294 0.389416
vt 0.965294 0.265264
vt 0.978017 0.265264
vt 0.978017 0.389416
vt 0.985833 0.654941
vt 0.985833 0.779066
vt 0.973110 0.779066
vt 0.973110 0.654941
vt 0.947313 0.778882
vt 0.947313 0.659023
vt 0.956918 0.659023
vt 0.956918 0.778882
vt 0.945754 0.781015
vt 0.945754 0.656890
vt 0.958477 0.656890
vt 0.958477 0.781015
vt 0.958477 0.395999
vt 0.958477 0.520151
vt 0.945754 0.520151
vt 0.945754 0.395999
vt 0.966853 0.517972
vt 0.966853 0.398179
vt 0.976458 0.398179
vt 0.976458 0.517972
vt 0.965294 0.520151
vt 0.965294 0.395999
vt 0.978017 0.395999
vt 0.978017 0.520151
vt 0.935029 0.498181
vt 0.935029 0.622334
vt 0.922306 0.622334
vt 0.922306 0.498181
vt 0.923865 0.489672
vt 0.923865 0.369879
vt 0.933470 0.369879
vt 0.933470 0.489672
vt 0.922306 0.491852
vt 0.922306 0.367699
vt 0.935029 0.367699
vt 0.935029 0.491852
vt 0.935029 0.106854
vt 0.935029 0.231006
vt 0.922306 0.231006
vt 0.922306 0.106854
vt 0.947313 0.647532
vt 0.947313 0.527739
vt 0.956918 0.527739
vt 0.956918 0.647532
vt 0.945754 0.649712
vt 0.945754 0.525560
vt 0.958477 0.525560
vt 0.958477 0.649712
vt 0.193480 0.898560
vt 0.204626 0.898560
vt 0.204626 0.914434
vt 0.193480 0.914434
vt 0.717139 0.924026
vt 0.728285 0.924026
vt 0.728285 0.939901
vt 0.717139 0.939901
vt 0.226227 0.936419
vt 0.237373 0.936419
vt 0.238857 0.938087
vt 0.224744 0.938087
vt 0.237373 0.920544
vt 0.238857 0.918875
vt 0.226227 0.920544
vt 0.224744 0.918875
vt 0.182663 0.925824
vt 0.171516 0.925824
vt 0.170033 0.924156
vt 0.184146 0.924156
vt 0.171516 0.941699
vt 0.170033 0.943367
vt 0.182663 0.941699
vt 0.184146 0.943367
vt 0.020164 0.022458
vt 0.326866 0.022458
vt 0.326866 0.403521
vt 0.020164 0.403520
vt 0.001992 0.006670
vt 0.345045 0.006670
vt 0.345045 0.420245
vt 0.001992 0.420245
vt 0.369923 0.400587
vt 0.369922 0.019525
vt 0.523242 0.215539
vt 0.351751 0.416376
vt 0.351750 0.002801
vt 0.676624 0.019525
vt 0.676624 0.400587
vt 0.694803 0.416376
vt 0.694804 0.002800
vt 0.915997 0.227034
vt 0.756218 0.227034
vt 0.756218 0.001992
vt 0.915997 0.001992
vt 0.915997 0.307678
vt 0.756218 0.307678
vt 0.756218 0.315959
vt 0.915997 0.315959
vt 0.915997 0.541001
vt 0.756218 0.541001
vt 0.915997 0.621645
vt 0.756218 0.621645
vt 0.209112 0.879557
vt 0.209112 0.837710
vt 0.217986 0.837710
vt 0.217986 0.879557
vt 0.217986 0.889213
vt 0.217986 0.931061
vt 0.209112 0.931061
vt 0.209112 0.889213
vt 0.727502 0.725486
vt 0.588179 0.725486
vt 0.588179 0.419799
vt 0.727502 0.419799
vt 0.007854 0.422025
vt 0.147178 0.422025
vt 0.147178 0.727711
vt 0.007854 0.727711
vt 0.670244 0.856768
vt 0.670244 0.732862
vt 0.677233 0.732862
vt 0.677233 0.856768
vt 0.683922 0.858675
vt 0.683922 0.734768
vt 0.690911 0.734768
vt 0.690911 0.858675
vt 0.343454 0.647792
vt 0.257961 0.647792
vt 0.257961 0.422949
vt 0.343454 0.422949
vt 0.840238 0.628258
vt 0.925732 0.628258
vt 0.925732 0.853102
vt 0.840238 0.853102
vt 0.991987 0.912958
vt 0.991987 0.889239
vt 0.993327 0.889830
vt 0.993327 0.912367
vt 0.990697 0.887187
vt 0.990696 0.915007
vt 0.061951 0.903357
vt 0.061951 0.927075
vt 0.060611 0.926485
vt 0.060611 0.903948
vt 0.063242 0.901308
vt 0.063242 0.929128
vt 0.994604 0.840270
vt 0.998008 0.840270
vt 0.998008 0.881509
vt 0.994604 0.881509
vt 0.069718 0.925777
vt 0.069718 0.902059
vt 0.071058 0.902650
vt 0.071058 0.925186
vt 0.068427 0.900006
vt 0.068427 0.927826
vt 0.077583 0.903357
vt 0.077583 0.927075
vt 0.076243 0.926485
vt 0.076243 0.903948
vt 0.078874 0.901308
vt 0.078874 0.929128
vt 0.456760 0.880280
vt 0.456760 0.921519
vt 0.453356 0.921519
vt 0.453356 0.880280
vt 0.201685 0.941319
vt 0.201685 0.941657
vt 0.201296 0.941657
vt 0.201296 0.941319
vt 0.201685 0.942031
vt 0.201296 0.942031
vt 0.201685 0.942405
vt 0.201296 0.942405
vt 0.201685 0.942743
vt 0.201296 0.942743
vt 0.224744 0.948190
vt 0.224744 0.947852
vt 0.225132 0.947852
vt 0.225132 0.948190
vt 0.224744 0.947478
vt 0.225132 0.947478
vt 0.224744 0.947104
vt 0.225132 0.947104
vt 0.224744 0.946766
vt 0.225132 0.946766
vt 0.062131 0.935461
vt 0.062131 0.935568
vt 0.060844 0.935568
vt 0.060844 0.935461
vt 0.062131 0.935685
vt 0.060844 0.935685
vt 0.060611 0.935568
vt 0.060611 0.935461
vt 0.062131 0.935803
vt 0.060844 0.935803
vt 0.060611 0.935685
vt 0.062131 0.935909
vt 0.060844 0.935909
vt 0.060835 0.938535
vt 0.060621 0.938628
vt 0.061013 0.938799
vt 0.060864 0.938908
vt 0.246237 0.941308
vt 0.246237 0.941202
vt 0.247524 0.941202
vt 0.247524 0.941308
vt 0.246237 0.941084
vt 0.247524 0.941084
vt 0.246237 0.940967
vt 0.247524 0.940967
vt 0.246237 0.940861
vt 0.247524 0.940861
vt 0.247757 0.940967
vt 0.247757 0.941084
vt 0.247757 0.940861
vt 0.247748 0.944028
vt 0.247534 0.943935
vt 0.247504 0.944308
vt 0.247356 0.944198
vt 0.233255 0.943268
vt 0.233255 0.943605
vt 0.232560 0.943605
vt 0.232560 0.943268
vt 0.233255 0.943980
vt 0.232560 0.943980
vt 0.233255 0.944354
vt 0.232560 0.944354
vt 0.233255 0.944691
vt 0.232560 0.944691
vt 0.453356 0.948192
vt 0.453356 0.947855
vt 0.454051 0.947855
vt 0.454051 0.948192
vt 0.453356 0.947480
vt 0.454051 0.947480
vt 0.453356 0.947106
vt 0.454051 0.947106
vt 0.453356 0.946769
vt 0.454051 0.946769
vt 0.216932 0.946572
vt 0.207158 0.946572
vt 0.207158 0.936765
vt 0.216932 0.936765
vt 0.734725 0.940992
vt 0.744499 0.940992
vt 0.744499 0.950799
vt 0.734725 0.950799
vt 0.985085 0.003603
vt 0.985085 0.127755
vt 0.984834 0.127755
vt 0.984834 0.003603
vt 0.992650 0.127318
vt 0.992650 0.003166
vt 0.992901 0.003166
vt 0.992901 0.127318
vt 0.990947 0.134084
vt 0.990947 0.258236
vt 0.990696 0.258236
vt 0.990696 0.134084
vt 0.996558 0.262510
vt 0.996558 0.138358
vt 0.996809 0.138358
vt 0.996809 0.262510
vt 0.985085 0.264565
vt 0.985085 0.388717
vt 0.984834 0.388717
vt 0.984834 0.264565
vt 0.996558 0.392991
vt 0.996558 0.268839
vt 0.996809 0.268839
vt 0.996809 0.392991
vt 0.992901 0.530266
vt 0.992901 0.654391
vt 0.992650 0.654391
vt 0.992650 0.530266
vt 0.965294 0.779699
vt 0.965294 0.655575
vt 0.965545 0.655575
vt 0.965545 0.779699
vt 0.985085 0.395047
vt 0.985085 0.519199
vt 0.984834 0.519199
vt 0.984834 0.395047
vt 0.992650 0.523472
vt 0.992650 0.399320
vt 0.992901 0.399320
vt 0.992901 0.523472
vt 0.930373 0.239253
vt 0.930373 0.363405
vt 0.930122 0.363405
vt 0.930122 0.239253
vt 0.922306 0.361021
vt 0.922306 0.236869
vt 0.922557 0.236869
vt 0.922557 0.361021
vt 0.981177 0.525529
vt 0.981177 0.649681
vt 0.980926 0.649681
vt 0.980926 0.525529
vt 0.965294 0.649246
vt 0.965294 0.525094
vt 0.965545 0.525094
vt 0.965545 0.649246
vt 0.717139 0.872877
vt 0.728285 0.872877
vt 0.728285 0.916003
vt 0.717139 0.916003
vt 0.001992 0.900503
vt 0.013138 0.900503
vt 0.013138 0.943628
vt 0.001992 0.943628
vt 0.115322 0.944734
vt 0.115322 0.930668
vt 0.122865 0.930668
vt 0.122865 0.944734
vt 0.134589 0.930607
vt 0.134589 0.944674
vt 0.127046 0.944674
vt 0.127046 0.930607
vt 0.082105 0.944985
vt 0.082105 0.933876
vt 0.089332 0.933876
vt 0.089332 0.944985
vt 0.073700 0.936198
vt 0.073700 0.947307
vt 0.066473 0.947307
vt 0.066473 0.936198
vt 0.742541 0.346840
vt 0.742541 0.004924
vt 0.748973 0.004924
vt 0.748973 0.346840
vt 0.735296 0.005565
vt 0.735296 0.347482
vt 0.728863 0.347482
vt 0.728863 0.005565
vt 0.456060 0.646328
vt 0.357612 0.646328
vt 0.357612 0.421287
vt 0.456060 0.421287
vt 0.439911 0.667438
vt 0.357612 0.667438
vt 0.456060 0.726973
vt 0.439911 0.709286
vt 0.357612 0.726973
vt 0.357612 0.709286
vt 0.561573 0.421959
vt 0.561573 0.647000
vt 0.463126 0.647000
vt 0.463126 0.421959
vt 0.561573 0.727645
vt 0.463126 0.727645
vt 0.945754 0.787980
vt 0.987741 0.787980
vt 0.987741 0.870006
vt 0.945754 0.870006
vt 0.152447 0.728920
vt 0.152447 0.423234
vt 0.250894 0.423234
vt 0.250894 0.728920
vt 0.833172 0.626441
vt 0.833172 0.932127
vt 0.734725 0.932127
vt 0.734725 0.626441
vt 0.226698 0.823888
vt 0.226698 0.735149
vt 0.233686 0.735149
vt 0.233686 0.823888
vt 0.240375 0.822753
vt 0.240375 0.734013
vt 0.247364 0.734013
vt 0.247364 0.822753
vt 0.256007 0.957253
vt 0.256007 0.732409
vt 0.354454 0.732409
vt 0.354454 0.957253
vt 0.663178 0.735022
vt 0.663178 0.959866
vt 0.564731 0.959866
vt 0.564731 0.735022
vt 0.115322 0.923088
vt 0.115322 0.900551
vt 0.137784 0.900551
vt 0.137784 0.923088
vt 0.711621 0.908075
vt 0.670244 0.908075
vt 0.670244 0.867062
vt 0.711621 0.867062
vt 0.711621 0.949088
vt 0.670244 0.949088
vt 0.943800 0.918577
vt 0.985176 0.918577
vt 0.978446 0.925254
vt 0.950534 0.925257
vt 0.950531 0.911900
vt 0.978443 0.911897
vt 0.985176 0.959590
vt 0.978443 0.952910
vt 0.943800 0.959590
vt 0.950531 0.952913
vt 0.943800 0.877564
vt 0.950534 0.884244
vt 0.985176 0.877564
vt 0.978446 0.884241
vt 0.142677 0.922972
vt 0.142677 0.900436
vt 0.165139 0.900436
vt 0.165139 0.922972
vt 0.760627 0.940204
vt 0.760966 0.940032
vt 0.761341 0.941183
vt 0.761341 0.939972
vt 0.760358 0.940472
vt 0.761717 0.940032
vt 0.760186 0.940809
vt 0.762055 0.940204
vt 0.760126 0.941183
vt 0.762324 0.940472
vt 0.760186 0.941558
vt 0.762497 0.940809
vt 0.760358 0.941895
vt 0.762556 0.941183
vt 0.760627 0.942163
vt 0.762497 0.941558
vt 0.760966 0.942335
vt 0.762324 0.941895
vt 0.761341 0.942394
vt 0.762055 0.942163
vt 0.761717 0.942335
vt 0.771486 0.940796
vt 0.771825 0.940968
vt 0.771111 0.941948
vt 0.772094 0.941236
vt 0.771111 0.940737
vt 0.772266 0.941574
vt 0.770735 0.940796
vt 0.772326 0.941948
vt 0.770397 0.940968
vt 0.772266 0.942322
vt 0.770128 0.941236
vt 0.772094 0.942660
vt 0.769955 0.941574
vt 0.771825 0.942928
vt 0.769896 0.941948
vt 0.771486 0.943100
vt 0.769955 0.942322
vt 0.771111 0.943159
vt 0.770128 0.942660
vt 0.770735 0.943100
vt 0.770397 0.942928
vt 0.717830 0.948338
vt 0.717884 0.948444
vt 0.717521 0.948562
vt 0.717903 0.948562
vt 0.717746 0.948254
vt 0.717884 0.948679
vt 0.717639 0.948200
vt 0.717830 0.948785
vt 0.717521 0.948181
vt 0.717746 0.948870
vt 0.717403 0.948200
vt 0.717639 0.948924
vt 0.717297 0.948254
vt 0.717521 0.948942
vt 0.717212 0.948338
vt 0.717403 0.948924
vt 0.717158 0.948444
vt 0.717297 0.948870
vt 0.717139 0.948562
vt 0.717212 0.948785
vt 0.717158 0.948679
vt 0.106052 0.936269
vt 0.106158 0.936323
vt 0.105934 0.936631
vt 0.106243 0.936407
vt 0.105934 0.936251
vt 0.106297 0.936514
vt 0.105816 0.936269
vt 0.106316 0.936631
vt 0.105709 0.936323
vt 0.106297 0.936749
vt 0.105625 0.936407
vt 0.106316 0.939574
vt 0.106297 0.939574
vt 0.106243 0.936855
vt 0.105571 0.936514
vt 0.106316 0.939854
vt 0.106297 0.939854
vt 0.106243 0.939574
vt 0.106158 0.936939
vt 0.105552 0.936631
vt 0.106243 0.939854
vt 0.106158 0.939574
vt 0.106052 0.936993
vt 0.105571 0.936749
vt 0.106158 0.939854
vt 0.106052 0.939574
vt 0.105934 0.937012
vt 0.105571 0.939574
vt 0.105552 0.939574
vt 0.105625 0.936855
vt 0.106052 0.939854
vt 0.105934 0.939574
vt 0.105816 0.936993
vt 0.105625 0.939574
vt 0.105571 0.939854
vt 0.105552 0.939854
vt 0.105709 0.936939
vt 0.105934 0.939854
vt 0.105816 0.939574
vt 0.105709 0.939574
vt 0.105625 0.939854
vt 0.105816 0.939854
vt 0.105709 0.939854
vt 0.752310 0.939572
vt 0.752329 0.939689
vt 0.752329 0.942422
vt 0.752310 0.942422
vt 0.752383 0.939796
vt 0.752383 0.942422
vt 0.752329 0.942686
vt 0.752310 0.942686
vt 0.752468 0.939880
vt 0.752468 0.942422
vt 0.752383 0.942686
vt 0.752329 0.942795
vt 0.752310 0.942795
vt 0.752574 0.939934
vt 0.752574 0.942422
vt 0.752468 0.942686
vt 0.752383 0.942795
vt 0.752692 0.939952
vt 0.752692 0.942422
vt 0.752574 0.942686
vt 0.752468 0.942795
vt 0.752810 0.939934
vt 0.752810 0.942422
vt 0.752692 0.942686
vt 0.752574 0.942795
vt 0.752917 0.939880
vt 0.752917 0.942422
vt 0.752810 0.942686
vt 0.752692 0.942795
vt 0.753001 0.939796
vt 0.753001 0.942422
vt 0.752917 0.942686
vt 0.752810 0.942795
vt 0.753056 0.939689
vt 0.753056 0.942422
vt 0.753001 0.942686
vt 0.752917 0.942795
vt 0.753074 0.939572
vt 0.753074 0.942422
vt 0.753056 0.942686
vt 0.753001 0.942795
vt 0.753074 0.942686
vt 0.753056 0.942795
vt 0.753074 0.942795
vt 0.780166 0.939966
vt 0.780505 0.939795
vt 0.780881 0.940946
vt 0.780881 0.939735
vt 0.779898 0.940234
vt 0.781256 0.939795
vt 0.779725 0.940572
vt 0.781595 0.939966
vt 0.779666 0.940946
vt 0.781864 0.940234
vt 0.779725 0.941320
vt 0.782036 0.940572
vt 0.779898 0.941658
vt 0.782096 0.940946
vt 0.780166 0.941926
vt 0.782036 0.941320
vt 0.780505 0.942098
vt 0.781864 0.941658
vt 0.780881 0.942157
vt 0.781595 0.941926
vt 0.781256 0.942098
vt 0.791026 0.941034
vt 0.791364 0.941206
vt 0.790650 0.942185
vt 0.791633 0.941473
vt 0.790650 0.940974
vt 0.791806 0.941811
vt 0.790275 0.941034
vt 0.791865 0.942185
vt 0.789936 0.941206
vt 0.791806 0.942559
vt 0.789667 0.941473
vt 0.791633 0.942897
vt 0.789495 0.941811
vt 0.791364 0.943165
vt 0.789435 0.942185
vt 0.791026 0.943337
vt 0.789495 0.942559
vt 0.790650 0.943396
vt 0.789667 0.942897
vt 0.790275 0.943337
vt 0.789936 0.943165
vt 0.715185 0.735395
vt 0.725025 0.735395
vt 0.725025 0.833517
vt 0.715185 0.833517
vt 0.218952 0.834189
vt 0.209112 0.834189
vt 0.209112 0.736068
vt 0.218952 0.736068
vt 0.938189 0.095569
vt 0.937938 0.095569
vt 0.937938 0.082889
vt 0.938189 0.082889
vt 0.937938 0.064293
vt 0.938189 0.064293
vt 0.938189 0.076974
vt 0.937938 0.076974
vt 0.938189 0.057614
vt 0.937938 0.057614
vt 0.937938 0.044934
vt 0.938189 0.044934
vt 0.937938 0.024348
vt 0.938189 0.024348
vt 0.938189 0.037028
vt 0.937938 0.037028
vt 0.938189 0.018874
vt 0.937938 0.018874
vt 0.937938 0.006194
vt 0.938189 0.006194
vt 0.246237 0.920826
vt 0.246488 0.920826
vt 0.246488 0.933507
vt 0.246237 0.933507
vt 0.201547 0.936820
vt 0.201296 0.936820
vt 0.201296 0.924140
vt 0.201547 0.924140
vt 0.138769 0.930731
vt 0.139020 0.930731
vt 0.139020 0.943412
vt 0.138769 0.943412
vt 0.144882 0.942576
vt 0.144631 0.942576
vt 0.144631 0.929895
vt 0.144882 0.929895
vt 0.150493 0.928871
vt 0.150744 0.928871
vt 0.150744 0.941551
vt 0.150493 0.941551
vt 0.156605 0.941667
vt 0.156355 0.941667
vt 0.156355 0.928987
vt 0.156605 0.928987
vt 0.162217 0.929779
vt 0.162467 0.929779
vt 0.162467 0.942460
vt 0.162217 0.942460
vt 0.459468 0.941553
vt 0.459218 0.941553
vt 0.459218 0.928873
vt 0.459468 0.928873
vt 0.095782 0.933791
vt 0.096033 0.933791
vt 0.096033 0.946472
vt 0.095782 0.946472
vn 0.000000 0.000000 1.000000
vn 0.000000 0.000000 1.000000
vn 0.000000 0.000000 1.000000
vn 0.000000 0.000000 1.000000
vn 0.000000 1.000000 0.000000
vn 0.000000 1.000000 0.000000
vn 0.000000 1.000000 0.000000
vn 0.000000 1.000000 0.000000
vn 0.000000 0.000000 -1.000000
vn 0.000000 0.000000 -1.000000
vn 0.000000 0.000000 -1.000000
vn 0.000000 0.000000 -1.000000
vn 0.000000 -1.000000 0.000000
vn 0.000000 -1.000000 0.000000
vn 0.000000 -1.000000 0.000000
vn 0.000000 -1.000000 0.000000
vn 1.000000 0.000000 0.000000
vn 1.000000 0.000000 0.000000
vn 1.000000 0.000000 0.000000
vn 1.000000 0.000000 0.000000
vn -1.000000 0.000000 0.000000
vn -1.000000 0.000000 0.000000
vn -1.000000 0.000000 0.000000
vn -1.000000 0.000000 0.000000
vn 0.000000 0.000000 1.000000
vn 0.000000 0.000000 1.000000
vn 0.000000 0.000000 1.000000
vn 0.000000 0.000000 1.000000
vn 1.000000 0.000000 0.000000
vn 1.000000 0.000000 0.000000
vn 1.000000 0.000000 0.000000
vn 1.000000 0.000000 0.000000
vn 0.000000 0.000000 -1.000000
vn 0.000000 0.000000 -1.000000
vn 0.000000 0.000000 -1.000000
vn 0.000000 0.000000 -1.000000
vn -1.000000 0.000000 0.000000
vn -1.000000 0.000000 0.000000
vn -1.000000 0.000000 0.000000
vn -1.000000 0.000000 0.000000
vn 0.000000 -1.000000 -0.000001
vn 0.000000 -1.000000 -0.000001
vn 0.000000 -1.000000 -0.000001
vn 0.000000 -1.000000 -0.000001
vn 0.000000 1.000000 -0.000002
vn 0.000000 1.000000 -0.000002
vn 0.000000 1.000000 -0.000002
vn 0.000000 1.000000 -0.000002
vn 0.000000 -1.000000 0.000000
vn 0.000000 -1.000000 0.000000
vn 0.000000 -1.000000 0.000000
vn 0.000000 -1.000000 0.000000
vn 0.000000 1.000000 0.000000
vn 0.000000 1.000000 0.000000
vn 0.000000 1.000000 0.000000
vn 0.000000 1.000000 0.000000
vn 0.000000 -1.000000 0.000001
vn 0.000000 -1.000000 0.000001
vn 0.000000 -1.000000 0.000001
vn 0.000000 -1.000000 0.000001
vn 0.000000 1.000000 0.000002
vn 0.000000 1.000000 0.000002
vn 0.000000 1.000000 0.000002
vn 0.000000 1.000000 0.000002
vn 0.000000 -1.000000 0.000000
vn 0.000000 -1.000000 0.000000
vn 0.000000 -1.000000 0.000000
vn 0.000000 -1.000000 0.000000
vn 0.000000 1.000000 0.000000
vn 0.000000 1.000000 0.000000
vn 0.000000 1.000000 0.000000
vn 0.000000 1.000000 0.000000
vn 0.000000 0.000000 -1.000000
vn 0.000000 0.000000 -1.000000
vn 0.000000 0.000000 -1.000000
vn 0.000000 0.000000 -1.000000
vn -1.000000 0.000000 0.000000
vn -1.000000 0.000000 0.000000
vn -1.000000 0.000000 0.000000
vn -1.000000 0.000000 0.000000
vn 0.000000 0.000000 1.000000
vn 0.000000 0.000000 1.000000
vn 0.000000 0.000000 1.000000
vn 0.000000 0.000000 1.000000
vn 1.000000 0.000000 0.000000
vn 1.000000 0.000000 0.000000
vn 1.000000 0.000000 0.000000
vn 1.000000 0.000000 0.000000
vn 0.000000 -1.000000 -0.000000
vn 0.000000 -1.000000 -0.000000
vn 0.000000 -1.000000 -0.000000
vn 0.000000 -1.000000 -0.000000
vn -0.366847 0.930281 -0.000000
vn -0.366847 0.930281 -0.000000
vn -0.366847 0.930281 -0.000000
vn -0.000000 0.955851 0.293853
vn -0.000000 0.955851 0.293853
vn -0.000000 0.955851 0.293853
vn 0.366718 0.930332 -0.000000
vn 0.366718 0.930332 -0.000000
vn 0.366718 0.930332 -0.000000
vn -0.000000 0.950854 -0.309640
vn -0.000000 0.950854 -0.309640
vn -0.000000 0.950854 -0.309640
vn -0.000001 0.000000 -1.000000
vn -0.000001 0.000000 -1.000000
vn -0.000001 0.000000 -1.000000
vn -0.000001 0.000000 -1.000000
vn 1.000000 0.000000 -0.000001
vn 1.000000 0.000000 -0.000001
vn 1.000000 0.000000 -0.000001
vn 1.000000 0.000000 -0.000001
vn -0.000001 0.000000 1.000000
vn -0.000001 0.000000 1.000000
vn -0.000001 0.000000 1.000000
vn -0.000001 0.000000 1.000000
vn -1.000000 0.000000 -0.000001
vn -1.000000 0.000000 -0.000001
vn -1.000000 0.000000 -0.000001
vn -1.000000 0.000000 -0.000001
vn 0.000000 1.000000 -0.000000
vn 0.000000 1.000000 -0.000000
vn 0.000000 1.000000 -0.000000
vn 0.000000 1.000000 -0.000000
vn 0.000000 -1.000000 -0.000000
vn 0.000000 -1.000000 -0.000000
vn 0.000000 -1.000000 -0.000000
vn 0.000000 -1.000000 -0.000000
vn 0.000000 1.000000 0.000000
vn 0.000000 1.000000 0.000000
vn 0.000000 1.000000 0.000000
vn 0.000000 1.000000 0.000000
vn 0.000000 -1.000000 0.000000
vn 0.000000 -1.000000 0.000000
vn 0.000000 -1.000000 0.000000
vn 0.000000 -1.000000 0.000000
vn 0.000000 1.000000 0.000000
vn 0.000000 1.000000 0.000000
vn 0.000000 1.000000 0.000000
vn 0.000000 1.000000 0.000000
vn 0.000000 -1.000000 -0.000000
vn 0.000000 -1.000000 -0.000000
vn 0.000000 -1.000000 -0.000000
vn 0.000000 -1.000000 -0.000000
vn 0.000000 1.000000 0.000000
vn 0.000000 1.000000 0.000000
vn 0.000000 1.000000 0.000000
vn 0.000000 1.000000 0.000000
vn 0.000000 -1.000000 0.000000
vn 0.000000 -1.000000 0.000000
vn 0.000000 -1.000000 0.000000
vn 0.000000 -1.000000 0.000000
vn -1.000000 0.000000 0.000000
vn -1.000000 0.000000 0.000000
vn -1.000000 0.000000 0.000000
vn -1.000000 0.000000 0.000000
vn 0.000000 1.000000 0.000000
vn 0.000000 1.000000 0.000000
vn 0.000000 1.000000 0.000000
vn 0.000000 1.000000 0.000000
vn 1.000000 0.000000 0.000000
vn 1.000000 0.000000 0.000000
vn 1.000000 0.000000 0.000000
vn 1.000000 0.000000 0.000000
vn 0.000000 -1.000000 -0.000000
vn 0.000000 -1.000000 -0.000000
vn 0.000000 -1.000000 -0.000000
vn 0.000000 -1.000000 -0.000000
vn 0.000000 0.000000 1.000000
vn 0.000000 0.000000 1.000000
vn 0.000000 0.000000 1.000000
vn 0.000000 0.000000 1.000000
vn 0.000000 0.000000 -1.000000
vn 0.000000 0.000000 -1.000000
vn 0.000000 0.000000 -1.000000
vn 0.000000 0.000000 -1.000000
vn 0.000000 -1.000000 -0.000000
vn 0.000000 -1.000000 -0.000000
vn 0.000000 0.000000 -1.000000
vn 0.000000 0.000000 -1.000000
vn 0.000000 1.000000 0.000000
vn 0.000000 1.000000 0.000000
vn 0.000000 0.000000 1.000000
vn 0.000000 0.000000 1.000000
vn 0.000000 0.000000 1.000000
vn 0.000000 0.000000 1.000000
vn 0.000000 0.000000 0.000000
vn 0.000000 0.000000 0.000000
vn 0.000000 0.000000 1.000000
vn 0.000000 0.000000 1.000000
vn 0.000001 0.000000 1.000000
vn 0.000001 0.000000 1.000000
vn 0.000001 0.000000 1.000000
vn 0.000001 0.000000 1.000000
vn 0.000000 0.000000 1.000000
vn 0.000000 0.000000 1.000000
vn 0.000000 0.000000 1.000000
vn 0.000000 0.000000 1.000000
vn 0.000003 0.000000 1.000000
vn 0.000003 0.000000 1.000000
vn 0.000003 0.000000 1.000000
vn 0.000003 0.000000 1.000000
vn 0.000000 1.000000 0.000000
vn 0.000000 1.000000 0.000000
vn 0.000000 1.000000 0.000000
vn 0.000000 1.000000 0.000000
vn -1.000000 0.000000 0.000000
vn -1.000000 0.000000 0.000000
vn -1.000000 0.000000 0.000000
vn -1.000000 0.000000 0.000000
vn 0.000000 -1.000000 0.000000
vn 0.000000 -1.000000 0.000000
vn 0.000000 -1.000000 0.000000
vn 0.000000 -1.000000 0.000000
vn 1.000000 0.000000 0.000000
vn 1.000000 0.000000 0.000000
vn 1.000000 0.000000 0.000000
vn 1.000000 0.000000 0.000000
vn -1.000000 0.000000 0.000000
vn -1.000000 0.000000 0.000000
vn -1.000000 0.000000 0.000000
vn -1.000000 0.000000 0.000000
vn 0.000000 1.000000 0.000000
vn 0.000000 1.000000 0.000000
vn 0.000000 1.000000 0.000000
vn 0.000000 1.000000 0.000000
vn 1.000000 0.000000 0.000000
vn 1.000000 0.000000 0.000000
vn 1.000000 0.000000 0.000000
vn 1.000000 0.000000 0.000000
vn 0.000000 -1.000000 0.000000
vn 0.000000 -1.000000 0.000000
vn 0.000000 -1.000000 0.000000
vn 0.000000 -1.000000 0.000000
vn 0.000000 0.000000 1.000000
vn 0.000000 0.000000 1.000000
vn 0.000000 0.000000 1.000000
vn 0.000000 0.000000 1.000000
vn 0.000000 0.000000 -1.000000
vn 0.000000 0.000000 -1.000000
vn 0.000000 0.000000 -1.000000
vn 0.000000 0.000000 -1.000000
vn -1.000000 -0.000002 0.000000
vn -1.000000 -0.000002 0.000000
vn -1.000000 -0.000002 0.000000
vn -1.000000 -0.000002 0.000000
vn -1.000000 0.000000 0.000000
vn -1.000000 0.000000 0.000000
vn -1.000000 0.000000 0.000000
vn -1.000000 0.000000 0.000000
vn -1.000000 -0.000001 0.000000
vn -1.000000 -0.000001 0.000000
vn -1.000000 -0.000001 0.000000
vn -1.000000 -0.000001 0.000000
vn -1.000000 0.000000 0.000000
vn -1.000000 0.000000 0.000000
vn -1.000000 0.000000 0.000000
vn -1.000000 0.000000 0.000000
vn 0.000000 1.000000 0.000000
vn 0.000000 1.000000 0.000000
vn 0.000000 1.000000 0.000000
vn 0.000000 1.000000 0.000000
vn 0.000000 0.000000 -1.000000
vn 0.000000 0.000000 -1.000000
vn 0.000000 0.000000 -1.000000
vn 0.000000 0.000000 -1.000000
vn 0.000000 -1.000000 0.000000
vn 0.000000 -1.000000 0.000000
vn 0.000000 -1.000000 0.000000
vn 0.000000 -1.000000 0.000000
vn 0.000000 0.000000 1.000000
vn 0.000000 0.000000 1.000000
vn 0.000000 0.000000 1.000000
vn 0.000000 0.000000 1.000000
vn -1.000000 0.000000 0.000000
vn -1.000000 0.000000 0.000000
vn -1.000000 0.000000 0.000000
vn -1.000000 0.000000 0.000000
vn 0.000000 1.000000 0.000000
vn 0.000000 1.000000 0.000000
vn 0.000000 1.000000 0.000000
vn 0.000000 1.000000 0.000000
vn 1.000000 0.000000 0.000000
vn 1.000000 0.000000 0.000000
vn 1.000000 0.000000 0.000000
vn 1.000000 0.000000 0.000000
vn 0.000000 -1.000000 0.000000
vn 0.000000 -1.000000 0.000000
vn 0.000000 -1.000000 0.000000
vn 0.000000 -1.000000 0.000000
vn 0.000000 0.000000 1.000000
vn 0.000000 0.000000 1.000000
vn 0.000000 0.000000 1.000000
vn 0.000000 0.000000 1.000000
vn 0.000000 0.000000 -1.000000
vn 0.000000 0.000000 -1.000000
vn 0.000000 0.000000 -1.000000
vn 0.000000 0.000000 -1.000000
vn -1.000000 0.000000 0.000000
vn -1.000000 0.000000 0.000000
vn -1.000000 0.000000 0.000000
vn -1.000000 0.000000 0.000000
vn 1.000000 0.000000 0.000000
vn 1.000000 0.000000 0.000000
vn 1.000000 0.000000 0.000000
vn 1.000000 0.000000 0.000000
vn 0.000000 0.000000 1.000000
vn 0.000000 0.000000 1.000000
vn 0.000000 0.000000 1.000000
vn 0.000000 0.000000 1.000000
vn 0.000000 0.000000 -1.000000
vn 0.000000 0.000000 -1.000000
vn 0.000000 0.000000 -1.000000
vn 0.000000 0.000000 -1.000000
vn 0.000041 0.532731 0.846284
vn 0.000041 0.532732 0.846284
vn 0.000041 0.532732 0.846284
vn 0.000041 0.532732 0.846284
vn -0.531452 -0.000042 0.847089
vn -0.531452 -0.000042 0.847089
vn -0.531452 -0.000042 0.847089
vn -0.531452 -0.000042 0.847089
vn 0.531452 0.000042 0.847089
vn 0.531452 0.000042 0.847089
vn 0.531452 0.000042 0.847089
vn 0.531452 0.000042 0.847089
vn -0.000044 -0.532731 0.846284
vn -0.000044 -0.532731 0.846284
vn -0.000044 -0.532731 0.846284
vn -0.000044 -0.532731 0.846284
vn -0.016898 -0.016899 0.999714
vn 0.016904 -0.016903 0.999714
vn 0.016837 -0.016970 0.999714
vn -0.016830 -0.016966 0.999714
vn 0.016900 0.016899 0.999714
vn 0.016833 0.016966 0.999714
vn -0.016902 0.016903 0.999714
vn -0.016834 0.016970 0.999714
vn 0.000000 0.914533 0.404511
vn 0.000000 0.914533 0.404511
vn 0.000000 0.914533 0.404511
vn 0.000000 0.914533 0.404511
vn -0.914528 0.000000 0.404523
vn -0.914528 0.000000 0.404523
vn -0.914528 0.000000 0.404523
vn -0.914528 0.000000 0.404523
vn 0.000000 -0.914535 0.404508
vn 0.000000 -0.914535 0.404508
vn 0.000000 -0.914534 0.404508
vn 0.000000 -0.914534 0.404508
vn 0.914528 0.000000 0.404523
vn 0.914528 0.000000 0.404523
vn 0.914528 0.000000 0.404523
vn 0.914528 0.000000 0.404523
vn -1.000000 0.000000 0.000000
vn -1.000000 0.000000 0.000000
vn -1.000000 0.000000 0.000000
vn -1.000000 0.000000 0.000000
vn 1.000000 0.000000 0.000000
vn 1.000000 0.000000 0.000000
vn 1.000000 0.000000 0.000000
vn 1.000000 0.000000 0.000000
vn 0.000000 -1.000000 0.000000
vn 0.000000 -1.000000 0.000000
vn 0.000000 -1.000000 0.000000
vn 0.000000 -1.000000 0.000000
vn 0.000000 0.000000 1.000000
vn 0.000000 0.000000 1.000000
vn 0.000000 0.000000 1.000000
vn 0.000000 0.000000 1.000000
vn 0.000000 0.000000 -1.000000
vn 0.000000 0.000000 -1.000000
vn 0.000000 0.000000 -1.000000
vn 0.000000 0.000000 -1.000000
vn 0.000043 0.532732 0.846284
vn 0.000043 0.532732 0.846284
vn 0.000043 0.532732 0.846284
vn 0.000043 0.532732 0.846284
vn -0.531452 -0.000042 0.847089
vn -0.531452 -0.000042 0.847089
vn -0.531452 -0.000042 0.847089
vn -0.531452 -0.000042 0.847089
vn 0.531424 0.000042 0.847106
vn 0.531423 0.000042 0.847106
vn 0.531424 0.000042 0.847106
vn 0.531424 0.000042 0.847106
vn -0.000041 -0.532731 0.846284
vn -0.000041 -0.532731 0.846284
vn -0.000041 -0.532731 0.846284
vn -0.000041 -0.532731 0.846284
vn -0.016896 -0.016899 0.999714
vn 0.016903 -0.016903 0.999714
vn 0.016836 -0.016970 0.999714
vn -0.016829 -0.016966 0.999714
vn 0.016898 0.016899 0.999714
vn 0.016830 0.016966 0.999714
vn -0.016902 0.016903 0.999714
vn -0.016834 0.016970 0.999714
vn 0.000000 0.914533 0.404511
vn 0.000000 0.914533 0.404511
vn 0.000000 0.914533 0.404511
vn 0.000000 0.914533 0.404511
vn -0.914532 0.000000 0.404513
vn -0.914532 0.000000 0.404513
vn -0.914532 0.000000 0.404513
vn -0.914532 0.000000 0.404513
vn 0.000000 -0.914533 0.404512
vn 0.000000 -0.914533 0.404512
vn 0.000000 -0.914533 0.404512
vn 0.000000 -0.914533 0.404512
vn 0.914528 0.000000 0.404523
vn 0.914528 0.000000 0.404523
vn 0.914528 0.000000 0.404523
vn 0.914528 0.000000 0.404523
vn 0.000000 1.000000 0.000000
vn 0.000000 1.000000 0.000000
vn 0.000000 1.000000 0.000000
vn 0.000000 1.000000 0.000000
vn 0.951055 0.309021 0.000000
vn 0.809033 0.587763 0.000000
vn 0.809033 0.587763 0.000000
vn 0.951055 0.309021 0.000000
vn 0.587741 0.809050 0.000000
vn 0.587741 0.809050 0.000000
vn 0.309016 0.951057 0.000000
vn 0.309016 0.951057 0.000000
vn -0.000000 1.000000 0.000000
vn -0.000000 1.000000 0.000000
vn -0.309016 0.951057 0.000000
vn -0.309016 0.951057 0.000000
vn -0.587733 0.809055 0.000000
vn -0.587733 0.809055 0.000000
vn -0.809041 0.587752 0.000000
vn -0.809041 0.587752 0.000000
vn -0.951060 0.309006 0.000000
vn -0.951060 0.309006 0.000000
vn -1.000000 0.000000 0.000000
vn -1.000000 0.000000 0.000000
vn -0.951060 -0.309006 0.000000
vn -0.951060 -0.309006 0.000000
vn -0.809041 -0.587752 0.000000
vn -0.809041 -0.587752 0.000000
vn -0.587733 -0.809055 0.000000
vn -0.587733 -0.809055 0.000000
vn -0.309016 -0.951057 0.000000
vn -0.309016 -0.951057 0.000000
vn -0.000000 -1.000000 0.000000
vn -0.000000 -1.000000 0.000000
vn 0.309016 -0.951057 0.000000
vn 0.309016 -0.951057 0.000000
vn 0.587741 -0.809050 0.000000
vn 0.587741 -0.809050 0.000000
vn 0.809033 -0.587763 0.000000
vn 0.809033 -0.587763 0.000000
vn 0.951055 -0.309021 0.000000
vn 0.951055 -0.309021 0.000000
vn 1.000000 0.000000 0.000000
vn 1.000000 0.000000 0.000000
vn 0.000000 0.000000 -1.000000
vn 0.000000 0.000000 -1.000000
vn 0.000000 0.000000 -1.000000
vn 0.000000 0.000000 -1.000000
vn 0.000000 0.000000 -1.000000
vn 0.000000 0.000000 -1.000000
vn 0.000000 0.000000 -1.000000
vn 0.000000 0.000000 -1.000000
vn 0.000000 0.000000 -1.000000
vn 0.000000 0.000000 -1.000000
vn 0.000000 0.000000 -1.000000
vn 0.000000 0.000000 -1.000000
vn 0.000000 0.000000 -1.000000
vn 0.000000 0.000000 -1.000000
vn 0.000000 0.000000 -1.000000
vn 0.000000 0.000000 -1.000000
vn 0.000000 0.000000 -1.000000
vn 0.000000 0.000000 -1.000000
vn 0.000000 0.000000 -1.000000
vn 0.000000 0.000000 -1.000000
vn 0.000000 0.000000 -1.000000
vn -0.000084 0.000000 1.000000
vn 0.000084 0.000000 1.000000
vn -0.000000 0.000000 1.000000
vn 0.000167 0.000000 1.000000
vn 0.000000 0.000000 1.000000
vn 0.000000 0.000000 1.000000
vn 0.000000 0.000000 1.000000
vn -0.000167 0.000000 1.000000
vn -0.000000 0.000000 1.000000
vn 0.000167 0.000000 1.000000
vn 0.000000 0.000000 1.000000
vn 0.000084 0.000000 1.000000
vn -0.000084 0.000000 1.000000
vn -0.000167 0.000000 1.000000
vn 0.000000 0.000000 1.000000
vn 0.000000 0.000000 1.000000
vn 0.000000 0.000000 1.000000
vn 0.000167 0.000000 1.000000
vn 0.000000 0.000000 1.000000
vn -0.000167 0.000000 1.000000
vn 0.000000 0.000000 1.000000
vn 0.951413 0.307916 0.000000
vn 0.809195 0.587541 0.000000
vn 0.809195 0.587541 0.000000
vn 0.951413 0.307916 0.000000
vn 0.587191 0.809449 0.000000
vn 0.587191 0.809449 0.000000
vn 0.308960 0.951075 0.000000
vn 0.308960 0.951075 0.000000
vn 0.000000 1.000000 0.000000
vn 0.000000 1.000000 0.000000
vn -0.308960 0.951075 0.000000
vn -0.308960 0.951075 0.000000
vn -0.587817 0.808994 0.000000
vn -0.587817 0.808994 0.000000
vn -0.809195 0.587541 0.000000
vn -0.809195 0.587541 0.000000
vn -0.951045 0.309053 0.000000
vn -0.951045 0.309053 0.000000
vn -1.000000 0.000000 0.000000
vn -1.000000 0.000000 0.000000
vn -0.951045 -0.309053 0.000000
vn -0.951045 -0.309053 0.000000
vn -0.809206 -0.587526 0.000000
vn -0.809206 -0.587526 0.000000
vn -0.587838 -0.808979 0.000000
vn -0.587838 -0.808979 0.000000
vn -0.308960 -0.951075 0.000000
vn -0.308960 -0.951075 0.000000
vn 0.000000 -1.000000 0.000000
vn 0.000000 -1.000000 0.000000
vn 0.308960 -0.951075 0.000000
vn 0.308960 -0.951075 0.000000
vn 0.587211 -0.809434 0.000000
vn 0.587211 -0.809434 0.000000
vn 0.809206 -0.587526 0.000000
vn 0.809206 -0.587526 0.000000
vn 0.951413 -0.307916 0.000000
vn 0.951413 -0.307916 0.000000
vn 1.000000 0.000000 0.000000
vn 1.000000 0.000000 0.000000
vn 0.000000 0.000000 -1.000000
vn 0.000000 0.000000 -1.000000
vn 0.000021 0.000000 -1.000000
vn 0.000000 0.000000 -1.000000
vn 0.000000 0.000000 -1.000000
vn 0.000000 0.000000 -1.000000
vn 0.000000 0.000000 -1.000000
vn 0.000000 0.000000 -1.000000
vn 0.000000 0.000000 -1.000000
vn 0.000000 0.000000 -1.000000
vn 0.000000 0.000000 -1.000000
vn 0.000000 0.000000 -1.000000
vn 0.000846 0.000000 -1.000000
vn 0.000846 0.000000 -1.000000
vn 0.000000 0.000000 -1.000000
vn 0.000000 0.000000 -1.000000
vn 0.000000 0.000000 -1.000000
vn -0.000845 0.000000 -1.000000
vn -0.000635 0.000000 -1.000000
vn 0.000212 0.000000 -1.000000
vn 0.000000 0.000000 -1.000000
vn 0.000000 0.000000 1.000000
vn -0.000423 0.000000 1.000000
vn -0.000021 0.000000 1.000000
vn -0.000423 0.000000 1.000000
vn 0.000000 0.000000 1.000000
vn 0.000000 0.000000 1.000000
vn 0.000000 0.000000 1.000000
vn 0.000000 0.000000 1.000000
vn 0.000000 0.000000 1.000000
vn 0.000000 0.000000 1.000000
vn 0.000000 0.000000 1.000000
vn 0.000212 0.000000 1.000000
vn 0.000635 0.000000 1.000000
vn 0.000423 0.000000 1.000000
vn 0.000000 0.000000 1.000000
vn 0.000000 0.000000 1.000000
vn 0.000000 0.000000 1.000000
vn 0.000000 0.000000 1.000000
vn -0.000423 0.000000 1.000000
vn -0.000424 0.000000 1.000000
vn 0.000000 0.000000 1.000000
vn 0.891088 0.453830 0.000000
vn 0.891088 0.453830 0.000000
vn 0.891088 0.453830 0.000000
vn 0.891088 0.453830 0.000000
vn 0.707278 0.706936 0.000000
vn 0.707278 0.706936 0.000000
vn 0.707278 0.706936 0.000000
vn 0.707278 0.706936 0.000000
vn 0.452795 0.891615 0.000000
vn 0.452795 0.891615 0.000000
vn 0.452795 0.891615 0.000000
vn 0.452795 0.891615 0.000000
vn 0.156798 0.987631 0.000000
vn 0.156798 0.987631 0.000000
vn 0.156798 0.987631 0.000000
vn 0.156798 0.987631 0.000000
vn -0.804415 0.000000 -0.594068
vn -0.804415 0.000000 -0.594068
vn -0.804415 0.000000 -0.594068
vn -0.804415 0.000000 -0.594068
vn -0.804407 0.000000 -0.594078
vn -0.804407 0.000000 -0.594078
vn -0.804407 0.000000 -0.594078
vn -0.804407 0.000000 -0.594078
vn -0.804328 0.000000 -0.594186
vn -0.804328 0.000000 -0.594186
vn -0.804328 0.000000 -0.594186
vn -0.804328 0.000000 -0.594186
vn -0.804319 0.000000 -0.594198
vn -0.804319 0.000000 -0.594198
vn -0.804319 0.000000 -0.594198
vn -0.804319 0.000000 -0.594198
vn -0.804514 0.000000 -0.593934
vn -0.804514 0.000000 -0.593934
vn -0.804514 0.000000 -0.593934
vn -0.804514 0.000000 -0.593934
vn -0.804514 0.000000 -0.593934
vn -0.804514 0.000000 -0.593934
vn -0.804514 0.000000 -0.593934
vn -0.804514 0.000000 -0.593934
vn -0.804326 0.000000 -0.594189
vn -0.804326 0.000000 -0.594189
vn -0.804326 0.000000 -0.594189
vn -0.804326 0.000000 -0.594189
vn -0.804319 0.000000 -0.594198
vn -0.804319 0.000000 -0.594198
vn -0.804319 0.000000 -0.594198
vn -0.804319 0.000000 -0.594198
vn -0.804393 0.000000 -0.594097
vn -0.804393 0.000000 -0.594097
vn -0.804393 0.000000 -0.594097
vn -0.804393 0.000000 -0.594097
vn -0.804415 0.000000 -0.594068
vn -0.804415 0.000000 -0.594068
vn -0.804415 0.000000 -0.594068
vn -0.804415 0.000000 -0.594068
vn 0.156798 -0.987631 0.000000
vn 0.156798 -0.987631 0.000000
vn 0.156798 -0.987631 0.000000
vn 0.156798 -0.987631 0.000000
vn 0.452795 -0.891615 0.000000
vn 0.452795 -0.891615 0.000000
vn 0.452795 -0.891615 0.000000
vn 0.452795 -0.891615 0.000000
vn 0.707278 -0.706936 0.000000
vn 0.707278 -0.706936 0.000000
vn 0.707278 -0.706936 0.000000
vn 0.707278 -0.706936 0.000000
vn 0.891088 -0.453830 0.000000
vn 0.891088 -0.453830 0.000000
vn 0.891088 -0.453830 0.000000
vn 0.891088 -0.453830 0.000000
vn 0.988036 -0.154220 0.000000
vn 0.988036 -0.154220 0.000000
vn 0.988036 -0.154220 0.000000
vn 0.988036 -0.154220 0.000000
vn 0.988036 0.154220 0.000000
vn 0.988036 0.154220 0.000000
vn 0.988036 0.154220 0.000000
vn 0.988036 0.154220 0.000000
vn -0.003505 0.011091 -0.999932
vn -0.003505 0.011091 -0.999932
vn -0.003506 0.011091 -0.999932
vn -0.003506 0.011091 -0.999932
vn -0.003392 0.010733 0.999937
vn -0.003392 0.010733 0.999937
vn -0.003392 0.010733 0.999937
vn -0.003392 0.010733 0.999937
vn 0.000000 1.000000 0.000000
vn 0.000000 1.000000 0.000000
vn 0.000000 1.000000 0.000000
vn 0.000000 1.000000 0.000000
vn -0.003661 0.003594 -0.999987
vn -0.003661 0.003594 -0.999987
vn -0.003661 0.003594 -0.999987
vn -0.003661 0.003594 -0.999987
vn -0.003538 0.003474 0.999988
vn -0.003538 0.003474 0.999988
vn -0.003538 0.003474 0.999988
vn -0.003538 0.003474 0.999988
vn -0.003786 0.001896 -0.999991
vn -0.003786 0.001896 -0.999991
vn -0.003786 0.001896 -0.999991
vn -0.003786 0.001896 -0.999991
vn -0.003654 0.001830 0.999992
vn -0.003654 0.001830 0.999992
vn -0.003654 0.001830 0.999992
vn -0.003654 0.001830 0.999992
vn -0.003903 0.000993 -0.999992
vn -0.003903 0.000993 -0.999992
vn -0.003903 0.000993 -0.999992
vn -0.003903 0.000993 -0.999992
vn -0.003763 0.000958 0.999993
vn -0.003763 0.000958 0.999992
vn -0.003763 0.000958 0.999992
vn -0.003763 0.000958 0.999992
vn -0.003962 0.000314 -0.999992
vn -0.003962 0.000314 -0.999992
vn -0.003962 0.000314 -0.999992
vn -0.003962 0.000314 -0.999992
vn -0.003819 0.000303 0.999993
vn -0.003819 0.000303 0.999993
vn -0.003819 0.000303 0.999993
vn -0.003819 0.000303 0.999993
vn -0.003962 -0.000314 -0.999992
vn -0.003962 -0.000314 -0.999992
vn -0.003962 -0.000314 -0.999992
vn -0.003962 -0.000314 -0.999992
vn -0.003819 -0.000303 0.999993
vn -0.003819 -0.000303 0.999993
vn -0.003819 -0.000303 0.999993
vn -0.003819 -0.000303 0.999993
vn -0.003903 -0.000993 -0.999992
vn -0.003903 -0.000993 -0.999992
vn -0.003903 -0.000993 -0.999992
vn -0.003903 -0.000993 -0.999992
vn -0.003764 -0.000958 0.999992
vn -0.003764 -0.000958 0.999992
vn -0.003764 -0.000958 0.999993
vn -0.003764 -0.000958 0.999993
vn -0.003786 -0.001896 -0.999991
vn -0.003786 -0.001896 -0.999991
vn -0.003786 -0.001896 -0.999991
vn -0.003786 -0.001896 -0.999991
vn -0.003654 -0.001830 0.999992
vn -0.003654 -0.001830 0.999992
vn -0.003654 -0.001830 0.999992
vn -0.003654 -0.001830 0.999992
vn -0.003661 -0.003594 -0.999987
vn -0.003661 -0.003594 -0.999987
vn -0.003661 -0.003594 -0.999987
vn -0.003661 -0.003594 -0.999987
vn -0.003538 -0.003473 0.999988
vn -0.003538 -0.003473 0.999988
vn -0.003538 -0.003473 0.999988
vn -0.003538 -0.003473 0.999988
vn -0.003505 -0.011089 -0.999932
vn -0.003505 -0.011089 -0.999932
vn -0.003505 -0.011089 -0.999932
vn -0.003505 -0.011089 -0.999932
vn 0.000000 -1.000000 0.000000
vn 0.000000 -1.000000 0.000000
vn 0.000000 -1.000000 0.000000
vn 0.000000 -1.000000 0.000000
vn -0.003392 -0.010733 0.999937
vn -0.003392 -0.010733 0.999937
vn -0.003392 -0.010733 0.999937
vn -0.003392 -0.010733 0.999937
vn 0.558564 0.000000 -0.829462
vn 0.558564 0.000000 -0.829462
vn 0.558564 0.000000 -0.829462
vn 0.558564 0.000000 -0.829462
vn -0.655465 0.000000 0.755225
vn -0.655465 0.000000 0.755225
vn -0.655465 0.000000 0.755225
vn -0.655465 0.000000 0.755225
vn 0.000000 1.000000 0.000000
vn 0.000000 1.000000 0.000000
vn 0.000000 1.000000 0.000000
vn 0.000000 1.000000 0.000000
vn 0.558410 0.000000 -0.829565
vn 0.558410 0.000000 -0.829565
vn 0.558410 0.000000 -0.829565
vn 0.558410 0.000000 -0.829565
vn -0.655295 0.000000 0.755373
vn -0.655295 0.000000 0.755373
vn -0.655295 0.000000 0.755373
vn -0.655295 0.000000 0.755373
vn 0.558406 0.000000 -0.829568
vn 0.558406 0.000000 -0.829568
vn 0.558406 0.000000 -0.829568
vn 0.558406 0.000000 -0.829568
vn -0.655390 0.000000 0.755291
vn -0.655390 0.000000 0.755291
vn -0.655390 0.000000 0.755291
vn -0.655390 0.000000 0.755291
vn 0.558384 0.000000 -0.829583
vn 0.558384 0.000000 -0.829583
vn 0.558384 0.000000 -0.829583
vn 0.558384 0.000000 -0.829583
vn -0.655394 0.000000 0.755287
vn -0.655394 0.000000 0.755287
vn -0.655394 0.000000 0.755287
vn -0.655394 0.000000 0.755287
vn 0.558576 0.000000 -0.829453
vn 0.558576 0.000000 -0.829453
vn 0.558576 0.000000 -0.829453
vn 0.558576 0.000000 -0.829453
vn -0.655377 0.000000 0.755302
vn -0.655377 0.000000 0.755302
vn -0.655377 0.000000 0.755302
vn -0.655377 0.000000 0.755302
vn 0.558562 0.000000 -0.829463
vn 0.558562 0.000000 -0.829463
vn 0.558562 0.000000 -0.829463
vn 0.558562 0.000000 -0.829463
vn -0.655364 0.000000 0.755314
vn -0.655364 0.000000 0.755314
vn -0.655364 0.000000 0.755314
vn -0.655364 0.000000 0.755314
vn 0.558416 0.000000 -0.829561
vn 0.558416 0.000000 -0.829561
vn 0.558416 0.000000 -0.829561
vn 0.558416 0.000000 -0.829561
vn -0.655424 0.000000 0.755261
vn -0.655424 0.000000 0.755261
vn -0.655424 0.000000 0.755261
vn -0.655424 0.000000 0.755261
vn 0.558365 0.000000 -0.829596
vn 0.558365 0.000000 -0.829596
vn 0.558365 0.000000 -0.829596
vn 0.558365 0.000000 -0.829596
vn -0.655352 0.000000 0.755324
vn -0.655352 0.000000 0.755324
vn -0.655352 0.000000 0.755324
vn -0.655352 0.000000 0.755324
vn 0.558410 0.000000 -0.829565
vn 0.558410 0.000000 -0.829565
vn 0.558410 0.000000 -0.829565
vn 0.558410 0.000000 -0.829565
vn -0.655295 0.000000 0.755373
vn -0.655295 0.000000 0.755373
vn -0.655295 0.000000 0.755373
vn -0.655295 0.000000 0.755373
vn 0.558656 0.000000 -0.829399
vn 0.558656 0.000000 -0.829399
vn 0.558656 0.000000 -0.829399
vn 0.558656 0.000000 -0.829399
vn 0.000000 -1.000000 0.000000
vn 0.000000 -1.000000 0.000000
vn 0.000000 -1.000000 0.000000
vn 0.000000 -1.000000 0.000000
vn -0.655550 0.000000 0.755152
vn -0.655550 0.000000 0.755152
vn -0.655550 0.000000 0.755152
vn -0.655550 0.000000 0.755152
vn 0.951053 0.309028 0.000000
vn 0.809034 0.587762 0.000000
vn 0.809034 0.587762 0.000000
vn 0.951053 0.309028 0.000000
vn 0.587738 0.809052 0.000000
vn 0.587738 0.809052 0.000000
vn 0.308996 0.951064 0.000000
vn 0.308996 0.951064 0.000000
vn -0.000009 1.000000 0.000000
vn -0.000009 1.000000 0.000000
vn -0.309037 0.951050 0.000000
vn -0.309037 0.951050 0.000000
vn -0.587761 0.809034 0.000000
vn -0.587761 0.809034 0.000000
vn -0.809034 0.587762 0.000000
vn -0.809034 0.587762 0.000000
vn -0.951053 0.309028 0.000000
vn -0.951053 0.309028 0.000000
vn -1.000000 0.000000 0.000000
vn -1.000000 0.000000 0.000000
vn -0.951053 -0.309028 0.000000
vn -0.951053 -0.309028 0.000000
vn -0.809034 -0.587762 0.000000
vn -0.809034 -0.587762 0.000000
vn -0.587761 -0.809034 0.000000
vn -0.587761 -0.809034 0.000000
vn -0.309037 -0.951050 0.000000
vn -0.309037 -0.951050 0.000000
vn 0.000000 -1.000000 0.000000
vn 0.000000 -1.000000 0.000000
vn 0.309037 -0.951050 0.000000
vn 0.309037 -0.951050 0.000000
vn 0.587761 -0.809034 0.000000
vn 0.587761 -0.809034 0.000000
vn 0.809034 -0.587762 0.000000
vn 0.809034 -0.587762 0.000000
vn 0.951053 -0.309028 0.000000
vn 0.951053 -0.309028 0.000000
vn 1.000000 0.000000 0.000000
vn 1.000000 0.000000 0.000000
vn 0.000000 0.000000 -1.000000
vn 0.000000 0.000000 -1.000000
vn 0.000017 0.000000 -1.000000
vn 0.000000 0.000000 -1.000000
vn 0.000000 0.000000 -1.000000
vn 0.000000 0.000000 -1.000000
vn 0.000167 0.000000 -1.000000
vn 0.000167 0.000000 -1.000000
vn 0.000000 0.000000 -1.000000
vn 0.000000 0.000000 -1.000000
vn 0.000000 0.000000 -1.000000
vn 0.000000 0.000000 -1.000000
vn 0.000000 0.000000 -1.000000
vn 0.000167 0.000000 -1.000000
vn 0.000167 0.000000 -1.000000
vn 0.000000 0.000000 -1.000000
vn -0.000167 0.000000 -1.000000
vn -0.000167 0.000000 -1.000000
vn 0.000000 0.000000 -1.000000
vn 0.000000 0.000000 -1.000000
vn 0.000000 0.000000 -1.000000
vn 0.000084 0.000000 1.000000
vn 0.000084 0.000000 1.000000
vn 0.000000 0.000000 1.000000
vn 0.000000 0.000000 1.000000
vn 0.000000 0.000000 1.000000
vn 0.000000 0.000000 1.000000
vn 0.000000 0.000000 1.000000
vn 0.000000 0.000000 1.000000
vn 0.000000 0.000000 1.000000
vn 0.000000 0.000000 1.000000
vn 0.000000 0.000000 1.000000
vn -0.000084 0.000000 1.000000
vn -0.000084 0.000000 1.000000
vn 0.000000 0.000000 1.000000
vn 0.000000 0.000000 1.000000
vn 0.000000 0.000000 1.000000
vn 0.000000 0.000000 1.000000
vn 0.000000 0.000000 1.000000
vn 0.000000 0.000000 1.000000
vn 0.000000 0.000000 1.000000
vn 0.000000 0.000000 1.000000
vn -1.000000 0.000000 0.000000
vn -1.000000 0.000000 0.000000
vn -1.000000 0.000000 0.000000
vn -1.000000 0.000000 0.000000
vn 0.000000 1.000000 0.000000
vn 0.000000 1.000000 0.000000
vn 0.000000 1.000000 0.000000
vn 0.000000 1.000000 0.000000
vn 1.000000 0.000000 0.000000
vn 1.000000 0.000000 0.000000
vn 1.000000 0.000000 0.000000
vn 1.000000 0.000000 0.000000
vn 0.000000 -1.000000 0.000000
vn 0.000000 -1.000000 0.000000
vn 0.000000 -1.000000 0.000000
vn 0.000000 -1.000000 0.000000
vn 0.000000 0.000000 1.000000
vn 0.000000 0.000000 1.000000
vn 0.000000 0.000000 1.000000
vn 0.000000 0.000000 1.000000
vn 0.000000 0.000000 -1.000000
vn 0.000000 0.000000 -1.000000
vn 0.000000 0.000000 -1.000000
vn 0.000000 0.000000 -1.000000
vn 1.000000 0.000000 0.000000
vn 1.000000 0.000000 0.000000
vn 1.000000 0.000000 0.000000
vn 1.000000 0.000000 0.000000
vn -0.769000 -0.639249 0.000000
vn -0.769000 -0.639249 0.000000
vn -0.769000 -0.639249 0.000000
vn -0.769000 -0.639249 0.000000
vn -0.860372 0.000000 -0.509667
vn -0.860372 0.000000 -0.509667
vn -0.860372 0.000000 -0.509667
vn -0.860372 0.000000 -0.509667
vn -0.860378 0.000000 0.509657
vn -0.860378 0.000000 0.509657
vn -0.860378 0.000000 0.509657
vn -0.860378 0.000000 0.509657
vn -0.769000 0.639249 0.000000
vn -0.769000 0.639249 0.000000
vn -0.769000 0.639249 0.000000
vn -0.769000 0.639249 0.000000
vn -1.000000 0.000000 0.000000
vn -1.000000 0.000000 0.000000
vn -1.000000 0.000000 0.000000
vn -1.000000 0.000000 0.000000
vn 0.000000 -1.000000 0.000000
vn 0.000000 -1.000000 0.000000
vn 0.000000 -1.000000 0.000000
vn 0.000000 -1.000000 0.000000
vn 0.000000 1.000000 0.000000
vn 0.000000 1.000000 0.000000
vn 0.000000 1.000000 0.000000
vn 0.000000 1.000000 0.000000
vn 0.000000 0.000000 -1.000000
vn 0.000000 0.000000 -1.000000
vn 0.000000 0.000000 -1.000000
vn 0.000000 0.000000 -1.000000
vn 0.000000 0.000000 1.000000
vn 0.000000 0.000000 1.000000
vn 0.000000 0.000000 1.000000
vn 0.000000 0.000000 1.000000
vn 1.000000 0.000000 0.000000
vn 1.000000 0.000000 0.000000
vn 1.000000 0.000000 0.000000
vn 1.000000 0.000000 0.000000
vn -0.768995 -0.639255 0.000000
vn -0.768995 -0.639255 0.000000
vn -0.768995 -0.639255 0.000000
vn -0.768995 -0.639255 0.000000
vn -0.860366 0.000000 -0.509676
vn -0.860366 0.000000 -0.509676
vn -0.860366 0.000000 -0.509676
vn -0.860366 0.000000 -0.509676
vn -0.860361 0.000000 0.509686
vn -0.860361 0.000000 0.509686
vn -0.860361 0.000000 0.509686
vn -0.860361 0.000000 0.509686
vn -0.768995 0.639255 0.000000
vn -0.768995 0.639255 0.000000
vn -0.768995 0.639255 0.000000
vn -0.768995 0.639255 0.000000
vn -1.000000 0.000000 0.000000
vn -1.000000 0.000000 0.000000
vn -1.000000 0.000000 0.000000
vn -1.000000 0.000000 0.000000
vn 0.000000 -1.000000 0.000000
vn 0.000000 -1.000000 0.000000
vn 0.000000 -1.000000 0.000000
vn 0.000000 -1.000000 0.000000
vn 0.000000 1.000000 0.000000
vn 0.000000 1.000000 0.000000
vn 0.000000 1.000000 0.000000
vn 0.000000 1.000000 0.000000
vn 0.000000 0.000000 -1.000000
vn 0.000000 0.000000 -1.000000
vn 0.000000 0.000000 -1.000000
vn 0.000000 0.000000 -1.000000
vn 0.000000 0.000000 1.000000
vn 0.000000 0.000000 1.000000
vn 0.000000 0.000000 1.000000
vn 0.000000 0.000000 1.000000
vn 1.000000 0.000000 0.000000
vn 1.000000 0.000000 0.000000
vn 1.000000 0.000000 0.000000
vn 1.000000 0.000000 0.000000
vn -0.768995 -0.639255 0.000000
vn -0.768995 -0.639255 0.000000
vn -0.768995 -0.639255 0.000000
vn -0.768995 -0.639255 0.000000
vn -0.860366 0.000000 -0.509676
vn -0.860366 0.000000 -0.509676
vn -0.860366 0.000000 -0.509676
vn -0.860366 0.000000 -0.509676
vn -0.860372 0.000000 0.509667
vn -0.860372 0.000000 0.509667
vn -0.860372 0.000000 0.509667
vn -0.860372 0.000000 0.509667
vn -0.768994 0.639256 0.000000
vn -0.768994 0.639256 0.000000
vn -0.768994 0.639256 0.000000
vn -0.768994 0.639256 0.000000
vn -1.000000 0.000000 0.000000
vn -1.000000 0.000000 0.000000
vn -1.000000 0.000000 0.000000
vn -1.000000 0.000000 0.000000
vn 0.000000 -1.000000 0.000000
vn 0.000000 -1.000000 0.000000
vn 0.000000 -1.000000 0.000000
vn 0.000000 -1.000000 0.000000
vn 0.000000 1.000000 0.000000
vn 0.000000 1.000000 0.000000
vn 0.000000 1.000000 0.000000
vn 0.000000 1.000000 0.000000
vn 0.000000 0.000000 -1.000000
vn 0.000000 0.000000 -1.000000
vn 0.000000 0.000000 -1.000000
vn 0.000000 0.000000 -1.000000
vn 0.000000 0.000000 1.000000
vn 0.000000 0.000000 1.000000
vn 0.000000 0.000000 1.000000
vn 0.000000 0.000000 1.000000
vn 1.000000 0.000000 0.000000
vn 1.000000 0.000000 0.000000
vn 1.000000 0.000000 0.000000
vn 1.000000 0.000000 0.000000
vn -0.768997 -0.639252 0.000000
vn -0.768997 -0.639252 0.000000
vn -0.768997 -0.639252 0.000000
vn -0.768997 -0.639252 0.000000
vn -0.855423 0.000000 -0.517930
vn -0.855423 0.000000 -0.517930
vn -0.855423 0.000000 -0.517930
vn -0.855423 0.000000 -0.517930
vn -0.855411 0.000000 0.517949
vn -0.855411 0.000000 0.517949
vn -0.855411 0.000000 0.517949
vn -0.855411 0.000000 0.517949
vn -0.768996 0.639254 0.000000
vn -0.768996 0.639253 0.000000
vn -0.768996 0.639253 0.000000
vn -0.768996 0.639254 0.000000
vn -1.000000 0.000000 0.000000
vn -1.000000 0.000000 0.000000
vn -1.000000 0.000000 0.000000
vn -1.000000 0.000000 0.000000
vn 0.000000 -1.000000 0.000000
vn 0.000000 -1.000000 0.000000
vn 0.000000 -1.000000 0.000000
vn 0.000000 -1.000000 0.000000
vn 0.000000 1.000000 0.000000
vn 0.000000 1.000000 0.000000
vn 0.000000 1.000000 0.000000
vn 0.000000 1.000000 0.000000
vn 0.000000 0.000000 -1.000000
vn 0.000000 0.000000 -1.000000
vn 0.000000 0.000000 -1.000000
vn 0.000000 0.000000 -1.000000
vn 0.000000 0.000000 1.000000
vn 0.000000 0.000000 1.000000
vn 0.000000 0.000000 1.000000
vn 0.000000 0.000000 1.000000
vn 1.000000 0.000000 0.000000
vn 1.000000 0.000000 0.000000
vn 1.000000 0.000000 0.000000
vn 1.000000 0.000000 0.000000
vn -0.768995 -0.639255 0.000000
vn -0.768995 -0.639255 0.000000
vn -0.768995 -0.639255 0.000000
vn -0.768995 -0.639255 0.000000
vn -0.860372 0.000000 -0.509667
vn -0.860372 0.000000 -0.509667
vn -0.860372 0.000000 -0.509667
vn -0.860372 0.000000 -0.509667
vn -0.860372 0.000000 0.509667
vn -0.860372 0.000000 0.509667
vn -0.860372 0.000000 0.509667
vn -0.860372 0.000000 0.509667
vn -0.768994 0.639256 0.000000
vn -0.768994 0.639256 0.000000
vn -0.768994 0.639256 0.000000
vn -0.768994 0.639256 0.000000
vn -1.000000 0.000000 0.000000
vn -1.000000 0.000000 0.000000
vn -1.000000 0.000000 0.000000
vn -1.000000 0.000000 0.000000
vn 0.000000 -1.000000 0.000000
vn 0.000000 -1.000000 0.000000
vn 0.000000 -1.000000 0.000000
vn 0.000000 -1.000000 0.000000
vn 0.000000 1.000000 0.000000
vn 0.000000 1.000000 0.000000
vn 0.000000 1.000000 0.000000
vn 0.000000 1.000000 0.000000
vn 0.000000 0.000000 -1.000000
vn 0.000000 0.000000 -1.000000
vn 0.000000 0.000000 -1.000000
vn 0.000000 0.000000 -1.000000
vn 0.000000 0.000000 1.000000
vn 0.000000 0.000000 1.000000
vn 0.000000 0.000000 1.000000
vn 0.000000 0.000000 1.000000
vn 1.000000 0.000000 0.000000
vn 1.000000 0.000000 0.000000
vn 1.000000 0.000000 0.000000
vn 1.000000 0.000000 0.000000
vn -0.768995 -0.639254 0.000000
vn -0.768995 -0.639254 0.000000
vn -0.768995 -0.639254 0.000000
vn -0.768995 -0.639254 0.000000
vn -0.860367 0.000000 -0.509676
vn -0.860367 0.000000 -0.509676
vn -0.860367 0.000000 -0.509676
vn -0.860366 0.000000 -0.509676
vn -0.860366 0.000000 0.509676
vn -0.860367 0.000000 0.509676
vn -0.860367 0.000000 0.509676
vn -0.860366 0.000000 0.509676
vn -0.768994 0.639256 0.000000
vn -0.768994 0.639256 0.000000
vn -0.768994 0.639256 0.000000
vn -0.768994 0.639256 0.000000
vn -1.000000 0.000000 0.000000
vn -1.000000 0.000000 0.000000
vn -1.000000 0.000000 0.000000
vn -1.000000 0.000000 0.000000
vn 0.000000 -1.000000 0.000000
vn 0.000000 -1.000000 0.000000
vn 0.000000 -1.000000 0.000000
vn 0.000000 -1.000000 0.000000
vn 0.000000 1.000000 0.000000
vn 0.000000 1.000000 0.000000
vn 0.000000 1.000000 0.000000
vn 0.000000 1.000000 0.000000
vn 0.000000 0.000000 -1.000000
vn 0.000000 0.000000 -1.000000
vn 0.000000 0.000000 -1.000000
vn 0.000000 0.000000 -1.000000
vn 0.000000 0.000000 1.000000
vn 0.000000 0.000000 1.000000
vn 0.000000 0.000000 1.000000
vn 0.000000 0.000000 1.000000
vn 1.000000 0.000000 0.000000
vn 1.000000 0.000000 0.000000
vn 1.000000 0.000000 0.000000
vn 1.000000 0.000000 0.000000
vn -0.768995 -0.639255 0.000000
vn -0.768995 -0.639255 0.000000
vn -0.768995 -0.639255 0.000000
vn -0.768995 -0.639255 0.000000
vn -0.860366 0.000000 -0.509676
vn -0.860366 0.000000 -0.509676
vn -0.860366 0.000000 -0.509676
vn -0.860366 0.000000 -0.509676
vn -0.860372 0.000000 0.509667
vn -0.860372 0.000000 0.509667
vn -0.860372 0.000000 0.509667
vn -0.860372 0.000000 0.509667
vn -0.768994 0.639256 0.000000
vn -0.768994 0.639256 0.000000
vn -0.768994 0.639256 0.000000
vn -0.768994 0.639256 0.000000
vn -1.000000 0.000000 0.000000
vn -1.000000 0.000000 0.000000
vn -1.000000 0.000000 0.000000
vn -1.000000 0.000000 0.000000
vn 0.000000 -1.000000 0.000000
vn 0.000000 -1.000000 0.000000
vn 0.000000 -1.000000 0.000000
vn 0.000000 -1.000000 0.000000
vn 0.000000 1.000000 0.000000
vn 0.000000 1.000000 0.000000
vn 0.000000 1.000000 0.000000
vn 0.000000 1.000000 0.000000
vn 0.000000 0.000000 -1.000000
vn 0.000000 0.000000 -1.000000
vn 0.000000 0.000000 -1.000000
vn 0.000000 0.000000 -1.000000
vn 0.000000 0.000000 1.000000
vn 0.000000 0.000000 1.000000
vn 0.000000 0.000000 1.000000
vn 0.000000 0.000000 1.000000
s off
g N_House_1_True
usemtl initialShadingGroup
f 1/547/1 2/548/2 4/549/3 3/550/4
f 21/292/5 22/293/6 23/294/7 24/295/8
f 5/551/9 6/552/10 8/553/11 7/554/12
f 7/296/13 8/297/14 2/298/15 1/299/16
f 2/1/17 8/2/18 6/3/19 4/4/20
f 7/5/21 1/6/22 3/7/23 5/8/24
f 13/555/25 14/556/26 15/557/27 16/558/28
f 14/9/29 17/10/30 18/11/31 15/12/32
f 17/559/33 19/560/34 20/561/35 18/562/36
f 19/13/37 13/14/38 16/15/39 20/16/40
f 3/300/41 4/301/42 14/302/43 13/303/44
f 10/308/45 9/309/46 16/310/47 15/311/48
f 4/301/49 6/304/50 17/305/51 14/302/52
f 11/314/53 10/308/54 15/311/55 18/315/56
f 6/304/57 5/306/58 19/307/59 17/305/60
f 12/312/61 11/314/62 18/315/63 20/313/64
f 5/306/65 3/300/66 13/303/67 19/307/68
f 9/309/69 12/312/70 20/313/71 16/310/72
f 9/563/73 10/564/74 22/565/75 21/566/76
f 10/17/77 11/18/78 23/19/79 22/20/80
f 11/567/81 12/568/82 24/569/83 23/570/84
f 12/21/85 9/22/86 21/23/87 24/24/88
f 31/316/89 30/317/90 32/318/91 33/319/92
f 25/324/93 26/325/94 29/326/95
f 26/325/96 27/329/97 29/326/98
f 27/329/99 28/330/100 29/326/101
f 28/330/102 25/324/103 29/326/104
f 35/571/105 34/572/106 36/573/107 37/574/108
f 34/25/109 38/26/110 39/27/111 36/28/112
f 38/575/113 40/576/114 41/577/115 39/578/116
f 40/29/117 35/30/118 37/31/119 41/32/120
f 25/324/121 28/330/122 34/331/123 35/327/124
f 30/317/125 31/316/126 37/320/127 36/321/128
f 28/330/129 27/329/130 38/332/131 34/331/132
f 32/318/133 30/317/134 36/321/135 39/322/136
f 27/329/137 26/325/138 40/328/139 38/332/140
f 33/319/141 32/318/142 39/322/143 41/323/144
f 26/325/145 25/324/146 35/327/147 40/328/148
f 31/316/149 33/319/150 41/323/151 37/320/152
f 42/33/153 43/34/154 45/35/155 44/36/156
s 1
f 52/333/157 53/334/158 47/335/159 46/336/160
s off
f 46/37/161 47/38/162 49/39/163 48/40/164
s 2
f 48/339/165 49/340/166 50/341/167 51/342/168
s off
f 53/579/169 50/580/170 49/581/171 47/582/172
s 3
f 48/589/173 51/590/174 52/591/175 46/592/176
s 2
f 51/342/168 50/341/167 43/343/177 42/344/178
s 3
f 52/591/175 51/590/174 42/593/179 44/594/180
s 1
f 44/337/181 45/338/182 53/334/158 52/333/157
s off
f 59/595/183 58/596/184 60/597/185 61/598/186
f 43/587/187 50/580/188 54/584/189 55/588/190
f 50/580/191 53/579/192 56/583/193 54/584/194
f 53/579/195 45/585/196 57/586/197 56/583/198
f 45/585/199 43/587/200 55/588/201 57/586/202
f 55/345/203 54/346/204 58/347/205 59/348/206
f 54/41/207 56/42/208 60/43/209 58/44/210
f 56/349/211 57/350/212 61/351/213 60/352/214
f 57/45/215 55/46/216 59/47/217 61/48/218
f 74/49/219 75/50/220 76/51/221 77/52/222
f 64/353/223 65/354/224 67/355/225 66/356/226
f 66/53/227 67/54/228 69/55/229 68/56/230
f 68/357/231 69/358/232 63/359/233 62/360/234
f 63/599/235 69/600/236 67/601/237 65/602/238
f 68/603/239 62/604/240 64/605/241 66/606/242
f 62/57/243 63/58/244 71/59/245 70/60/246
f 63/58/247 65/61/248 72/62/249 71/59/250
f 65/61/251 64/63/252 73/64/253 72/62/254
f 64/63/255 62/57/256 70/60/257 73/64/258
f 70/361/259 71/362/260 75/363/261 74/364/262
f 71/607/263 72/608/264 76/609/265 75/610/266
f 72/365/267 73/366/268 77/367/269 76/368/270
f 73/611/271 70/612/272 74/613/273 77/614/274
f 78/65/275 79/66/276 81/67/277 80/68/278
f 80/369/279 81/370/280 83/371/281 82/372/282
f 82/69/283 83/70/284 85/71/285 84/72/286
f 84/373/287 85/374/288 79/375/289 78/376/290
f 79/615/291 85/616/292 83/617/293 81/618/294
f 84/619/295 78/620/296 80/621/297 82/622/298
f 86/73/299 87/74/300 90/75/301 91/76/302
f 92/79/303 93/80/304 89/81/305 88/82/306
f 95/623/307 94/624/308 96/625/309 97/626/310
f 88/627/311 86/628/312 91/629/313 92/630/314
f 98/381/315 99/378/316 101/377/317 100/382/318
f 99/85/319 98/89/320 102/90/321 103/86/322
f 100/95/323 101/92/324 105/91/325 104/96/326
f 103/383/327 102/387/328 104/388/329 105/384/330
s 4
f 87/633/331 89/634/332 98/635/333 100/636/334
f 89/634/332 93/639/335 102/640/336 98/635/333
f 93/639/335 90/641/337 104/642/338 102/640/336
f 90/641/337 87/633/331 100/636/334 104/642/338
s off
f 101/377/339 99/378/340 94/379/341 95/380/342
f 99/85/343 103/86/344 96/87/345 94/88/346
f 103/383/347 105/384/348 97/385/349 96/386/350
f 105/91/351 101/92/352 95/93/353 97/94/354
f 106/77/355 107/78/356 87/74/357 86/73/358
f 88/82/359 89/81/360 109/83/361 108/84/362
f 108/389/363 109/390/364 107/391/365 106/392/366
f 111/647/367 110/648/368 112/649/369 113/650/370
f 108/631/371 106/632/372 86/628/373 88/627/374
f 114/397/375 115/394/376 117/393/377 116/398/378
f 115/97/379 114/101/380 118/102/381 119/98/382
f 116/107/383 117/104/384 121/103/385 120/108/386
f 119/399/387 118/403/388 120/404/389 121/400/390
s 5
f 107/643/391 109/645/392 114/646/393 116/644/394
f 109/645/392 89/634/395 118/638/396 114/646/393
f 89/634/395 87/633/397 120/637/398 118/638/396
f 87/633/397 107/643/391 116/644/394 120/637/398
s off
f 117/393/399 115/394/400 110/395/401 111/396/402
f 115/97/403 119/98/404 112/99/405 110/100/406
f 119/399/407 121/400/408 113/401/409 112/402/410
f 121/103/411 117/104/412 111/105/413 113/106/414
f 92/405/415 91/406/416 90/407/417 93/408/418
s 6
f 122/109/419 123/110/420 143/111/421 142/112/422
f 123/110/420 124/113/423 144/114/424 143/111/421
f 124/409/423 125/410/425 145/411/426 144/412/424
f 125/410/425 126/413/427 146/414/428 145/411/426
f 126/413/427 127/415/429 147/416/430 146/414/428
f 127/415/429 128/417/431 148/418/432 147/416/430
f 128/129/431 129/123/433 149/126/434 148/130/432
f 129/123/433 130/124/435 150/125/436 149/126/434
f 130/124/435 131/127/437 151/128/438 150/125/436
f 131/127/437 132/131/439 152/132/440 151/128/438
f 132/131/439 133/133/441 153/134/442 152/132/440
f 133/133/441 134/135/443 154/136/444 153/134/442
f 134/419/443 135/420/445 155/421/446 154/422/444
f 135/420/445 136/423/447 156/424/448 155/421/446
f 136/423/447 137/425/449 157/426/450 156/424/448
f 137/425/449 138/427/451 158/428/452 157/426/450
f 138/121/451 139/119/453 159/120/454 158/122/452
f 139/119/453 140/117/455 160/118/456 159/120/454
f 140/117/455 141/115/457 161/116/458 160/118/456
f 141/115/457 122/109/419 142/112/422 161/116/458
s 7
f 123/651/459 122/652/460 162/653/461
f 124/655/462 123/651/459 162/653/461
f 125/657/463 124/655/462 162/653/461
f 126/659/464 125/657/463 162/653/461
f 127/661/465 126/659/464 162/653/461
f 128/663/466 127/661/465 162/653/461
f 129/665/467 128/663/466 162/653/461
f 130/667/468 129/665/467 162/653/461
f 131/669/469 130/667/468 162/653/461
f 132/671/470 131/669/469 162/653/461
f 133/670/471 132/671/470 162/653/461
f 134/668/472 133/670/471 162/653/461
f 135/666/473 134/668/472 162/653/461
f 136/664/474 135/666/473 162/653/461
f 137/662/475 136/664/474 162/653/461
f 138/660/476 137/662/475 162/653/461
f 139/658/477 138/660/476 162/653/461
f 140/656/478 139/658/477 162/653/461
f 141/654/479 140/656/478 162/653/461
f 122/652/460 141/654/479 162/653/461
s 8
f 142/672/480 143/673/481 163/674/482
f 143/673/481 144/675/483 163/674/482
f 144/675/483 145/677/484 163/674/482
f 145/677/484 146/679/485 163/674/482
f 146/679/485 147/681/486 163/674/482
f 147/681/486 148/683/487 163/674/482
f 148/683/487 149/685/488 163/674/482
f 149/685/488 150/687/489 163/674/482
f 150/687/489 151/689/490 163/674/482
f 151/689/490 152/691/491 163/674/482
f 152/691/491 153/692/492 163/674/482
f 153/692/492 154/690/493 163/674/482
f 154/690/493 155/688/494 163/674/482
f 155/688/494 156/686/495 163/674/482
f 156/686/495 157/684/496 163/674/482
f 157/684/496 158/682/497 163/674/482
f 158/682/497 159/680/498 163/674/482
f 159/680/498 160/678/499 163/674/482
f 160/678/499 161/676/500 163/674/482
f 161/676/500 142/672/480 163/674/482
s 9
f 164/137/501 165/138/502 185/139/503 184/140/504
f 165/138/502 166/141/505 186/142/506 185/139/503
f 166/429/505 167/430/507 187/431/508 186/432/506
f 167/430/507 168/433/509 188/434/510 187/431/508
f 168/433/509 169/437/511 189/438/512 188/434/510
f 169/437/511 170/440/513 190/441/514 189/438/512
f 170/164/513 171/158/515 191/161/516 190/165/514
f 171/158/515 172/159/517 192/160/518 191/161/516
f 172/159/517 173/162/519 193/163/520 192/160/518
f 173/162/519 174/166/521 194/167/522 193/163/520
f 174/166/521 175/168/523 195/169/524 194/167/522
f 175/168/523 176/170/525 196/171/526 195/169/524
f 176/446/525 177/447/527 197/448/528 196/449/526
f 177/447/527 178/450/529 198/451/530 197/448/528
f 178/450/529 179/452/531 199/453/532 198/451/530
f 179/452/531 180/454/533 200/455/534 199/453/532
f 180/155/533 181/152/535 201/153/536 200/156/534
f 181/152/535 182/149/537 202/150/538 201/153/536
f 182/149/537 183/145/539 203/146/540 202/150/538
f 183/145/539 164/137/501 184/140/504 203/146/540
s 10
f 165/693/541 164/694/542 204/695/543
f 166/697/544 165/693/541 204/695/543
f 167/699/545 166/697/544 204/695/543
f 168/701/546 167/699/545 204/695/543
f 169/703/547 168/701/546 204/695/543
f 170/705/548 169/703/547 204/695/543
f 171/707/549 170/705/548 204/695/543
f 172/709/550 171/707/549 204/695/543
f 173/711/551 172/709/550 204/695/543
f 174/713/552 173/711/551 204/695/543
f 175/712/553 174/713/552 204/695/543
f 176/710/554 175/712/553 204/695/543
f 177/708/555 176/710/554 204/695/543
f 178/706/556 177/708/555 204/695/543
f 179/704/557 178/706/556 204/695/543
f 180/702/558 179/704/557 204/695/543
f 181/700/559 180/702/558 204/695/543
f 182/698/560 181/700/559 204/695/543
f 183/696/561 182/698/560 204/695/543
f 164/694/542 183/696/561 204/695/543
s 11
f 205/714/562 206/715/563 207/716/564
f 206/715/563 208/717/565 207/716/564
f 208/717/565 209/719/566 207/716/564
f 209/719/566 210/721/567 207/716/564
f 210/721/567 211/723/568 207/716/564
f 211/723/568 212/727/569 207/716/564
f 212/727/569 213/732/570 207/716/564
f 213/732/570 214/736/571 207/716/564
f 214/736/571 215/740/572 207/716/564
f 215/740/572 216/746/573 207/716/564
f 216/746/573 217/750/574 207/716/564
f 217/750/574 218/743/575 207/716/564
f 218/743/575 219/737/576 207/716/564
f 219/737/576 220/733/577 207/716/564
f 220/733/577 221/728/578 207/716/564
f 221/728/578 222/724/579 207/716/564
f 222/724/579 223/722/580 207/716/564
f 223/722/580 224/720/581 207/716/564
f 224/720/581 225/718/582 207/716/564
f 225/718/582 205/714/562 207/716/564
s off
f 184/140/583 185/139/584 206/143/585 205/144/586
f 185/139/587 186/142/588 208/147/589 206/143/590
f 186/432/591 187/431/592 209/435/593 208/436/594
f 187/431/595 188/434/596 210/439/597 209/435/598
f 248/764/599 249/763/600 250/768/601 251/769/602
f 249/763/603 252/767/604 253/773/605 250/768/606
f 252/767/607 254/772/608 255/777/609 253/773/610
f 254/772/611 256/776/612 257/781/613 255/777/614
f 256/776/615 258/780/616 259/785/617 257/781/618
f 258/780/619 260/784/620 261/789/621 259/785/622
f 260/784/623 262/788/624 263/793/625 261/789/626
f 262/788/627 264/792/628 265/797/629 263/793/630
f 264/792/631 266/796/632 267/799/633 265/797/634
f 266/796/635 268/798/636 269/800/637 267/799/638
f 198/451/639 199/453/640 221/456/641 220/457/642
f 199/453/643 200/455/644 222/458/645 221/456/646
f 200/156/647 201/153/648 223/154/649 222/157/650
f 201/153/651 202/150/652 224/151/653 223/154/654
f 202/150/655 203/146/656 225/148/657 224/151/658
f 203/146/659 184/140/660 205/144/661 225/148/662
f 188/757/663 189/758/664 227/759/665 226/760/666
f 211/723/667 210/721/668 229/725/669 228/726/670
f 210/439/671 188/434/672 226/442/673 229/443/674
f 189/758/675 190/761/676 230/762/677 227/759/678
f 212/727/679 211/723/680 228/726/681 231/731/682
f 190/761/683 191/765/684 232/766/685 230/762/686
f 213/732/687 212/727/688 231/731/689 233/735/690
f 191/765/691 192/770/692 234/771/693 232/766/694
f 214/736/695 213/732/696 233/735/697 235/739/698
f 192/770/699 193/774/700 236/775/701 234/771/702
f 215/740/703 214/736/704 235/739/705 237/745/706
f 193/774/707 194/778/708 238/779/709 236/775/710
f 216/746/711 215/740/712 237/745/713 239/752/714
f 194/778/715 195/782/716 240/783/717 238/779/718
f 217/750/719 216/746/720 239/752/721 241/753/722
f 195/782/723 196/786/724 242/787/725 240/783/726
f 218/743/727 217/750/728 241/753/729 243/747/730
f 196/786/731 197/790/732 244/791/733 242/787/734
f 219/737/735 218/743/736 243/747/737 245/741/738
f 197/790/739 198/794/740 246/795/741 244/791/742
f 198/451/743 220/457/744 247/459/745 246/460/746
f 220/733/747 219/737/748 245/741/749 247/742/750
f 226/760/751 227/759/752 249/763/753 248/764/754
f 228/726/755 229/725/756 251/729/757 250/730/758
f 229/443/759 226/442/760 248/444/761 251/445/762
f 227/759/763 230/762/764 252/767/765 249/763/766
f 231/731/767 228/726/768 250/730/769 253/734/770
f 230/762/771 232/766/772 254/772/773 252/767/774
f 233/735/775 231/731/776 253/734/777 255/738/778
f 232/766/779 234/771/780 256/776/781 254/772/782
f 235/739/783 233/735/784 255/738/785 257/744/786
f 234/771/787 236/775/788 258/780/789 256/776/790
f 237/745/791 235/739/792 257/744/793 259/751/794
f 236/775/795 238/779/796 260/784/797 258/780/798
f 239/752/799 237/745/800 259/751/801 261/755/802
f 238/779/803 240/783/804 262/788/805 260/784/806
f 241/753/807 239/752/808 261/755/809 263/756/810
f 240/783/811 242/787/812 264/792/813 262/788/814
f 243/747/815 241/753/816 263/756/817 265/754/818
f 242/787/819 244/791/820 266/796/821 264/792/822
f 245/741/823 243/747/824 265/754/825 267/748/826
f 244/791/827 246/795/828 268/798/829 266/796/830
f 246/460/831 247/459/832 269/461/833 268/462/834
f 247/742/835 245/741/836 267/748/837 269/749/838
s 12
f 270/172/839 271/173/840 291/174/841 290/175/842
f 271/173/840 272/176/843 292/177/844 291/174/841
f 272/463/843 273/464/845 293/465/846 292/466/844
f 273/464/845 274/467/847 294/468/848 293/465/846
f 274/467/847 275/469/849 295/470/850 294/468/848
f 275/469/849 276/471/851 296/472/852 295/470/850
f 276/192/851 277/186/853 297/189/854 296/193/852
f 277/186/853 278/187/855 298/188/856 297/189/854
f 278/187/855 279/190/857 299/191/858 298/188/856
f 279/190/857 280/194/859 300/195/860 299/191/858
f 280/194/859 281/196/861 301/197/862 300/195/860
f 281/196/861 282/198/863 302/199/864 301/197/862
f 282/473/863 283/474/865 303/475/866 302/476/864
f 283/474/865 284/477/867 304/478/868 303/475/866
f 284/477/867 285/479/869 305/480/870 304/478/868
f 285/479/869 286/481/871 306/482/872 305/480/870
f 286/184/871 287/182/873 307/183/874 306/185/872
f 287/182/873 288/180/875 308/181/876 307/183/874
f 288/180/875 289/178/877 309/179/878 308/181/876
f 289/178/877 270/172/839 290/175/842 309/179/878
s 13
f 271/801/879 270/802/880 310/803/881
f 272/805/882 271/801/879 310/803/881
f 273/807/883 272/805/882 310/803/881
f 274/809/884 273/807/883 310/803/881
f 275/811/885 274/809/884 310/803/881
f 276/813/886 275/811/885 310/803/881
f 277/815/887 276/813/886 310/803/881
f 278/817/888 277/815/887 310/803/881
f 279/819/889 278/817/888 310/803/881
f 280/821/890 279/819/889 310/803/881
f 281/820/891 280/821/890 310/803/881
f 282/818/892 281/820/891 310/803/881
f 283/816/893 282/818/892 310/803/881
f 284/814/894 283/816/893 310/803/881
f 285/812/895 284/814/894 310/803/881
f 286/810/896 285/812/895 310/803/881
f 287/808/897 286/810/896 310/803/881
f 288/806/898 287/808/897 310/803/881
f 289/804/899 288/806/898 310/803/881
f 270/802/880 289/804/899 310/803/881
s 14
f 290/822/900 291/823/901 311/824/902
f 291/823/901 292/825/903 311/824/902
f 292/825/903 293/827/904 311/824/902
f 293/827/904 294/829/905 311/824/902
f 294/829/905 295/831/906 311/824/902
f 295/831/906 296/833/907 311/824/902
f 296/833/907 297/835/908 311/824/902
f 297/835/908 298/837/909 311/824/902
f 298/837/909 299/839/910 311/824/902
f 299/839/910 300/841/911 311/824/902
f 300/841/911 301/842/912 311/824/902
f 301/842/912 302/840/913 311/824/902
f 302/840/913 303/838/914 311/824/902
f 303/838/914 304/836/915 311/824/902
f 304/836/915 305/834/916 311/824/902
f 305/834/916 306/832/917 311/824/902
f 306/832/917 307/830/918 311/824/902
f 307/830/918 308/828/919 311/824/902
f 308/828/919 309/826/920 311/824/902
f 309/826/920 290/822/900 311/824/902
s off
f 312/200/921 313/201/922 315/202/923 314/203/924
f 314/483/925 315/484/926 317/485/927 316/486/928
f 316/204/929 317/205/930 319/206/931 318/207/932
f 318/487/933 319/488/934 313/489/935 312/490/936
f 313/843/937 319/844/938 317/845/939 315/846/940
f 318/847/941 312/848/942 314/849/943 316/850/944
f 320/208/945 321/209/946 323/210/947 322/211/948
f 324/212/949 325/216/950 327/217/951 326/213/952
f 325/216/953 324/212/954 328/215/955 329/219/956
f 326/213/957 327/217/958 331/218/959 330/214/960
f 329/219/961 328/215/962 330/214/963 331/218/964
f 324/212/965 326/213/966 330/214/967 328/215/968
f 329/491/969 331/492/970 321/493/971 320/494/972
f 322/495/973 323/496/974 327/497/975 325/498/976
f 327/851/977 323/852/978 321/853/979 331/854/980
f 322/855/981 325/856/982 329/857/983 320/858/984
f 332/220/985 333/221/986 335/222/987 334/223/988
f 336/224/989 337/228/990 339/229/991 338/225/992
f 337/228/993 336/224/994 340/227/995 341/231/996
f 338/225/997 339/229/998 343/230/999 342/226/1000
f 341/231/1001 340/227/1002 342/226/1003 343/230/1004
f 336/224/1005 338/225/1006 342/226/1007 340/227/1008
f 341/499/1009 343/500/1010 333/501/1011 332/502/1012
f 334/503/1013 335/504/1014 339/505/1015 337/506/1016
f 339/859/1017 335/860/1018 333/861/1019 343/862/1020
f 334/863/1021 337/864/1022 341/865/1023 332/866/1024
f 344/232/1025 345/233/1026 347/234/1027 346/235/1028
f 348/236/1029 349/240/1030 351/241/1031 350/237/1032
f 349/240/1033 348/236/1034 352/239/1035 353/243/1036
f 350/237/1037 351/241/1038 355/242/1039 354/238/1040
f 353/243/1041 352/239/1042 354/238/1043 355/242/1044
f 348/236/1045 350/237/1046 354/238/1047 352/239/1048
f 353/507/1049 355/508/1050 345/509/1051 344/510/1052
f 346/511/1053 347/512/1054 351/513/1055 349/514/1056
f 351/867/1057 347/868/1058 345/869/1059 355/870/1060
f 346/871/1061 349/872/1062 353/873/1063 344/874/1064
f 356/244/1065 357/245/1066 359/246/1067 358/247/1068
f 360/248/1069 361/252/1070 363/253/1071 362/249/1072
f 361/252/1073 360/248/1074 364/251/1075 365/255/1076
f 362/249/1077 363/253/1078 367/254/1079 366/250/1080
f 365/255/1081 364/251/1082 366/250/1083 367/254/1084
f 360/248/1085 362/249/1086 366/250/1087 364/251/1088
f 365/515/1089 367/516/1090 357/517/1091 356/518/1092
f 358/519/1093 359/520/1094 363/521/1095 361/522/1096
f 363/875/1097 359/876/1098 357/877/1099 367/878/1100
f 358/879/1101 361/880/1102 365/881/1103 356/882/1104
f 368/256/1105 369/257/1106 371/258/1107 370/259/1108
f 372/260/1109 373/264/1110 375/265/1111 374/261/1112
f 373/264/1113 372/260/1114 376/263/1115 377/267/1116
f 374/261/1117 375/265/1118 379/266/1119 378/262/1120
f 377/267/1121 376/263/1122 378/262/1123 379/266/1124
f 372/260/1125 374/261/1126 378/262/1127 376/263/1128
f 377/523/1129 379/524/1130 369/525/1131 368/526/1132
f 370/527/1133 371/528/1134 375/529/1135 373/530/1136
f 375/883/1137 371/884/1138 369/885/1139 379/886/1140
f 370/887/1141 373/888/1142 377/889/1143 368/890/1144
f 380/268/1145 381/269/1146 383/270/1147 382/271/1148
f 384/272/1149 385/276/1150 387/277/1151 386/273/1152
f 385/276/1153 384/272/1154 388/275/1155 389/279/1156
f 386/273/1157 387/277/1158 391/278/1159 390/274/1160
f 389/279/1161 388/275/1162 390/274/1163 391/278/1164
f 384/272/1165 386/273/1166 390/274/1167 388/275/1168
f 389/531/1169 391/532/1170 381/533/1171 380/534/1172
f 382/535/1173 383/536/1174 387/537/1175 385/538/1176
f 387/891/1177 383/892/1178 381/893/1179 391/894/1180
f 382/895/1181 385/896/1182 389/897/1183 380/898/1184
f 392/280/1185 393/281/1186 395/282/1187 394/283/1188
f 396/284/1189 397/288/1190 399/289/1191 398/285/1192
f 397/288/1193 396/284/1194 400/287/1195 401/291/1196
f 398/285/1197 399/289/1198 403/290/1199 402/286/1200
f 401/291/1201 400/287/1202 402/286/1203 403/290/1204
f 396/284/1205 398/285/1206 402/286/1207 400/287/1208
f 401/539/1209 403/540/1210 393/541/1211 392/542/1212
f 394/543/1213 395/544/1214 399/545/1215 397/546/1216
f 399/899/1217 395/900/1218 393/901/1219 403/902/1220
f 394/903/1221 397/904/1222 401/905/1223 392/906/1224
